<svg xmlns="http://www.w3.org/2000/svg"  version="1.1" viewBox="1 1 596 596.718" width="400" heigth="400" >
<g id="surface1">
<path d="M 129.710938 9.949219 L 547.609375 9.949219 C 569.585938 9.949219 587.410156 27.769531 587.410156 49.75 L 587.410156 358.199219 C 587.410156 380.179688 569.585938 398 547.609375 398 L 129.710938 398 C 107.730469 398 89.910156 380.179688 89.910156 358.199219 L 89.910156 49.75 C 89.910156 27.769531 107.730469 9.949219 129.710938 9.949219 Z M 129.710938 9.949219 " style=" stroke:none;fill-rule:nonzero;fill:rgb(52.941176%,80.784314%,85.098039%);fill-opacity:1;" />
<path d="M 199.359375 39.800781 L 219.257812 39.800781 L 219.257812 59.699219 L 199.359375 59.699219 Z M 199.359375 39.800781 " style=" stroke:none;fill-rule:nonzero;fill:rgb(36.862745%,70.196078%,81.960784%);fill-opacity:1;" />
<path d="M 119.757812 39.800781 L 139.660156 39.800781 L 139.660156 59.699219 L 119.757812 59.699219 Z M 119.757812 39.800781 " style=" stroke:none;fill-rule:nonzero;fill:rgb(36.862745%,70.196078%,81.960784%);fill-opacity:1;" />
<path d="M 159.558594 39.800781 L 179.460938 39.800781 L 179.460938 59.699219 L 159.558594 59.699219 Z M 159.558594 39.800781 " style=" stroke:none;fill-rule:nonzero;fill:rgb(36.862745%,70.196078%,81.960784%);fill-opacity:1;" />
<path d="M 119.757812 79.597656 L 557.558594 79.597656 L 557.558594 99.5 L 119.757812 99.5 Z M 119.757812 79.597656 " style=" stroke:none;fill-rule:nonzero;fill:rgb(36.862745%,70.196078%,81.960784%);fill-opacity:1;" />
<path d="M 119.757812 119.402344 L 219.257812 119.402344 L 219.257812 139.300781 L 119.757812 139.300781 Z M 119.757812 119.402344 " style=" stroke:none;fill-rule:nonzero;fill:rgb(36.862745%,70.196078%,81.960784%);fill-opacity:1;" />
<path d="M 119.757812 159.199219 L 179.460938 159.199219 L 179.460938 179.101562 L 119.757812 179.101562 Z M 119.757812 159.199219 " style=" stroke:none;fill-rule:nonzero;fill:rgb(36.862745%,70.196078%,81.960784%);fill-opacity:1;" />
<path d="M 239.160156 169.148438 L 278.957031 169.148438 L 278.957031 348.25 L 239.160156 348.25 Z M 239.160156 169.148438 " style=" stroke:none;fill-rule:nonzero;fill:rgb(89.019608%,29.411765%,52.941176%);fill-opacity:1;" />
<path d="M 318.757812 139.300781 L 358.558594 139.300781 L 358.558594 348.25 L 318.757812 348.25 Z M 318.757812 139.300781 " style=" stroke:none;fill-rule:nonzero;fill:rgb(89.019608%,29.411765%,52.941176%);fill-opacity:1;" />
<path d="M 398.359375 208.949219 L 438.160156 208.949219 L 438.160156 348.25 L 398.359375 348.25 Z M 398.359375 208.949219 " style=" stroke:none;fill-rule:nonzero;fill:rgb(89.019608%,29.411765%,52.941176%);fill-opacity:1;" />
<path d="M 477.957031 139.300781 L 517.757812 139.300781 L 517.757812 348.25 L 477.957031 348.25 Z M 477.957031 139.300781 " style=" stroke:none;fill-rule:nonzero;fill:rgb(89.019608%,29.411765%,52.941176%);fill-opacity:1;" />
<path d="M 119.757812 338.300781 L 557.558594 338.300781 L 557.558594 358.199219 L 119.757812 358.199219 Z M 119.757812 338.300781 " style=" stroke:none;fill-rule:nonzero;fill:rgb(36.862745%,70.196078%,81.960784%);fill-opacity:1;" />
<path d="M 333.039062 531.679688 C 368.550781 496.265625 388.46875 448.148438 388.410156 398 L 199.359375 398 Z M 333.039062 531.679688 " style=" stroke:none;fill-rule:nonzero;fill:rgb(99.215686%,65.490196%,18.431373%);fill-opacity:1;" />
<path d="M 199.359375 208.949219 C 94.953125 208.949219 10.308594 293.59375 10.308594 398 C 10.308594 502.40625 94.953125 587.050781 199.359375 587.050781 C 249.496094 587.050781 297.585938 567.128906 333.039062 531.675781 L 199.359375 398 Z M 199.359375 208.949219 " style=" stroke:none;fill-rule:nonzero;fill:rgb(89.019608%,29.411765%,52.941176%);fill-opacity:1;" />
<path d="M 199.359375 208.949219 L 199.359375 398 L 388.410156 398 C 388.410156 293.59375 303.765625 208.949219 199.359375 208.949219 Z M 199.359375 208.949219 " style=" stroke:none;fill-rule:nonzero;fill:rgb(26.27451%,59.607843%,81.960784%);fill-opacity:1;" />
<path d="M 547.609375 0 L 129.710938 0 C 102.246094 0.03125 79.988281 22.289062 79.957031 49.75 L 79.957031 208.949219 L 99.859375 208.949219 L 99.859375 49.75 C 99.859375 33.261719 113.222656 19.898438 129.710938 19.898438 L 547.609375 19.898438 C 564.09375 19.898438 577.457031 33.261719 577.457031 49.75 L 577.457031 358.199219 C 577.457031 374.6875 564.09375 388.050781 547.609375 388.050781 L 418.257812 388.050781 L 418.257812 407.949219 L 547.609375 407.949219 C 575.070312 407.917969 597.328125 385.664062 597.359375 358.199219 L 597.359375 49.75 C 597.328125 22.289062 575.070312 0.03125 547.609375 0 Z M 547.609375 0 " style=" stroke:none;fill-rule:nonzero;fill:rgb(0%,0%,0%);fill-opacity:1;" />
<path d="M 119.757812 39.800781 L 139.660156 39.800781 L 139.660156 59.699219 L 119.757812 59.699219 Z M 119.757812 39.800781 " style=" stroke:none;fill-rule:nonzero;fill:rgb(0%,0%,0%);fill-opacity:1;" />
<path d="M 159.558594 39.800781 L 179.460938 39.800781 L 179.460938 59.699219 L 159.558594 59.699219 Z M 159.558594 39.800781 " style=" stroke:none;fill-rule:nonzero;fill:rgb(0%,0%,0%);fill-opacity:1;" />
<path d="M 199.359375 39.800781 L 219.257812 39.800781 L 219.257812 59.699219 L 199.359375 59.699219 Z M 199.359375 39.800781 " style=" stroke:none;fill-rule:nonzero;fill:rgb(0%,0%,0%);fill-opacity:1;" />
<path d="M 119.757812 79.597656 L 557.558594 79.597656 L 557.558594 99.5 L 119.757812 99.5 Z M 119.757812 79.597656 " style=" stroke:none;fill-rule:nonzero;fill:rgb(0%,0%,0%);fill-opacity:1;" />
<path d="M 119.757812 119.402344 L 219.257812 119.402344 L 219.257812 139.300781 L 119.757812 139.300781 Z M 119.757812 119.402344 " style=" stroke:none;fill-rule:nonzero;fill:rgb(0%,0%,0%);fill-opacity:1;" />
<path d="M 119.757812 159.199219 L 179.460938 159.199219 L 179.460938 179.101562 L 119.757812 179.101562 Z M 119.757812 159.199219 " style=" stroke:none;fill-rule:nonzero;fill:rgb(0%,0%,0%);fill-opacity:1;" />
<path d="M 288.910156 189.050781 L 288.910156 169.148438 C 288.910156 163.65625 284.449219 159.199219 278.957031 159.199219 L 239.160156 159.199219 C 233.667969 159.199219 229.210938 163.65625 229.210938 169.148438 L 229.210938 179.097656 L 269.007812 179.097656 L 269.007812 189.050781 Z M 288.910156 189.050781 " style=" stroke:none;fill-rule:nonzero;fill:rgb(0%,0%,0%);fill-opacity:1;" />
<path d="M 368.507812 238.800781 L 368.507812 139.300781 C 368.507812 133.808594 364.050781 129.351562 358.558594 129.351562 L 318.757812 129.351562 C 313.265625 129.351562 308.808594 133.808594 308.808594 139.300781 L 308.808594 208.949219 L 328.710938 208.949219 L 328.710938 149.25 L 348.609375 149.25 L 348.609375 238.800781 Z M 368.507812 238.800781 " style=" stroke:none;fill-rule:nonzero;fill:rgb(0%,0%,0%);fill-opacity:1;" />
<path d="M 428.210938 338.300781 L 418.257812 338.300781 L 418.257812 358.199219 L 557.558594 358.199219 L 557.558594 338.300781 L 527.707031 338.300781 L 527.707031 139.300781 C 527.707031 133.808594 523.25 129.351562 517.757812 129.351562 L 477.957031 129.351562 C 472.464844 129.351562 468.007812 133.808594 468.007812 139.300781 L 468.007812 338.300781 L 448.109375 338.300781 L 448.109375 208.949219 C 448.109375 203.457031 443.652344 199 438.160156 199 L 398.359375 199 C 392.867188 199 388.410156 203.457031 388.410156 208.949219 L 388.410156 298.5 L 408.308594 298.5 L 408.308594 218.902344 L 428.210938 218.902344 Z M 487.910156 149.25 L 507.808594 149.25 L 507.808594 338.300781 L 487.910156 338.300781 Z M 487.910156 149.25 " style=" stroke:none;fill-rule:nonzero;fill:rgb(0%,0%,0%);fill-opacity:1;" />
<path d="M 199.359375 199 C 89.449219 199 0.359375 288.09375 0.359375 398 C 0.359375 507.90625 89.449219 597 199.359375 597 C 309.265625 597 398.359375 507.90625 398.359375 398 C 398.230469 288.152344 309.207031 199.128906 199.359375 199 Z M 199.359375 577.097656 C 100.445312 577.179688 20.1875 497.0625 20.109375 398.148438 C 20.039062 302.988281 94.386719 224.382812 189.410156 219.167969 L 189.410156 398 C 189.410156 398.210938 189.519531 398.398438 189.527344 398.617188 C 189.589844 399.492188 189.757812 400.359375 190.046875 401.195312 C 190.117188 401.394531 190.046875 401.632812 190.183594 401.832031 C 190.246094 401.949219 190.3125 402.070312 190.394531 402.179688 C 190.859375 403.214844 191.5 404.160156 192.273438 404.976562 L 192.335938 405.046875 L 318.757812 531.480469 C 285.992188 560.972656 243.4375 577.230469 199.359375 577.097656 Z M 332.839844 517.398438 L 223.386719 407.949219 L 378.191406 407.949219 C 376.050781 448.546875 360.039062 487.179688 332.839844 517.398438 Z M 209.308594 388.050781 L 209.308594 219.167969 C 300.339844 224.351562 373.007812 297.015625 378.191406 388.050781 Z M 209.308594 388.050781 " style=" stroke:none;fill-rule:nonzero;fill:rgb(0%,0%,0%);fill-opacity:1;" />
</g>
</svg>