<svg height="100px" viewBox="-13 0 511 512" width="100px" xmlns="http://www.w3.org/2000/svg"><path d="m28 433.5c-11.046875 0-20-8.953125-20-20v-366h320v386.410156zm0 0" fill="#d8d8d8"/><path d="m327.996094 67.5v366.410156l-30-.039062v-366.371094zm0 0" fill="#afafaf"/><path d="m328 57.5v-30c0-11.046875-8.953125-20-20-20h-280c-11.046875 0-20 8.953125-20 20v40h320z" fill="#8175ba"/><path d="m327.996094 27.5v40h-30v-40c0-11.050781-8.949219-20-20-20h30c11.050781 0 20 8.949219 20 20zm0 0" fill="#575293"/><path d="m293 403.5h-250c-2.761719 0-5-2.238281-5-5v-296c0-2.761719 2.238281-5 5-5h250c2.761719 0 5 2.238281 5 5v296c0 2.761719-2.238281 5-5 5zm0 0" fill="#fff"/><path d="m123 206.5h-45c-5.523438 0-10-4.476562-10-10v-59c0-5.523438 4.476562-10 10-10h45c5.523438 0 10 4.476562 10 10v59c0 5.523438-4.476562 10-10 10zm0 0" fill="#f7e1aa"/><path d="m418.148438 384.5c32.796874 25.871094 54.707031 64.621094 57.730468 109.324219.390625 5.773437-4.195312 10.675781-9.984375 10.675781h-284.789062c-5.789063 0-10.375-4.898438-9.988281-10.675781 3.015624-44.683594 24.84375-83.292969 57.539062-109.167969zm0 0" fill="#f2d67c"/><path d="m465.898438 504.5h-29.410157c5.527344-.289062 9.839844-5.070312 9.457031-10.671875-1.808593-26.71875-10.367187-51.316406-23.957031-72.308594l19.71875-12.878906.570313-.378906c19.167968 23.566406 31.398437 52.988281 33.601562 85.558593.386719 5.78125-4.191406 10.679688-9.980468 10.679688zm0 0" fill="#e2b061"/><path d="m442.277344 408.261719-.570313.378906-82.828125 54.089844c-5.421875 3.539062-12.652344 2.230469-16.472656-2.980469l-18.898438-25.75-.070312-.089844.050781-.058594 36.699219-49.300781 57.960938-.050781c8.898437 7.019531 16.988281 14.988281 24.128906 23.761719zm0 0" fill="#e2b061"/><path d="m442.277344 408.261719-.570313.378906-19.71875 12.878906c-2.980469-4.597656-6.203125-9.019531-9.640625-13.25-.890625-1.097656-1.800781-2.179687-2.71875-3.25-.84375-.988281-1.703125-1.960937-2.582031-2.917969-.660156-.730468-1.328125-1.460937-2.011719-2.179687 4.710938-4.75 9.011719-9.910156 12.832032-15.421875h.28125c3.589843 2.828125 7.039062 5.808594 10.359374 8.941406.480469.449219.949219.898438 1.410157 1.347656 4.378906 4.242188 8.507812 8.742188 12.359375 13.472657zm0 0" fill="#d18b3f"/><path d="m323.566406 433.910156-.058594.089844-18.910156 25.75c-3.832031 5.210938-11.0625 6.519531-16.46875 2.980469l-82.863281-54.109375-.046875-.972656c6.957031-8.46875 14.816406-16.179688 23.4375-23l29.089844-.019532 65.742187 49.222656zm0 0" fill="#e2b061"/><path d="m208.6875 319.09375c0 63.410156 51.402344 114.8125 114.8125 114.8125s114.8125-51.402344 114.8125-114.8125v-57.09375l-97.277344-70.332031-132.347656 70.332031zm0 0" fill="#fcd09f"/><path d="m438.316406 262v57.089844c0 31.710937-12.847656 60.410156-33.628906 81.191406-20.78125 20.777344-49.492188 33.628906-81.191406 33.628906-5.078125 0-10.089844-.332031-15-.96875 25.710937-3.363281 48.742187-15.210937 66.191406-32.660156 20.78125-20.78125 33.628906-49.480469 33.628906-81.191406v-57.089844zm0 0" fill="#f4b06c"/><path d="m438.527344 187.167969c-2.039063.988281-4.210938 1.460937-6.339844 1.460937-3.699219 0-7.320312-1.410156-10.070312-4 0 0-1.746094-2.378906-3.710938-5.472656-4.050781-5.9375-8.648438-11.476562-13.71875-16.546875-20.78125-20.78125-49.492188-33.632813-81.191406-33.632813-41.789063 0-78.367188 22.332032-98.4375 55.703126h-.273438c-4.136718 4.136718-10.527344 5.367187-16 2.71875-5.027344-2.441407-7.898437-7.449219-7.898437-12.621094 0-2.558594.699219-5.148438 2.199219-7.488282 25.359374-39.691406 69.8125-66.0625 120.300781-66.0625 50.699219 0 95.308593 26.582032 120.621093 66.550782 4.308594 6.8125 1.769532 15.859375-5.480468 19.390625zm0 0" fill="#8175ba"/><path d="m438.316406 243.789062v37.121094s-45.089844-5.082031-93.660156-44.160156c.070312-.039062.152344-.078125.222656-.121094 25.1875-14.207031 50.71875-32.910156 73.527344-57.46875 12.570312 18.410156 19.910156 40.660156 19.910156 64.628906zm0 0" fill="#a8704a"/><path d="m438.316406 243.789062v37.121094s-11.839844-1.332031-29.929687-7.898437v-29.210938c0-1.171875-.019531-2.332031-.058594-3.480469-.441406-14.941406-3.730469-29.160156-9.359375-42.128906 1.769531-1.589844 3.539062-3.203125 5.289062-4.839844.660157-.613281 1.308594-1.230468 1.96875-1.863281.621094-.578125 1.230469-1.167969 1.839844-1.757812.5-.492188 1-.980469 1.492188-1.460938 2.988281-2.949219 5.9375-5.980469 8.847656-9.109375 12.570312 18.410156 19.910156 40.660156 19.910156 64.628906zm0 0" fill="#845036"/><path d="m418.40625 179.160156c-22.808594 24.558594-48.339844 43.261719-73.527344 57.46875-.070312.042969-.152344.082032-.222656.121094-69.328125 39.050781-135.96875 44.160156-135.96875 44.160156v-37.121094c0-63.410156 51.398438-114.808593 114.808594-114.808593 31.699218 0 60.410156 12.847656 81.191406 33.628906 5.070312 5.070313 9.667969 10.609375 13.71875 16.550781zm0 0" fill="#c4946c"/><path d="m418.40625 179.160156c-2.910156 3.128906-5.859375 6.160156-8.847656 9.109375-.492188.480469-.992188.96875-1.492188 1.460938-.609375.589843-1.21875 1.179687-1.839844 1.757812-.660156.632813-1.308593 1.25-1.96875 1.863281-1.75 1.636719-3.519531 3.25-5.289062 4.839844-2.902344-6.691406-6.421875-13.0625-10.492188-19.019531-4.050781-5.941406-8.648437-11.480469-13.71875-16.550781-17.460937-17.460938-40.53125-29.332032-66.261718-32.671875 4.910156-.640625 9.921875-.96875 15-.96875 31.699218 0 60.410156 12.847656 81.191406 33.628906 5.070312 5.070313 9.667969 10.609375 13.71875 16.550781zm0 0" fill="#a8704a"/><g fill="#747a89"><path d="m438.316406 284.609375c0-7.621094 6.175782-13.796875 13.792969-13.796875s13.792969 6.175781 13.792969 13.796875v33.265625c0 7.617188-6.175782 13.796875-13.792969 13.796875s-13.792969-6.179687-13.792969-13.796875zm0 0"/><path d="m473.074219 313.007812c2.761719 0 5-2.238281 5-5v-13.53125c0-2.761718-2.238281-5-5-5h-13.039063v23.53125zm0 0"/><path d="m208.6875 284.609375c0-7.621094-6.175781-13.796875-13.796875-13.796875-7.617187 0-13.792969 6.175781-13.792969 13.796875v33.265625c0 7.617188 6.175782 13.796875 13.792969 13.796875 7.621094 0 13.796875-6.179687 13.796875-13.796875zm0 0"/><path d="m187.035156 289.476562v23.53125h-13.109375c-2.75 0-5-2.25-5-5v-13.53125c0-2.757812 2.238281-5 5-5zm0 0"/><path d="m378.617188 394c-8.269532 0-15-6.730469-15-15s6.730468-15 15-15c8.273437 0 15 6.730469 15 15s-6.726563 15-15 15zm0-15.011719v.011719c0-.007812 0-.011719 0-.011719zm0 0"/></g><path d="m365.449219 175.367188c-28.515625 23.703124-73.753907 54.066406-127.316407 64.117187-4.070312.765625-6.75 4.683594-5.988281 8.753906.675781 3.605469 3.824219 6.117188 7.363281 6.117188.457032 0 .925782-.039063 1.390626-.128907 56.726562-10.644531 104.253906-42.488281 134.136718-67.324218 3.1875-2.648438 3.625-7.378906.976563-10.5625-2.648438-3.1875-7.375-3.621094-10.5625-.972656zm0 0"/><path d="m473.402344 354.582031v-34.089843c6.742187-.175782 12.171875-5.703126 12.171875-12.484376v-13.53125c0-6.78125-5.429688-12.304687-12.171875-12.480468v-38.109375c0-23.257813-5.167969-45.519531-15.355469-66.171875-.335937-.71875-7.195313-13.144532-7.707031-13.949219-25.585938-40.40625-67.890625-65.789063-114.839844-69.535156v-66.730469c0-15.164062-12.335938-27.5-27.5-27.5h-280c-15.164062 0-27.5 12.335938-27.5 27.5v320.5c0 4.144531 3.359375 7.5 7.5 7.5 4.144531 0 7.5-3.355469 7.5-7.5v-273h305v18.773438c-5.214844.101562-10.382812.457031-15.488281 1.082031-1.070313-2.835938-3.800781-4.855469-7.011719-4.855469h-260c-4.140625 0-7.5 3.355469-7.5 7.5v306c0 4.144531 3.359375 7.5 7.5 7.5h155.09375c-3.484375 4.828125-6.691406 9.832031-9.59375 15h-155.5c-6.894531 0-12.5-5.605469-12.5-12.5v-30.5c0-4.144531-3.359375-7.5-7.5-7.5s-7.5 3.355469-7.5 7.5v30.5c0 15.164062 12.335938 27.5 27.5 27.5h148.109375c-6.988281 16.324219-11.230469 33.929688-12.472656 52.320312-.324219 4.816407 1.378906 9.597657 4.675781 13.125 3.300781 3.53125 7.960938 5.554688 12.792969 5.554688h218.597656c4.144531 0 7.5-3.355469 7.5-7.5s-3.355469-7.5-7.5-7.5h-218.597656c-.949219 0-1.554688-.5-1.835938-.796875-.277343-.296875-.730469-.933594-.667969-1.871094 1.894532-28.089843 11.527344-54.148437 27.753907-76.046875l77.671875 50.730469c3.308594 2.160156 7.042968 3.199219 10.738281 3.199219 6.066406 0 12.035156-2.796875 15.875-8.027344l12.859375-17.515625 12.859375 17.515625c3.839844 5.230469 9.808594 8.027344 15.875 8.027344 3.695313 0 7.429687-1.039063 10.738281-3.199219l77.671875-50.726563c16.21875 21.886719 25.851563 47.945313 27.753907 76.042969.0625.9375-.394532 1.574219-.667969 1.871094-.28125.296875-.886719.796875-1.835938.796875h-31.191406c-4.140625 0-7.5 3.355469-7.5 7.5s3.359375 7.5 7.5 7.5h31.191406c4.832031 0 9.496094-2.023438 12.792969-5.554688 3.296875-3.527343 5-8.3125 4.675781-13.128906-1.554687-22.945312-7.804687-44.738281-18.578125-64.769531-8.570312-15.9375-19.652344-30.125-33.019531-42.316406h10c17.445313 0 31.636719-14.195313 31.636719-31.648438zm-31.636719 16.648438h-7.636719c4.945313-10.453125 8.460938-21.710938 10.273438-33.527344 2.394531.933594 4.988281 1.46875 7.707031 1.46875 2.191406 0 4.304687-.335937 6.292969-.953125v16.363281c0 9.335938-7.308594 16.648438-16.636719 16.648438zm-50.339844 0c-2.632812-4.324219-7.378906-7.230469-12.808593-7.230469-8.269532 0-15 6.730469-15 15s6.730468 15 15 15c5.652343 0 10.578124-3.140625 13.136718-7.769531h15.398438c-19.6875 24.480469-49.867188 40.175781-83.652344 40.175781-59.171875 0-107.3125-48.140625-107.3125-107.3125v-31.445312c18.609375-2.347657 71.699219-11.355469 127.941406-42.027344 37.859375 29.433594 72.507813 38.855468 86.6875 41.660156v31.8125c0 18.914062-4.925781 36.691406-13.546875 52.140625h-25.84375zm-202.828125-86.621094c0-3.472656 2.824219-6.296875 6.292969-6.296875 3.472656 0 6.296875 2.824219 6.296875 6.296875v33.59375c-.011719.078125-.019531.15625-.027344.234375-.277344 3.214844-3.03125 5.730469-6.269531 5.730469-3.46875 0-6.292969-2.820313-6.292969-6.292969zm6.292969-21.296875c-2.191406 0-4.304687.335938-6.292969.953125v-20.378906c0-18.980469 3.742188-37.101563 11.078125-53.910157 1.683594 1.6875 3.648438 3.109376 5.839844 4.171876 1.75.847656 3.578125 1.429687 5.429687 1.777343-6.28125 14.707031-9.761718 30.886719-9.761718 47.863281v20.476563c-1.988282-.617187-4.101563-.953125-6.292969-.953125zm263.511719 54.5625c0 3.472656-2.824219 6.296875-6.292969 6.296875-3.472656 0-6.292969-2.824219-6.292969-6.296875v-33.265625c0-3.472656 2.820313-6.296875 6.292969-6.296875 3.46875 0 6.292969 2.824219 6.292969 6.296875zm-41.300782-126.535156c8.730469 15.519531 13.714844 33.414062 13.714844 52.449218v28.140626c-13.414062-3.03125-41.527344-11.621094-72.574218-34.441407 21.875-13.324219 41.609374-28.792969 58.859374-46.148437zm-75.914062 38.761718c-53.226562 30.035157-105.445312 39.664063-125 42.378907v-28.6875c0-59.175781 48.140625-107.316407 107.3125-107.316407 34.648438 0 65.515625 16.507813 85.148438 42.066407-19.269532 19.828125-41.9375 37.15625-67.460938 51.558593zm117.214844 13.785157v20.378906c-1.988282-.617187-4.101563-.949219-6.292969-.949219s-4.304687.332032-6.292969.949219v-20.472656c0-17.027344-3.507812-33.25-9.824218-47.992188 1.976562-.355469 3.933593-.972656 5.8125-1.890625 2.027343-.984375 3.859374-2.28125 5.441406-3.824218 7.398437 16.9375 11.15625 35 11.15625 53.800781zm-20.734375-72.097657c.933593 1.476563 1.1875 3.210938.710937 4.886719-.472656 1.660157-1.585937 2.992188-3.140625 3.75-2.609375 1.269531-5.679687.808594-7.871093-1.164062-.746094-1.199219-2.910157-4.578125-3.308594-5.035157-22.105469-31.855468-58.9375-52.75-100.558594-52.75-43.746094 0-82.195312 23.089844-103.820312 57.71875-.066407.0625-.132813.113282-.195313.175782-1.964844 1.964844-4.949219 2.480468-7.425781 1.277344-1.695313-.820313-2.910156-2.269532-3.421875-4.085938-.507813-1.800781-.234375-3.660156.769531-5.234375 25.042969-39.195313 67.65625-62.597656 113.984375-62.597656 46.550781 0 89.269531 23.574219 114.277344 63.058593zm-422.167969-144.289062c0-6.894531 5.605469-12.5 12.5-12.5h280c6.894531 0 12.5 5.605469 12.5 12.5v32.5h-305zm30 368.5v-291h220.722656c-28.109375 11.566406-52.441406 31.617188-69.457031 58.253906-.78125 1.21875-7.699219 13.980469-7.878906 14.332032-10.144531 20.539062-15.289063 42.84375-15.289063 66.300781v38.105469c-6.742187.179687-12.171875 5.703124-12.171875 12.484374v13.53125c0 6.84375 5.527344 12.410157 12.351563 12.492188 1.296875 10.503906 10.261718 18.667969 21.113281 18.667969 2.722656 0 5.324219-.5 7.714844-1.414063 2.503906 16.289063 8.238281 31.527344 16.523437 45.046875-4.882812 4.171875-9.480468 8.570313-13.765625 13.199219zm253.050781 59.308594c-1.46875 2-4.246093 2.503906-6.320312 1.148437l-76.261719-49.808593c3.6875-4.019532 7.625-7.863282 11.804688-11.507813 19.660156 24.691406 48.644531 41.644531 81.578124 45.453125zm56.21875 1.148437c-2.074219 1.355469-4.847656.851563-6.320312-1.148437l-10.808594-14.722656c32.9375-3.808594 61.929687-20.75 81.585937-45.445313 4.179688 3.644531 8.117188 7.488281 11.804688 11.507813zm0 0"/><path d="m123 120h-45c-9.648438 0-17.5 7.851562-17.5 17.5v59c0 9.648438 7.851562 17.5 17.5 17.5h45c9.648438 0 17.5-7.851562 17.5-17.5v-59c0-9.648438-7.851562-17.5-17.5-17.5zm2.5 76.5c0 1.378906-1.121094 2.5-2.5 2.5h-45c-1.378906 0-2.5-1.121094-2.5-2.5v-59c0-1.378906 1.121094-2.5 2.5-2.5h45c1.378906 0 2.5 1.121094 2.5 2.5zm0 0"/><path d="m132.5 229h-65c-4.140625 0-7.5 3.355469-7.5 7.5s3.359375 7.5 7.5 7.5h65c4.140625 0 7.5-3.355469 7.5-7.5s-3.359375-7.5-7.5-7.5zm0 0"/><path d="m132.5 259h-65c-4.140625 0-7.5 3.355469-7.5 7.5s3.359375 7.5 7.5 7.5h65c4.140625 0 7.5-3.355469 7.5-7.5s-3.359375-7.5-7.5-7.5zm0 0"/><path d="m112.5 289h-45c-4.140625 0-7.5 3.355469-7.5 7.5s3.359375 7.5 7.5 7.5h45c4.140625 0 7.5-3.355469 7.5-7.5s-3.359375-7.5-7.5-7.5zm0 0"/><path d="m92.5 319h-25c-4.140625 0-7.5 3.355469-7.5 7.5s3.359375 7.5 7.5 7.5h25c4.140625 0 7.5-3.355469 7.5-7.5s-3.359375-7.5-7.5-7.5zm0 0"/><path d="m279.066406 298.933594c-3.410156 0-6.171875 2.761718-6.171875 6.171875v12.101562c0 3.410157 2.761719 6.171875 6.171875 6.171875 3.40625 0 6.171875-2.761718 6.171875-6.171875v-12.101562c0-3.410157-2.765625-6.171875-6.171875-6.171875zm0 0"/><path d="m368.058594 298.933594c-3.40625 0-6.167969 2.761718-6.167969 6.171875v12.101562c0 3.410157 2.761719 6.171875 6.167969 6.171875 3.410156 0 6.171875-2.761718 6.171875-6.171875v-12.101562c0-3.410157-2.761719-6.171875-6.171875-6.171875zm0 0"/><path d="m355.535156 353.4375c-3.160156-1.273438-6.757812.257812-8.03125 3.417969-3.957031 9.820312-13.355468 16.164062-23.941406 16.164062s-19.984375-6.34375-23.941406-16.164062c-1.273438-3.160157-4.867188-4.6875-8.027344-3.414063-3.164062 1.273438-4.691406 4.867188-3.417969 8.027344 5.847657 14.515625 19.738281 23.894531 35.386719 23.894531 15.652344 0 29.542969-9.378906 35.390625-23.894531 1.273437-3.160156-.257813-6.757812-3.417969-8.03125zm0 0"/></svg>