<?xml version="1.0" encoding="UTF-8"?>
<svg xmlns="http://www.w3.org/2000/svg" viewBox="0 0 64 64" width="512" height="512"><g id="creating-head-gear-thinking-design"><path d="M42,49l5,12H23V50H9V38L6,36l5-7V14C11,7,19.78,3,28,3A22.163,22.163,0,0,1,42,7.86l-2.42,2.42,2.01,2.58a6.022,6.022,0,0,0-.34.83L38,14.1v3.8l3.25.41a6.022,6.022,0,0,0,.34.83l-2.01,2.58,2.7,2.7,2.58-2.01a6.022,6.022,0,0,0,.83.34L46.1,26h1.29C45.86,35.48,42,49,42,49Z" style="fill:#ffdaaa"/><path d="M42,49l5,12H43L38,49s3.86-13.52,5.39-23H42.1l-.25-2.01.43.43,2.58-2.01a6.022,6.022,0,0,0,.83.34L46.1,26h1.29C45.86,35.48,42,49,42,49Z" style="fill:#ffb655"/><path d="M54.75,18.31a6.022,6.022,0,0,1-.34.83l2.01,2.58-2.7,2.7-2.58-2.01a6.022,6.022,0,0,1-.83.34L49.9,26H46.1l-.41-3.25a6.022,6.022,0,0,1-.83-.34l-2.58,2.01-2.7-2.7,2.01-2.58a6.022,6.022,0,0,1-.34-.83L38,17.9V14.1l1.47-.19,1.78-.22a6.022,6.022,0,0,1,.34-.83l-2.01-2.58,2.7-2.7,2.58,2.01a6.022,6.022,0,0,1,.83-.34L46.1,6h3.8l.41,3.25a6.022,6.022,0,0,1,.83.34l2.58-2.01,2.7,2.7-2.01,2.58a6.022,6.022,0,0,1,.34.83L58,14.1v3.8Z" style="fill:#c0ab91"/><path d="M54.75,18.31a6.022,6.022,0,0,1-.34.83l2.01,2.58-2.7,2.7-2.58-2.01a6.022,6.022,0,0,1-.83.34L49.9,26H46.1l-.41-3.25a6.022,6.022,0,0,1-.83-.34l-2.58,2.01-1.46-1.46A24.234,24.234,0,0,0,50,16a24.082,24.082,0,0,0,4.23-7.91l2.19,2.19-2.01,2.58a6.022,6.022,0,0,1,.34.83L58,14.1v3.8Z" style="fill:#a78966"/><circle cx="48" cy="16" r="4" style="fill:#ffde55"/><path d="M52,16a4,4,0,0,1-7.9.9,4.431,4.431,0,0,0,.9.1,4,4,0,0,0,4-4,4.431,4.431,0,0,0-.1-.9A4,4,0,0,1,52,16Z" style="fill:#ebbf00"/><path d="M36.75,36.31a6.022,6.022,0,0,1-.34.83l2.01,2.58-2.7,2.7-2.58-2.01a6.022,6.022,0,0,1-.83.34L31.9,44H28.1l-.41-3.25a6.022,6.022,0,0,1-.83-.34l-2.58,2.01-2.7-2.7,2.01-2.58a6.022,6.022,0,0,1-.34-.83L20,35.9V32.1l1.47-.19,1.78-.22a6.022,6.022,0,0,1,.34-.83l-2.01-2.58,2.7-2.7,2.58,2.01a6.022,6.022,0,0,1,.83-.34L28.1,24h3.8l.41,3.25a6.022,6.022,0,0,1,.83.34l2.58-2.01,2.7,2.7-2.01,2.58a6.022,6.022,0,0,1,.34.83L40,32.1v3.8Z" style="fill:#c0ab91"/><path d="M36.75,36.31a6.022,6.022,0,0,1-.34.83l2.01,2.58-2.7,2.7-2.58-2.01a6.022,6.022,0,0,1-.83.34L31.9,44H28.1l-.41-3.25a6.022,6.022,0,0,1-.83-.34l-2.58,2.01-1.46-1.46A23.964,23.964,0,0,0,36.23,26.09l2.19,2.19-2.01,2.58a6.022,6.022,0,0,1,.34.83L40,32.1v3.8Z" style="fill:#a78966"/><circle cx="30" cy="34" r="4" style="fill:#ffde55"/><path d="M34,34a4,4,0,0,1-7.9.9,4.431,4.431,0,0,0,.9.1,4,4,0,0,0,4-4,4.431,4.431,0,0,0-.1-.9A4,4,0,0,1,34,34Z" style="fill:#ebbf00"/><path d="M58.12,13.1l-2.4-.3,1.49-1.91a1,1,0,0,0-.09-1.32L54.43,6.88a.994.994,0,0,0-1.32-.09L51.2,8.28l-.3-2.4a1.013,1.013,0,0,0-1-.88H46.1a1.013,1.013,0,0,0-1,.88l-.3,2.4L42.89,6.79a1,1,0,0,0-.87-.16A23.351,23.351,0,0,0,28,2C19.15,2,10,6.49,10,14V28.68L5.19,35.42a1,1,0,0,0,.26,1.41L8,38.54V50a1,1,0,0,0,1,1H22V61a1,1,0,0,0,1,1H47a1,1,0,0,0,.83-.45.966.966,0,0,0,.09-.93L43.06,48.94c.58-2.09,3.72-13.42,5.18-21.94H49.9a1.013,1.013,0,0,0,1-.88l.3-2.4,1.91,1.49a.994.994,0,0,0,1.32-.09l2.69-2.69a1,1,0,0,0,.09-1.32L55.72,19.2l2.4-.3a1.013,1.013,0,0,0,.88-1V14.1A1.013,1.013,0,0,0,58.12,13.1ZM41.04,48.73a.969.969,0,0,0,.04.65L45.5,60H24V50a1,1,0,0,0-1-1H10V38a1,1,0,0,0-.45-.83L7.41,35.74l4.4-6.16A.939.939,0,0,0,12,29V14C12,7.74,20.14,4,28,4A21.387,21.387,0,0,1,40.48,7.97l-1.6,1.6a1,1,0,0,0-.09,1.32l1.49,1.91-2.4.3a1.013,1.013,0,0,0-.88,1v3.8a1.013,1.013,0,0,0,.88,1l2.4.3-1.49,1.91a1,1,0,0,0,.09,1.32l2.69,2.69a.994.994,0,0,0,1.32.09l1.91-1.49.3,2.4a1.013,1.013,0,0,0,1,.88h.11C44.59,36.23,41.08,48.6,41.04,48.73ZM57,17.02l-2.37.3a1,1,0,0,0-.82.67c-.09.24-.19.48-.3.71a.979.979,0,0,0,.11,1.05l1.47,1.89-1.45,1.45-1.89-1.47a.979.979,0,0,0-1.05-.11c-.23.11-.47.21-.71.3a1,1,0,0,0-.67.82L49.02,25H46.98l-.3-2.37a1,1,0,0,0-.67-.82c-.24-.09-.48-.19-.71-.3a.979.979,0,0,0-1.05.11l-1.89,1.47-1.45-1.45,1.47-1.89a.979.979,0,0,0,.11-1.05c-.11-.23-.21-.47-.3-.71a1,1,0,0,0-.82-.67L39,17.02V14.98l2.37-.3a1,1,0,0,0,.82-.67c.09-.24.19-.48.3-.71a.979.979,0,0,0-.11-1.05l-1.47-1.89,1.45-1.45,1.89,1.47a.979.979,0,0,0,1.05.11c.23-.11.47-.21.71-.3a1,1,0,0,0,.67-.82L46.98,7h2.04l.3,2.37a1,1,0,0,0,.67.82c.24.09.48.19.71.3a.979.979,0,0,0,1.05-.11l1.89-1.47,1.45,1.45-1.47,1.89a.979.979,0,0,0-.11,1.05c.11.23.21.47.3.71a1,1,0,0,0,.82.67l2.37.3Z"/><path d="M48,11a5,5,0,1,0,5,5A5.006,5.006,0,0,0,48,11Zm0,8a3,3,0,1,1,3-3A3,3,0,0,1,48,19Z"/><path d="M40.124,31.1l-2.4-.3,1.488-1.912a1,1,0,0,0-.083-1.321l-2.694-2.694a1,1,0,0,0-1.321-.083L33.2,26.28l-.3-2.4A1,1,0,0,0,31.905,23H28.1a1,1,0,0,0-.992.876l-.3,2.4L24.89,24.792a1,1,0,0,0-1.321.083l-2.694,2.694a1,1,0,0,0-.083,1.321L22.28,30.8l-2.4.3A1,1,0,0,0,19,32.1v3.81a1,1,0,0,0,.876.992l2.4.3L20.792,39.11a1,1,0,0,0,.083,1.321l2.694,2.694a1,1,0,0,0,1.321.083L26.8,41.72l.3,2.4A1,1,0,0,0,28.1,45h3.81a1,1,0,0,0,.992-.876l.3-2.4,1.912,1.488a1,1,0,0,0,1.321-.083l2.694-2.694a1,1,0,0,0,.083-1.321L37.72,37.2l2.4-.3A1,1,0,0,0,41,35.905V32.1A1,1,0,0,0,40.124,31.1ZM39,35.022l-2.371.3a1,1,0,0,0-.822.669,6.118,6.118,0,0,1-.3.713,1,1,0,0,0,.109,1.054l1.467,1.887-1.445,1.445-1.887-1.467A1,1,0,0,0,32.7,39.51a6.118,6.118,0,0,1-.713.3,1,1,0,0,0-.669.822L31.022,43H28.978l-.3-2.371a1,1,0,0,0-.669-.822,6.118,6.118,0,0,1-.713-.3,1,1,0,0,0-1.054.109l-1.887,1.467-1.445-1.445,1.467-1.887A1,1,0,0,0,24.49,36.7a6.118,6.118,0,0,1-.3-.713,1,1,0,0,0-.822-.669L21,35.022V32.978l2.371-.3a1,1,0,0,0,.822-.669,6.118,6.118,0,0,1,.3-.713,1,1,0,0,0-.109-1.054l-1.467-1.887,1.445-1.445,1.887,1.467a1,1,0,0,0,1.054.109,6.118,6.118,0,0,1,.713-.3,1,1,0,0,0,.669-.822l.3-2.371h2.044l.3,2.371a1,1,0,0,0,.669.822,6.118,6.118,0,0,1,.713.3,1,1,0,0,0,1.054-.109l1.887-1.467,1.445,1.445-1.467,1.887A1,1,0,0,0,35.51,31.3a6.118,6.118,0,0,1,.3.713,1,1,0,0,0,.822.669l2.371.3Z"/><path d="M30,29a5,5,0,1,0,5,5A5.006,5.006,0,0,0,30,29Zm0,8a3,3,0,1,1,3-3A3,3,0,0,1,30,37Z"/><path d="M31,18a1,1,0,0,1,1-1h3V15H32a3,3,0,0,0-3,3v3h2Z"/></g></svg>
