<svg height="512" viewBox="0 0 256 256" width="512" xmlns="http://www.w3.org/2000/svg"><rect fill="#cecece" height="151.106" rx="13.665" width="219.26" x="18.37" y="34.615"/><path d="m28.37 172.057v-123.777a13.681 13.681 0 0 1 13.665-13.665h-10a13.681 13.681 0 0 0 -13.665 13.665v123.777a13.681 13.681 0 0 0 13.665 13.665h10a13.681 13.681 0 0 1 -13.665-13.665z" fill="#afafaf"/><path d="m227.63 172.057v-123.777a13.681 13.681 0 0 0 -13.665-13.665h10a13.681 13.681 0 0 1 13.665 13.665v123.777a13.681 13.681 0 0 1 -13.665 13.665h-10a13.681 13.681 0 0 0 13.665-13.665z" fill="#e2e2e2"/><rect fill="#63bce7" height="122.288" rx="5.256" width="202.442" x="26.779" y="43.024"/><path d="m36.779 160.057v-111.777a5.271 5.271 0 0 1 5.256-5.256h-10a5.271 5.271 0 0 0 -5.256 5.256v111.777a5.271 5.271 0 0 0 5.256 5.256h10a5.271 5.271 0 0 1 -5.256-5.256z" fill="#6377e7"/><path d="m219.221 160.057v-111.777a5.271 5.271 0 0 0 -5.256-5.256h10a5.271 5.271 0 0 1 5.256 5.256v111.777a5.271 5.271 0 0 1 -5.256 5.256h-10a5.271 5.271 0 0 0 5.256-5.256z" fill="#63e2e7"/><rect fill="#f8af23" height="121.288" rx="10" width="155" x="50.5" y="34.616"/><path d="m60.5 145.9v-101.284a10 10 0 0 1 10-10h-10a10 10 0 0 0 -10 10v101.284a10 10 0 0 0 10 10h10a10 10 0 0 1 -10-10z" fill="#f87023"/><path d="m195.5 145.9v-101.284a10 10 0 0 0 -10-10h10a10 10 0 0 1 10 10v101.284a10 10 0 0 1 -10 10h-10a10 10 0 0 0 10-10z" fill="#f8d323"/><path d="m136.681 64.465a5.171 5.171 0 0 0 -6.659 3.02l-13.722 36.49a5.17 5.17 0 1 0 9.679 3.639l13.721-36.49a5.17 5.17 0 0 0 -3.019-6.659z" fill="#63bce7"/><path d="m109.639 73.58a5.171 5.171 0 0 0 -7.312 0l-10.313 10.313a5.17 5.17 0 0 0 0 7.312l10.313 10.313a5.17 5.17 0 1 0 7.312-7.312l-6.657-6.657 6.657-6.657a5.17 5.17 0 0 0 0-7.312z" fill="#63bce7"/><path d="m163.986 83.893-10.313-10.313a5.17 5.17 0 0 0 -7.312 7.312l6.657 6.657-6.657 6.657a5.17 5.17 0 0 0 7.312 7.312l10.313-10.318a5.17 5.17 0 0 0 0-7.307z" fill="#63bce7"/><path d="m168.124 53.7c.307.857.655 1.682 1.035 2.5l-7.683 7.683 15.106 15.106 7.683-7.683c.817.38 1.65.728 2.5 1.035v10.868h21.357v-10.869c.849-.307 1.682-.655 2.5-1.035l7.683 7.683 15.106-15.106-7.685-7.682c.38-.817.728-1.642 1.035-2.5h10.869v-21.357h-10.869c-.307-.849-.655-1.682-1.035-2.5l7.683-7.683-15.109-15.105-7.683 7.691c-.817-.38-1.65-.736-2.5-1.043v-10.861h-21.353v10.858c-.849.307-1.682.663-2.5 1.043l-7.683-7.691-15.105 15.11 7.683 7.683c-.38.817-.728 1.65-1.035 2.5h-10.861v21.355z" fill="#f46275"/><path d="m216.761 53.7c-.307.857-.655 1.682-1.035 2.5l7.682 7.683-10.108 10.105 5 5 15.106-15.106-7.68-7.682c.38-.817.728-1.642 1.035-2.5z" fill="#f48875"/><path d="m215.726 29.844c.38.817.728 1.65 1.035 2.5h10c-.307-.849-.655-1.682-1.035-2.5l7.682-7.683-15.108-15.106-5 5 10.1 10.1z" fill="#f48875"/><path d="m198.121 72.34v10.869h10v-4.4l-7.5-7.5c-.821.376-1.651.724-2.5 1.031z" fill="#f48875"/><path d="m200.62 14.746 7.5-7.509v-4.395h-10v10.858c.85.31 1.68.666 2.5 1.046z" fill="#f48875"/><path d="m227.63 32.343h10v21.357h-10z" fill="#f48875"/><circle cx="197.447" cy="43.023" fill="#9e9e9e" r="13.6"/><circle cx="128" cy="157.56" fill="#9e9e9e" r="39.978"/><path d="m98.022 157.56a39.976 39.976 0 0 1 34.978-39.66 39.978 39.978 0 1 0 0 79.311 39.976 39.976 0 0 1 -34.978-39.651z" fill="#707070"/><path d="m109.249 197.538h37.5a44.65 44.65 0 0 1 44.65 44.65 0 0 0 0 1 0 0h-126.799a0 0 0 0 1 0 0 44.65 44.65 0 0 1 44.649-44.65z" fill="#f8af23"/><path d="m119.249 197.538h-10a44.649 44.649 0 0 0 -44.649 44.65h10a44.649 44.649 0 0 1 44.649-44.65z" fill="#f87023"/><g fill="#3f3679"><path d="m27.323 251.661h-18a1.5 1.5 0 1 0 0 3h18a1.5 1.5 0 0 0 0-3z"/><path d="m246.68 251.661h-18a1.5 1.5 0 0 0 0 3h18a1.5 1.5 0 0 0 0-3z"/><path d="m218.479 251.661h-180.958a1.5 1.5 0 0 0 0 3h180.958a1.5 1.5 0 0 0 0-3z"/><path d="m9.32 243.688h237.36a1.5 1.5 0 0 0 0-3h-53.818a46.2 46.2 0 0 0 -46.111-44.65h-3.292a41.591 41.591 0 0 0 13.494-8.817h67.013a15.182 15.182 0 0 0 15.164-15.165v-118.356-21.357a1.5 1.5 0 0 0 -1.5-1.5h-9.83q-.135-.33-.279-.667l6.955-6.955a1.5 1.5 0 0 0 0-2.121l-15.107-15.1a1.544 1.544 0 0 0 -2.121 0l-6.954 6.955c-.225-.1-.446-.19-.667-.279v-9.837a1.5 1.5 0 0 0 -1.5-1.5h-21.36a1.5 1.5 0 0 0 -1.5 1.5v9.832c-.221.089-.442.182-.667.279l-6.955-6.95a1.5 1.5 0 0 0 -2.121 0l-15.1 15.1a1.5 1.5 0 0 0 0 2.121l6.954 6.954c-.1.224-.189.446-.278.667h-9.833a1.5 1.5 0 0 0 -1.5 1.5v.772h-123.732a15.182 15.182 0 0 0 -15.165 15.166v123.777a15.182 15.182 0 0 0 15.165 15.165h67.012a41.592 41.592 0 0 0 13.494 8.817h-3.291a46.2 46.2 0 0 0 -46.111 44.65h-53.819a1.5 1.5 0 1 0 0 3zm214.646-59.467h-64.225a41.366 41.366 0 0 0 8.683-17.409h55.541a6.763 6.763 0 0 0 6.755-6.755v-91.357l3.753-3.753a1.5 1.5 0 0 0 0-2.121l-3.753-3.753v-3.873h5.409v116.857a12.178 12.178 0 0 1 -12.163 12.164zm-163.466-26.821h26.026v.157a41.628 41.628 0 0 0 .472 6.251h-54.963a3.76 3.76 0 0 1 -3.756-3.755v-111.773a3.76 3.76 0 0 1 3.756-3.755h16.965v.091 101.284a11.513 11.513 0 0 0 11.5 11.5zm26.154-3h-26.154a8.51 8.51 0 0 1 -8.5-8.5v-101.284a8.51 8.51 0 0 1 8.5-8.5h95.263v17.584a1.5 1.5 0 0 0 1.5 1.5h9.837q.135.332.279.667l-6.955 6.955a1.5 1.5 0 0 0 0 2.121l15.1 15.1a1.5 1.5 0 0 0 2.121 0l6.955-6.943c.225.1.446.189.667.279v9.833a1.5 1.5 0 0 0 1.5 1.5h17.233v61.2a8.51 8.51 0 0 1 -8.5 8.5h-26.155a41.465 41.465 0 0 0 -82.691 0zm82.819 3h26.027a11.513 11.513 0 0 0 11.5-11.5v-61.2h1.127a1.5 1.5 0 0 0 1.5-1.5v-9.826c.221-.089.442-.182.667-.279l6.954 6.954a1.5 1.5 0 0 0 2.121 0l8.352-8.351v88.358a3.759 3.759 0 0 1 -3.755 3.755h-54.96a41.628 41.628 0 0 0 .472-6.251c0-.052-.004-.104-.004-.16zm58.248-101.328-.2-.2c.07-.163.136-.323.2-.483zm-68.958-22.229h9.362a1.5 1.5 0 0 0 1.409-.986c.284-.779.608-1.556.991-2.375a1.5 1.5 0 0 0 -.3-1.7l-6.625-6.621 12.984-12.983 6.626 6.622a1.5 1.5 0 0 0 1.694.3c.831-.387 1.607-.711 2.375-.991a1.5 1.5 0 0 0 .987-1.41v-9.36h18.36v9.361a1.5 1.5 0 0 0 .987 1.41c.768.279 1.544.6 2.375.991a1.5 1.5 0 0 0 1.694-.3l6.625-6.625 12.983 12.982-6.626 6.625a1.5 1.5 0 0 0 -.3 1.695c.388.832.712 1.608.991 2.375a1.5 1.5 0 0 0 1.409.987h9.362v18.36h-9.362a1.5 1.5 0 0 0 -1.409.987c-.279.768-.6 1.544-.991 2.375a1.5 1.5 0 0 0 .3 1.695l6.626 6.625-12.981 12.986-6.625-6.625a1.5 1.5 0 0 0 -1.694-.3c-.826.385-1.6.709-2.376.991a1.5 1.5 0 0 0 -.986 1.409v9.362h-18.36v-9.361a1.5 1.5 0 0 0 -.986-1.409c-.772-.282-1.55-.606-2.376-.991a1.5 1.5 0 0 0 -1.694.3l-6.626 6.625-12.986-12.984 6.626-6.625a1.5 1.5 0 0 0 .3-1.7c-.377-.807-.711-1.606-.991-2.375a1.5 1.5 0 0 0 -1.409-.986h-9.362zm-138.893 138.214v-123.777a12.179 12.179 0 0 1 12.165-12.165h20.747a11.5 11.5 0 0 0 -3.348 5.409h-17.4a6.763 6.763 0 0 0 -6.756 6.755v111.778a6.763 6.763 0 0 0 6.756 6.755h55.54a41.366 41.366 0 0 0 8.684 17.409h-64.223a12.178 12.178 0 0 1 -12.165-12.164zm69.652-14.5a38.478 38.478 0 1 1 38.478 38.481 38.522 38.522 0 0 1 -38.478-38.477zm-23.4 83.127a43.2 43.2 0 0 1 43.124-41.649h37.5a43.2 43.2 0 0 1 43.124 41.65z"/><path d="m118.792 112.038a6.666 6.666 0 0 0 8.59-3.9l13.724-36.491a6.68 6.68 0 0 0 -3.9-8.59 6.681 6.681 0 0 0 -8.589 3.9l-13.717 36.49a6.678 6.678 0 0 0 3.892 8.591zm-1.092-7.538 13.724-36.49a3.67 3.67 0 1 1 6.876 2.59l-13.723 36.49a3.67 3.67 0 1 1 -6.877-2.59z"/><path d="m105.983 104.532a6.67 6.67 0 0 0 4.717-11.386l-5.6-5.6 5.6-5.6a6.677 6.677 0 0 0 0-9.433 6.68 6.68 0 0 0 -9.433 0l-10.313 10.32a6.677 6.677 0 0 0 0 9.433l10.313 10.313a6.629 6.629 0 0 0 4.716 1.953zm-12.908-19.578 10.313-10.312a3.67 3.67 0 0 1 5.191 5.19l-6.657 6.657a1.5 1.5 0 0 0 0 2.121l6.657 6.657a3.675 3.675 0 0 1 0 5.19 3.759 3.759 0 0 1 -5.191 0l-10.313-10.312a3.675 3.675 0 0 1 0-5.191z"/><path d="m143.347 97.862a6.67 6.67 0 0 0 11.387 4.717l10.313-10.313a6.67 6.67 0 0 0 0-9.434l-10.314-10.313a6.67 6.67 0 1 0 -9.433 9.434l5.6 5.6-5.6 5.6a6.626 6.626 0 0 0 -1.953 4.709zm4.075-2.6 6.656-6.657a1.5 1.5 0 0 0 0-2.121l-6.656-6.657a3.67 3.67 0 0 1 5.19-5.191l10.313 10.313a3.67 3.67 0 0 1 0 5.191l-10.312 10.312a3.759 3.759 0 0 1 -5.19 0 3.67 3.67 0 0 1 0-5.191z"/><path d="m197.446 58.124a15.1 15.1 0 1 0 -15.1-15.1 15.118 15.118 0 0 0 15.1 15.1zm0-27.2a12.1 12.1 0 1 1 -12.1 12.1 12.115 12.115 0 0 1 12.1-12.102z"/></g></svg>