<svg xmlns="http://www.w3.org/2000/svg" viewBox="0 0 500 500"><g id="freepik--background-complete--inject-99"><path d="M265.31,154.29s-11.3,8-13.94,18c-1.69,6.39,2,13.83,7,20.26,8.21,10.45,28.3,18,61.5,2.19,35.57-17,40.05-36.45,41.28-43.48,1.07-6.14-.41-18.56-12.3-28.78-2-1.74-5,1.88-8.41,1.16C322,119.7,283.54,132,265.31,154.29Z" style="fill:#e0e0e0"></path><path d="M261.67,147.64s-17.76,22.56-6.75,37.8c7.79,10.76,28.11,18.51,61.31,2.67,35.57-17,40.2-41.69,40.51-45.55s.46-21.18-19.95-25.55C318.31,113.05,279.9,125.38,261.67,147.64Z" style="fill:#ebebeb"></path><path d="M331.73,124.5c-4-.19-10.8,11.05-14.73,14-.94.71-2.66.17-2.5-1,1.3-9.36-2.71-13.83-7.61-12.84-5.32,1.06-12.8,3.65-17.61,7.58-2.8,2.28-6.91,5.81-7,9.42-.08,2.41,5.35,7.66,7.33,9.18-2-1-8.27-4.31-10.47-4.74-3.73-.74-7.88-.25-10.83,2.15-3.1,2.52-4.38,6.64-5,10.59A47.55,47.55,0,0,0,264.51,179a13.21,13.21,0,0,0,2.73,5.15c5.15,5.78,12.08,2.41,15.94-2.23,3-3.57,5.95-11.85,9.16-15.2a1.92,1.92,0,0,1,.93-.62,1.33,1.33,0,0,1,1.4,1.19,34.15,34.15,0,0,1-1.43,5.89c-1,2.68-2.07,5.47-1.56,8.4a6.32,6.32,0,0,0,1.91,3.62c2.73,2.46,6.49,1.2,9.61-.1q7.6-3.16,15.13-6.45c6-2.62,12.11-5.39,16.78-10,1.64-1.61,3.2-3.73,2-6.24a4.68,4.68,0,0,0-1.26-1.57c-1.81-1.47-4.12-1.68-6.35-1.66a12.35,12.35,0,0,1-4.6-.93c-1.31-.57-4.34-3.19-3.85-4.54s2.15-2.61,4.9-2.35c3.11.3,6.82,1.19,9.9,1.72,1.73.3,3.5.79,5.21.37,3-.75,4.65-4,5.27-7A20,20,0,0,0,344,132,15.74,15.74,0,0,0,331.73,124.5Z" style="fill:#f5f5f5"></path><path d="M300.23,175.86a3,3,0,0,0-1.18,1.25,1.84,1.84,0,0,0,0,1.68,1.36,1.36,0,0,0,1.48.65,2.09,2.09,0,0,0,1.14-1.21,10.58,10.58,0,0,0,.64-1.7,2.77,2.77,0,0,0,.16-.8c0-.43-.25-.72-.67-.59A8.34,8.34,0,0,0,300.23,175.86Z" style="fill:#fff"></path><path d="M336.94,147.65A3.09,3.09,0,0,0,338,149a1.85,1.85,0,0,0,1.66.21,1.34,1.34,0,0,0,.84-1.38,2.08,2.08,0,0,0-1-1.29,10.6,10.6,0,0,0-1.59-.86,3.24,3.24,0,0,0-.78-.27c-.42-.06-.75.16-.67.59A8.84,8.84,0,0,0,336.94,147.65Z" style="fill:#fff"></path><path d="M307.24,177.58a3,3,0,0,0,.43,1.57A1.72,1.72,0,0,0,309,180a1.17,1.17,0,0,0,1.18-.86,2.08,2.08,0,0,0-.41-1.52,10.76,10.76,0,0,0-1-1.38,2.33,2.33,0,0,0-.55-.53c-.33-.23-.68-.17-.77.23A10,10,0,0,0,307.24,177.58Z" style="fill:#fff"></path><path d="M322.45,169.84a3.17,3.17,0,0,0,1.47.72,1.73,1.73,0,0,0,1.49-.44,1.15,1.15,0,0,0,.14-1.45,2.1,2.1,0,0,0-1.42-.69,9.89,9.89,0,0,0-1.72-.13,3,3,0,0,0-.76.06c-.38.1-.57.41-.33.73A9.17,9.17,0,0,0,322.45,169.84Z" style="fill:#fff"></path><path d="M324.76,164.18a3,3,0,0,0,1.52-.6,1.72,1.72,0,0,0,.7-1.39,1.18,1.18,0,0,0-1-1.09,2.11,2.11,0,0,0-1.47.58,11.64,11.64,0,0,0-1.26,1.17,2.66,2.66,0,0,0-.47.6c-.19.35-.09.69.32.74A9,9,0,0,0,324.76,164.18Z" style="fill:#fff"></path><path d="M338.81,141.22a3,3,0,0,0,1.47.72,1.73,1.73,0,0,0,1.49-.44,1.15,1.15,0,0,0,.14-1.45,2.1,2.1,0,0,0-1.42-.69,9.89,9.89,0,0,0-1.72-.13,3,3,0,0,0-.76.06c-.38.1-.57.41-.33.73A8.58,8.58,0,0,0,338.81,141.22Z" style="fill:#fff"></path><path d="M338.11,135.49a3.09,3.09,0,0,0,1.53-.59,1.74,1.74,0,0,0,.69-1.4,1.16,1.16,0,0,0-1-1.08,2.05,2.05,0,0,0-1.47.58,10,10,0,0,0-1.27,1.16,2.8,2.8,0,0,0-.47.61c-.18.35-.08.69.32.73A9,9,0,0,0,338.11,135.49Z" style="fill:#fff"></path><path d="M335,130.25a2.81,2.81,0,0,0,1.05-1.06,1.59,1.59,0,0,0,.06-1.42,1.06,1.06,0,0,0-1.22-.54,2,2,0,0,0-1,1,9.15,9.15,0,0,0-.61,1.44,2.52,2.52,0,0,0-.17.67c0,.37.19.61.54.5A8.75,8.75,0,0,0,335,130.25Z" style="fill:#fff"></path><path d="M309.69,129.64a2.64,2.64,0,0,0,.34-1.31,1.48,1.48,0,0,0-.6-1.15,1,1,0,0,0-1.21.13,1.7,1.7,0,0,0-.33,1.27,9.66,9.66,0,0,0,.17,1.42,2.6,2.6,0,0,0,.18.61c.15.3.43.4.65.15A7.36,7.36,0,0,0,309.69,129.64Z" style="fill:#fff"></path><path d="M272.16,151.67A2.56,2.56,0,0,0,271,151a1.42,1.42,0,0,0-1.27.23,1,1,0,0,0-.24,1.19,1.67,1.67,0,0,0,1.11.69,8.76,8.76,0,0,0,1.41.27,2.25,2.25,0,0,0,.64,0c.32-.05.5-.28.33-.58A7.23,7.23,0,0,0,272.16,151.67Z" style="fill:#fff"></path><path d="M266.79,168.63a2.51,2.51,0,0,0-1.36,0,1.42,1.42,0,0,0-1,.86,1,1,0,0,0,.41,1.14,1.72,1.72,0,0,0,1.32,0,9,9,0,0,0,1.34-.5,2.44,2.44,0,0,0,.55-.32c.25-.21.28-.5,0-.67A7.8,7.8,0,0,0,266.79,168.63Z" style="fill:#fff"></path><path d="M267.82,159a3,3,0,0,0-1.51-.3,1.65,1.65,0,0,0-1.26.76,1.1,1.1,0,0,0,.23,1.36,2,2,0,0,0,1.46.28,9.47,9.47,0,0,0,1.59-.29,2.41,2.41,0,0,0,.68-.24c.33-.19.42-.51.12-.75A8.46,8.46,0,0,0,267.82,159Z" style="fill:#fff"></path><path d="M269.15,178.85a2.89,2.89,0,0,0-1.06,1.11,1.66,1.66,0,0,0,0,1.47,1.12,1.12,0,0,0,1.27.54,2,2,0,0,0,1-1.09,8.9,8.9,0,0,0,.61-1.5,2.4,2.4,0,0,0,.16-.7c0-.37-.2-.62-.56-.5A8.17,8.17,0,0,0,269.15,178.85Z" style="fill:#fff"></path><path d="M277.16,180.23a2.85,2.85,0,0,0-.42,1.49,1.62,1.62,0,0,0,.65,1.31,1.1,1.1,0,0,0,1.37-.11,2,2,0,0,0,.4-1.44,9.65,9.65,0,0,0-.16-1.61,2.71,2.71,0,0,0-.18-.69c-.16-.34-.47-.46-.74-.19A8.47,8.47,0,0,0,277.16,180.23Z" style="fill:#fff"></path><path d="M303.65,130.32a2.89,2.89,0,0,0-.15-1.57,1.63,1.63,0,0,0-1.1-1,1.12,1.12,0,0,0-1.26.61,2,2,0,0,0,.14,1.51,10.76,10.76,0,0,0,.74,1.48,2.75,2.75,0,0,0,.43.59c.28.27.62.27.77-.09A9.05,9.05,0,0,0,303.65,130.32Z" style="fill:#fff"></path><path d="M290.53,137.19a3,3,0,0,0-1-1.17,1.69,1.69,0,0,0-1.49-.16,1.14,1.14,0,0,0-.65,1.25,2,2,0,0,0,1,1.13,9.2,9.2,0,0,0,1.47.74,2.4,2.4,0,0,0,.7.22c.38.05.66-.15.56-.53A9.79,9.79,0,0,0,290.53,137.19Z" style="fill:#fff"></path><path d="M297.42,132.45a3,3,0,0,0-.76-1.38,1.63,1.63,0,0,0-1.41-.49,1.12,1.12,0,0,0-.92,1.06,2,2,0,0,0,.74,1.33,9.07,9.07,0,0,0,1.26,1.06,2.64,2.64,0,0,0,.64.38c.36.13.67,0,.66-.4A9.14,9.14,0,0,0,297.42,132.45Z" style="fill:#fff"></path><path d="M314.43,173.41a3,3,0,0,0,.43,1.58,1.71,1.71,0,0,0,1.31.84,1.17,1.17,0,0,0,1.19-.85,2.16,2.16,0,0,0-.42-1.53,11.51,11.51,0,0,0-1-1.38,2.8,2.8,0,0,0-.55-.53c-.33-.22-.68-.16-.76.24A8.93,8.93,0,0,0,314.43,173.41Z" style="fill:#fff"></path><path d="M331.83,132.46a4.69,4.69,0,0,0-2,.47c-5.43,2.23-9.7,6.56-14.8,9.46a2,2,0,0,1-1.1.35c-.74-.07-1.14-.89-1.4-1.6q-1.08-2.94-2.17-5.9a4.82,4.82,0,0,0-1.54-2.48,4.48,4.48,0,0,0-3.44-.29,26.48,26.48,0,0,0-13.26,7.2c-1.41,1.41-2.72,3.17-2.67,5.17a6.36,6.36,0,0,0,3,4.79c1.44,1,3.3,2,3.4,3.73.08,1.49-1.14,3.52-3.19,2A46.07,46.07,0,0,0,281,151.85a9.6,9.6,0,0,0-4.46.06,8.43,8.43,0,0,0-4.09,3.5,19.9,19.9,0,0,0,.49,22.43,3.29,3.29,0,0,0,1.42,1.25,3.08,3.08,0,0,0,2.34-.34c2.72-1.3,4.72-3.73,6.39-6.24a56.93,56.93,0,0,1,5.18-7.39c2.06-2.2,4.88-3.92,7.89-3.81a2.36,2.36,0,0,1,1.05.22c1.35.7.87,2.69.43,4.14a14.22,14.22,0,0,0-.6,3.89,2.86,2.86,0,0,0,.77,2.33,2.55,2.55,0,0,0,1.5.45c2.22.11,5.21.21,7.31-.54,4.79-1.7,7.34-4,11.59-7.76a18.83,18.83,0,0,0,2.53-2.76c.71-1.3-1.27-3.23-2.09-4.47s-1.81-2.52-1.79-4c0-1.81,1.66-3.26,3.4-3.75a15.23,15.23,0,0,1,5.39-.1,9.76,9.76,0,0,0,5.31-.64c2.5-1.31,3.54-4.31,4.14-7.07.52-2.45.81-5.23-.67-7.25A3.52,3.52,0,0,0,331.83,132.46Z" style="fill:#fafafa"></path><path d="M271.79,193.42a3.38,3.38,0,0,1-1,0,7.75,7.75,0,0,1-1.18-.18,12.65,12.65,0,0,1-1.54-.35,21.28,21.28,0,0,1-3.84-1.48,23.85,23.85,0,0,1-4.23-2.74,24.83,24.83,0,0,1-3.52-3.62,21.39,21.39,0,0,1-2.19-3.48c-.28-.52-.46-1-.65-1.44a9.89,9.89,0,0,1-.4-1.13,3.35,3.35,0,0,1-.24-1c.1,0,.51,1.35,1.62,3.38a23.22,23.22,0,0,0,2.24,3.35,26.06,26.06,0,0,0,3.47,3.52,26.57,26.57,0,0,0,4.12,2.72,23.79,23.79,0,0,0,3.72,1.55C270.36,193.18,271.8,193.32,271.79,193.42Z" style="fill:#fff"></path><path d="M253.31,171a10.06,10.06,0,0,1,0,2.06c0,1.12.16,2,0,2.06s-.54-.85-.53-2.06S253.18,170.91,253.31,171Z" style="fill:#fff"></path><path d="M106.41,370.8c-7.75,0-29.67,2.57-31,13.91-.66,5.42-.89,10.37,5.92,14,8.89,4.69,27.21,6.4,32.54,6.71,6.21.35,18.87.47,25-4.24,3.54-2.71,4.65-8.55,3.5-12.53C139.47,378.77,123.34,370.8,106.41,370.8Z" style="fill:#e0e0e0"></path><path d="M106.63,371.4c-3.64,0-30.54.88-30.34,14.52.18,12,27.37,13.23,37.15,13.79s28.68-.37,28.15-10.16C141,378.87,121.12,371.46,106.63,371.4Z" style="fill:#ebebeb"></path><path d="M105.38,387.37a5.06,5.06,0,0,0-3.7-.33,14.92,14.92,0,0,0-3.5,1.41c-.29.14-.62.37-.59.69s.36.45.65.53a8.9,8.9,0,0,0,6.22-.45,2.26,2.26,0,0,0,.94-.69A1,1,0,0,0,105.38,387.37Z" style="fill:#f5f5f5"></path><path d="M110.1,388.22a2,2,0,0,0-1.51.19,6,6,0,0,0-1.24.94,2.92,2.92,0,0,0-1.09,1.54,1.76,1.76,0,0,0,.53,1.53,2.61,2.61,0,0,0,1.51.67,2.36,2.36,0,0,0,1.72-.38,2.39,2.39,0,0,0,.82-1.77,7.09,7.09,0,0,0-.28-2,1.33,1.33,0,0,0-.26-.61.49.49,0,0,0-.6-.15" style="fill:#f5f5f5"></path><path d="M118.89,389.61a3,3,0,0,0-1.2-.86,7.32,7.32,0,0,0-3.12-.66,1.5,1.5,0,0,0-1.35.54,1.26,1.26,0,0,0,.09,1.24,3.28,3.28,0,0,0,1.59,1.35,9.75,9.75,0,0,0,2,.57,4.68,4.68,0,0,0,1.71,0C119.44,391.64,119.54,390.32,118.89,389.61Z" style="fill:#f5f5f5"></path><path d="M101.68,384.91a9.1,9.1,0,0,0-6.62-1c-.42.09-.92.28-1,.71s.35.74.73.92a11.47,11.47,0,0,0,5.21.8,3,3,0,0,0,1.46-.28C101.91,385.77,102.17,385.35,101.68,384.91Z" style="fill:#f5f5f5"></path><path d="M105,382.42a2.36,2.36,0,0,0-.83-.83,11.73,11.73,0,0,0-3.06-1.25,2.84,2.84,0,0,0-2.14-.07,1.1,1.1,0,0,0-.61,1l.06.17a4.23,4.23,0,0,0,2.13,1.8,11.74,11.74,0,0,0,2.75.66,3.48,3.48,0,0,0,.91,0,1.13,1.13,0,0,0,.77-.42A1.1,1.1,0,0,0,105,382.42Z" style="fill:#f5f5f5"></path><path d="M112.46,380.24a2.8,2.8,0,0,0-1.5-1.1,3.08,3.08,0,0,0-2.66.27,2.56,2.56,0,0,0-1.17,2.35,2.18,2.18,0,0,0,1.73,1.9,4,4,0,0,0,2-.35A3,3,0,0,0,112.7,382,1.79,1.79,0,0,0,112.46,380.24Z" style="fill:#f5f5f5"></path><path d="M120.61,383.53a1.07,1.07,0,0,0-.39-.76,1.72,1.72,0,0,0-.35-.25h0A4.32,4.32,0,0,0,117,382a5.5,5.5,0,0,0-2.78.91,1.35,1.35,0,0,0-.69.95,1,1,0,0,0,.44.83,2.66,2.66,0,0,0,1.7.29l2.94-.16a3.44,3.44,0,0,0,1.32-.25A1.17,1.17,0,0,0,120.61,383.53Z" style="fill:#f5f5f5"></path><path d="M122.52,386.55c-2-1.09-3.8-.9-6.1-.64-.46,0-1,.22-1.09.68a.78.78,0,0,0,.32.69,2.27,2.27,0,0,0,.73.31,20,20,0,0,0,6,.69c.46,0,1-.12,1.19-.54S122.88,386.9,122.52,386.55Z" style="fill:#f5f5f5"></path><path d="M84.89,377.69c0,.14-.87.44-1.81,1.07s-1.59,1.31-1.72,1.22.38-1,1.43-1.66S84.87,377.55,84.89,377.69Z" style="fill:#fff"></path><path d="M83.55,391a2.66,2.66,0,0,1-1.48-.48A6.41,6.41,0,0,1,79,384a2.7,2.7,0,0,1,.56-1.45c.08,0-.13.58-.2,1.5a7,7,0,0,0,2.92,6.13C83,390.69,83.57,390.87,83.55,391Z" style="fill:#fff"></path><path d="M401.28,235.25c-6.51.63-24.73,4.56-25,14.21-.11,4.61.1,8.79,6.11,11.26,7.85,3.23,23.4,3.18,27.9,3,5.25-.21,15.9-1.13,20.69-5.59,2.75-2.57,3.22-7.57,1.92-10.82C429.73,239.27,415.52,233.88,401.28,235.25Z" style="fill:#e0e0e0"></path><path d="M401.52,235.73c-3.07.29-25.61,3.22-24.33,14.67,1.12,10.06,24.08,8.91,32.35,8.58s24.07-2.63,22.84-10.82C431,239.23,413.7,234.61,401.52,235.73Z" style="fill:#ebebeb"></path><path d="M401.76,249.27a4.26,4.26,0,0,0-3.14,0,12.65,12.65,0,0,0-2.83,1.46c-.23.15-.49.36-.44.63s.34.35.59.4a7.56,7.56,0,0,0,5.2-.89,1.81,1.81,0,0,0,.72-.65A.84.84,0,0,0,401.76,249.27Z" style="fill:#f5f5f5"></path><path d="M405.8,249.6a1.67,1.67,0,0,0-1.26.28,4.8,4.8,0,0,0-1,.89,2.55,2.55,0,0,0-.79,1.38,1.46,1.46,0,0,0,.57,1.24,2.17,2.17,0,0,0,1.32.45,1.79,1.79,0,0,0,2-2,6.31,6.31,0,0,0-.4-1.65,1.13,1.13,0,0,0-.27-.49.4.4,0,0,0-.51-.08" style="fill:#f5f5f5"></path><path d="M413.3,250.05a2.68,2.68,0,0,0-1.08-.63,6.42,6.42,0,0,0-2.68-.3,1.3,1.3,0,0,0-1.09.57,1.08,1.08,0,0,0,.18,1,2.81,2.81,0,0,0,1.45,1,8.12,8.12,0,0,0,1.76.31,3.69,3.69,0,0,0,1.44-.14C413.92,251.71,413.9,250.59,413.3,250.05Z" style="fill:#f5f5f5"></path><path d="M398.44,247.5a7.59,7.59,0,0,0-5.64-.33c-.35.1-.76.31-.77.67s.36.59.69.72a9.67,9.67,0,0,0,4.45.24,2.37,2.37,0,0,0,1.2-.35C398.71,248.2,398.89,247.82,398.44,247.5Z" style="fill:#f5f5f5"></path><path d="M401,245.13a2,2,0,0,0-.76-.62,9.56,9.56,0,0,0-2.68-.81,2.37,2.37,0,0,0-1.8.12.92.92,0,0,0-.44.9l.07.14a3.6,3.6,0,0,0,1.94,1.34,9.41,9.41,0,0,0,2.37.33,2.77,2.77,0,0,0,.76,0,.88.88,0,0,0,.61-.41A.93.93,0,0,0,401,245.13Z" style="fill:#f5f5f5"></path><path d="M407.13,242.7a2.32,2.32,0,0,0-1.35-.81,2.59,2.59,0,0,0-2.21.44,2.18,2.18,0,0,0-.8,2.07,1.85,1.85,0,0,0,1.61,1.46,3.35,3.35,0,0,0,1.65-.45,2.58,2.58,0,0,0,1.45-1.23A1.5,1.5,0,0,0,407.13,242.7Z" style="fill:#f5f5f5"></path><path d="M414.25,244.8a.92.92,0,0,0-.39-.61,1.92,1.92,0,0,0-.31-.18h0a3.68,3.68,0,0,0-2.48-.19,4.65,4.65,0,0,0-2.27,1,1.12,1.12,0,0,0-.49.85.84.84,0,0,0,.43.67,2.17,2.17,0,0,0,1.45.1l2.47-.37a3.06,3.06,0,0,0,1.08-.31A1,1,0,0,0,414.25,244.8Z" style="fill:#f5f5f5"></path><path d="M416.1,247.18c-1.8-.74-3.27-.44-5.18,0-.38.08-.84.27-.86.66a.63.63,0,0,0,.32.55,1.77,1.77,0,0,0,.64.2,16.53,16.53,0,0,0,5.11.1c.39-.06.84-.18,1-.55S416.43,247.45,416.1,247.18Z" style="fill:#f5f5f5"></path><path d="M383.74,242.78c.05.15-.67.48-1.41,1.08S381.1,245.07,381,245s.2-.89,1-1.55S383.71,242.65,383.74,242.78Z" style="fill:#fff"></path><path d="M383.69,254.05c0,.06-.53.07-1.3-.25a5.47,5.47,0,0,1-3.14-5.24c.08-.83.34-1.28.39-1.26a9,9,0,0,1,0,1.27,6,6,0,0,0,2.94,4.9C383.23,253.85,383.71,254,383.69,254.05Z" style="fill:#fff"></path><path d="M109.36,76.38c21.09,5.33,37.64,14,40.59,20.8a4.6,4.6,0,0,0,1.59-2.36c1.77-7-16.57-17.65-40.95-23.81S65,65.52,63.25,72.51a4.61,4.61,0,0,0,.36,3C69.24,70.83,88.09,71,109.36,76.38Z" style="fill:#e0e0e0"></path><path d="M104,96.44C83,91.11,63.67,81,63.08,71.69c-.37.68-1,5.42-1.21,6.31-1.77,7,16.56,17.65,40.94,23.81s45.58,5.49,47.34-1.5c0,0,1.39-5.49,1.9-5.79C146.42,99.21,125.32,101.81,104,96.44Z" style="fill:#ebebeb"></path><path d="M95.94,139.07c12.76-5.25,24.48-7.07,28.53-4.73a2.91,2.91,0,0,0-.08-1.81c-1.74-4.22-15.1-2.73-29.85,3.33S69.25,150.28,71,154.51a2.91,2.91,0,0,0,1.32,1.4C73.41,151.39,83.07,144.36,95.94,139.07Z" style="fill:#e0e0e0"></path><path d="M100.8,151.3c-12.75,5.24-26.4,7.37-30.21,2.85.07.49,1.54,3.14,1.76,3.68,1.74,4.23,15.11,2.74,29.86-3.33s25.29-14.42,23.55-18.64c0,0-1.37-3.33-1.22-3.67C123.44,136.7,113.67,146,100.8,151.3Z" style="fill:#ebebeb"></path><path d="M407.54,398.75c-9.2-6-18.11-9.24-21.64-8a2.22,2.22,0,0,1,.34-1.4c2-3.05,12.25.14,22.88,7.13s17.63,15.12,15.63,18.17a2.36,2.36,0,0,1-1.25.89C423.33,411.82,416.82,404.85,407.54,398.75Z" style="fill:#e0e0e0"></path><path d="M401.88,407.6c9.2,6,19.57,9.77,23.24,6.81-.13.37-1.69,2.22-1.94,2.61-2,3.05-12.25-.14-22.89-7.13s-17.63-15.12-15.63-18.17a15.25,15.25,0,0,0,1.51-2.69C386.35,392.74,392.6,401.5,401.88,407.6Z" style="fill:#ebebeb"></path><path d="M414.3,320.09c14.66-12.52,29.42-20,35.83-18.69a4,4,0,0,0-.89-2.36c-4.15-4.86-21.25,2.94-38.19,17.41s-27.32,30.15-23.17,35a4.16,4.16,0,0,0,2.37,1.28C389.74,346.27,399.52,332.73,414.3,320.09Z" style="fill:#e0e0e0"></path><path d="M426.08,334.22c-14.66,12.52-31.85,21.28-38.88,16.94.31.62,3.42,3.5,3.94,4.11,4.15,4.86,21.25-2.93,38.2-17.41s27.31-30.15,23.16-35c0,0-3.26-3.81-3.21-4.34C449.79,305,440.86,321.59,426.08,334.22Z" style="fill:#ebebeb"></path><path d="M405.44,372.29a27.76,27.76,0,0,1,32.08-.07c3.89,2.86,7.12,7.12,7.29,11.95s-3.68,9.87-8.51,9.73c-3.46-.1-6.39-2.64-8.38-5.47s-3.34-6.09-5.52-8.78a18.62,18.62,0,0,0-17-6.57" style="fill:#e0e0e0"></path></g><g id="freepik--bread-2--inject-99"><path d="M177.44,401.09a29.65,29.65,0,0,0-3,21,56.05,56.05,0,0,0,8.64,20.1c9.76,13.57,33.94,19.51,50.48,18.66s51.49.08,88.65-20.36c28.05-15.42,46.66-33.81,39.45-63.56s-42-38.67-108.59-25.52C206.08,360.65,185.49,386.61,177.44,401.09Z" style="fill:#F1B104"></path><path d="M361.53,377a39.18,39.18,0,0,0-3-8.27c1.41,8.42-4,17-11.1,23.63a202.21,202.21,0,0,1-39.94,29.1c-14.12,7.67-29.43,12.91-44.92,17.19-16.22,4.48-34.52,4-51.13,1.36-16.33-2.57-31.08-8.25-37.6-23.24a29.28,29.28,0,0,0,.71,5.34,55.82,55.82,0,0,0,8.63,20.07c9.74,13.56,33.89,19.49,50.41,18.64s51.42.08,88.54-20.33C350.14,425.07,368.73,406.71,361.53,377Z" style="opacity:0.2"></path><path d="M353.4,360.88l.44.4,1.28,1.23a14.21,14.21,0,0,1,3.07,6A18.26,18.26,0,0,1,357,379.1a36.47,36.47,0,0,1-7.87,11.81c-3.75,3.73-8.12,7.51-12.92,11.42s-10.15,7.86-16,11.69a164.42,164.42,0,0,1-19,10.87,192.26,192.26,0,0,1-21.76,8.82c-3.81,1.29-7.61,2.48-11.37,3.58s-7.47,2.19-11.21,2.92a108.69,108.69,0,0,1-21.78,2,152.23,152.23,0,0,1-19.74-1.43,99.14,99.14,0,0,1-16.88-3.52,48.83,48.83,0,0,1-12.87-6,34.77,34.77,0,0,1-7.85-7.32,34.35,34.35,0,0,1-3.52-5.8l-.71-1.62c-.16-.36-.23-.55-.23-.55s.1.17.28.53l.75,1.59a35.78,35.78,0,0,0,3.6,5.72,34.26,34.26,0,0,0,7.84,7.21,48.88,48.88,0,0,0,12.82,5.91,100.69,100.69,0,0,0,16.83,3.45,153.54,153.54,0,0,0,19.68,1.37,108.38,108.38,0,0,0,21.68-2c3.71-.73,7.4-1.83,11.16-2.92s7.55-2.28,11.35-3.58a191.51,191.51,0,0,0,21.7-8.78A165.07,165.07,0,0,0,320,413.62c5.82-3.81,11.14-7.75,16-11.62s9.19-7.66,12.94-11.34A36.41,36.41,0,0,0,356.76,379,18,18,0,0,0,358,368.57a14.49,14.49,0,0,0-2.95-6l-1.23-1.26C353.53,361,353.4,360.88,353.4,360.88Z" style="fill:#263238"></path><path d="M186.8,428.12s-.14-.05-.36-.19-.55-.35-.95-.65a22.07,22.07,0,0,1-3.13-2.87,22.4,22.4,0,0,1-3.51-5.24,20.1,20.1,0,0,1-1.08-15.12,21.4,21.4,0,0,1,2.77-5.67,21,21,0,0,1,2.73-3.24c.36-.36.67-.6.86-.77a1.51,1.51,0,0,1,.33-.24,37.6,37.6,0,0,0-3.62,4.46,21.54,21.54,0,0,0-3.49,13.09,22,22,0,0,0,5.29,12.48A34.82,34.82,0,0,0,186.8,428.12Z" style="fill:#fff"></path><path d="M197.4,433.29a20.52,20.52,0,0,1-6.19-2.18,10.51,10.51,0,0,1,3.18.85A10.74,10.74,0,0,1,197.4,433.29Z" style="fill:#fff"></path></g><g id="freepik--Pickles--inject-99"><path d="M112.51,233.9c-5.23-1.38-20.47-3.57-23.43,3.84-1.41,3.53-2.45,6.83,1.5,10.47,5.16,4.76,17.21,9.18,20.75,10.34,4.13,1.34,12.64,3.69,17.63,1.61,2.87-1.2,4.66-4.94,4.6-7.83C133.39,245.17,123.93,236.92,112.51,233.9Z" style="fill:#263238"></path><path d="M112.55,234.34c-2.46-.66-20.76-4.86-23.06,4.38-2,8.11,16.1,13.81,22.6,15.93s19.41,4.87,20.8-1.83C134.41,245.52,122.31,237,112.55,234.34Z" style="fill:#455a64"></path><path d="M108.85,244.89s.16.17.05.5-.59.63-1.16.68a6.11,6.11,0,0,1-4.37-1,.53.53,0,0,1-.19-.35.4.4,0,0,1,.18-.36,1.51,1.51,0,0,1,.64-.21c.4-.09.8-.16,1.18-.21a6.22,6.22,0,0,1,2,0,3.11,3.11,0,0,1,1.27.52,1.25,1.25,0,0,1,.36.35s-.13-.12-.4-.29a3.45,3.45,0,0,0-1.26-.43,6,6,0,0,0-2,0c-.38.05-.77.13-1.17.21a1.76,1.76,0,0,0-.56.18c-.14.1-.12.27,0,.4a6.27,6.27,0,0,0,4.21,1c.57-.05,1-.25,1.1-.57A.6.6,0,0,0,108.85,244.89Z" style="fill:#263238"></path><path d="M111.62,246.21s.21-.11.4.15a2.51,2.51,0,0,1,.09,1.18,2.3,2.3,0,0,1-.66,1.62,1.72,1.72,0,0,1-2.09,0,1.41,1.41,0,0,1-.51-2,2.06,2.06,0,0,1,.75-.59c.26-.13.5-.26.73-.35a1.83,1.83,0,0,1,1.17-.14c.28.07.4.19.39.2a1.71,1.71,0,0,0-1.5.07,4.2,4.2,0,0,0-1.39.92,1.2,1.2,0,0,0,.48,1.68,1.52,1.52,0,0,0,1.84,0,2.18,2.18,0,0,0,.64-1.49,2.69,2.69,0,0,0,0-1.12A.37.37,0,0,0,111.62,246.21Z" style="fill:#263238"></path><path d="M117.57,248.81a.76.76,0,0,1,.16.42,1.13,1.13,0,0,1,0,.53.76.76,0,0,1-.48.53,3.14,3.14,0,0,1-1.76-.46,3.46,3.46,0,0,1-1.66-1.46,1.26,1.26,0,0,1,0-1.18,1,1,0,0,1,1.06-.3,4.94,4.94,0,0,1,1.65.71c.89.56,1.16,1.2,1.11,1.21s-.08-.14-.26-.35a4.41,4.41,0,0,0-.92-.74,5.12,5.12,0,0,0-1.62-.64.79.79,0,0,0-.85.22,1,1,0,0,0,0,1,3.35,3.35,0,0,0,1.56,1.38,3.24,3.24,0,0,0,1.63.49.89.89,0,0,0,.49-.91A2.52,2.52,0,0,0,117.57,248.81Z" style="fill:#263238"></path><path d="M106.8,242.57a.39.39,0,0,1,.09.47,1.16,1.16,0,0,1-1.27.3,17.68,17.68,0,0,1-1.89-.53,4.63,4.63,0,0,1-2-1.32.56.56,0,0,1,0-.71,1,1,0,0,1,.65-.19,8.37,8.37,0,0,1,1.16.14,6.33,6.33,0,0,1,1.85.69,5.35,5.35,0,0,1,1.06.79,1.49,1.49,0,0,1,.33.36,9.59,9.59,0,0,0-1.46-1,6.25,6.25,0,0,0-1.82-.63,9.82,9.82,0,0,0-1.12-.13.73.73,0,0,0-.5.14.35.35,0,0,0,0,.45,4.51,4.51,0,0,0,1.92,1.25,16.81,16.81,0,0,0,1.86.56,1.07,1.07,0,0,0,1.16-.19C107,242.74,106.76,242.57,106.8,242.57Z" style="fill:#263238"></path><path d="M109.46,241.48a.61.61,0,0,1,0,.46.62.62,0,0,1-.36.43,1.07,1.07,0,0,1-.75,0,10.06,10.06,0,0,1-1.71-.79,3.31,3.31,0,0,1-1.51-1.74l-.05-.18h0v-.15h0a.94.94,0,0,1,1-.69,2.15,2.15,0,0,1,1,.36,12.21,12.21,0,0,1,1.46,1,3.65,3.65,0,0,1,.81.88.73.73,0,0,1,.13.42,1.86,1.86,0,0,0-.2-.38,4.27,4.27,0,0,0-.83-.81,14,14,0,0,0-1.47-.95A2.07,2.07,0,0,0,106,239a.74.74,0,0,0-.75.53v.08l0,.17a3.27,3.27,0,0,0,1.41,1.64,11.86,11.86,0,0,0,1.66.81.71.71,0,0,0,1-.33A1.32,1.32,0,0,0,109.46,241.48Z" style="fill:#263238"></path><path d="M114.9,241.34a.9.9,0,0,1,.14.44,1.17,1.17,0,0,1-.53,1.11,4.14,4.14,0,0,1-1.81.37,1.89,1.89,0,0,1-1.08-.27,1.65,1.65,0,0,1-.67-1,1.81,1.81,0,0,1,1.28-2,2.17,2.17,0,0,1,1.89.33h0a1.84,1.84,0,0,1,.67.74.8.8,0,0,1,.11.33,2.45,2.45,0,0,0-.84-1h0a2.08,2.08,0,0,0-1.77-.26,1.61,1.61,0,0,0-1.12,1.81,1.44,1.44,0,0,0,.57.88,1.75,1.75,0,0,0,1,.24,3.84,3.84,0,0,0,1.73-.3,1.1,1.1,0,0,0,.53-1A3.13,3.13,0,0,0,114.9,241.34Z" style="fill:#263238"></path><path d="M119.82,245s0,.19-.23.41a1.44,1.44,0,0,1-1.25.19l-1.84-.35a4.83,4.83,0,0,1-1.09-.3.89.89,0,0,1-.54-1.09,1.07,1.07,0,0,1,.65-.52,3.41,3.41,0,0,1,.75-.18,4.23,4.23,0,0,1,1.39.07,4.12,4.12,0,0,1,1.14.34,2.89,2.89,0,0,1,.74.58l-.08.08h0l.07-.08c.46.45.3.88.29.85a1,1,0,0,0-.36-.77l.07-.09h0l-.07.09a2.85,2.85,0,0,0-.73-.52,4,4,0,0,0-1.1-.3,4.24,4.24,0,0,0-1.34-.05c-.44.08-1,.18-1.23.58a.7.7,0,0,0,.44.83,4.73,4.73,0,0,0,1,.29l1.83.4a1.36,1.36,0,0,0,1.17-.12A1.08,1.08,0,0,0,119.82,245Z" style="fill:#263238"></path><path d="M120.56,247.39s.12.13.35.37.28.27.25.57-.45.35-.74.32a12.51,12.51,0,0,1-4.26-1.58,1.23,1.23,0,0,1-.52-.47.55.55,0,0,1,.13-.7c.45-.28.88-.09,1.25-.06a8.88,8.88,0,0,1,2,.5,4.37,4.37,0,0,1,1.19.7,1.71,1.71,0,0,1,.36.35,6.75,6.75,0,0,0-1.6-.92,10.74,10.74,0,0,0-2-.44c-.37,0-.81-.17-1.09,0a.33.33,0,0,0-.07.45,1.06,1.06,0,0,0,.44.39,14,14,0,0,0,4.17,1.61c.26,0,.54,0,.61-.22s-.12-.36-.21-.48A1.6,1.6,0,0,1,120.56,247.39Z" style="fill:#263238"></path><path d="M96.76,234.7c0,.15-.65.22-1.39.47s-1.3.56-1.4.45.4-.67,1.24-.94S96.78,234.56,96.76,234.7Z" style="fill:#fff"></path><path d="M93.49,243.41c0,.05-.45-.08-1-.55a4.43,4.43,0,0,1-.93-5c.3-.62.64-.89.69-.85s-.16.39-.35,1a4.93,4.93,0,0,0,.86,4.6C93.2,243.1,93.53,243.34,93.49,243.41Z" style="fill:#fff"></path><path d="M353,147.51c-7,4.44-25.37,19.32-20.13,30.37,2.51,5.28,5.14,9.89,13.36,9.25,10.73-.84,28.29-9.79,33.28-12.57,5.82-3.24,17.34-10.38,20.2-18.16,1.65-4.48-.68-10.4-4-13.35C387.44,135.78,368.28,137.81,353,147.51Z" style="fill:#263238"></path><path d="M353.5,147.92c-3.31,2.08-27.13,18.3-19.13,30.53,7,10.73,32.34-3.71,41.51-8.81s25.73-16.76,19.65-25.32C388.89,135,366.64,139.69,353.5,147.92Z" style="fill:#455a64"></path><path d="M361.52,163.1s.33,0,.58.48a1.18,1.18,0,0,1,.1.91,3.52,3.52,0,0,1-.55,1.07,9.33,9.33,0,0,1-5.61,3.88.78.78,0,0,1-.55-.13.61.61,0,0,1-.21-.54,2.54,2.54,0,0,1,.42-.91c.33-.55.66-1.07,1-1.55a9.71,9.71,0,0,1,2.15-2.25,5.08,5.08,0,0,1,1.9-.91,2.26,2.26,0,0,1,.77-.05,7.6,7.6,0,0,0-.75.13,5.09,5.09,0,0,0-1.83,1,9.93,9.93,0,0,0-2.09,2.24c-.33.47-.65,1-1,1.54a2.24,2.24,0,0,0-.39.83c-.05.3.21.49.53.44a9.41,9.41,0,0,0,5.51-3.75,4,4,0,0,0,.56-1,1.15,1.15,0,0,0-.06-.85A.93.93,0,0,0,361.52,163.1Z" style="fill:#263238"></path><path d="M365.9,161.36s.09-.33.57-.27a1.42,1.42,0,0,1,.67.42c.22.2.47.44.73.71a3.62,3.62,0,0,1,1.11,2.41,2.14,2.14,0,0,1-.64,1.47,3.19,3.19,0,0,1-1.51.82,2.4,2.4,0,0,1-1.71-.16,1.82,1.82,0,0,1-1-1.27,3.4,3.4,0,0,1,.12-1.44c.12-.43.23-.83.37-1.19a2.92,2.92,0,0,1,1-1.46,1.27,1.27,0,0,1,.62-.24,3.1,3.1,0,0,0-.57.31,3,3,0,0,0-.95,1.44c-.12.36-.22.76-.33,1.19a3.24,3.24,0,0,0-.1,1.36,1.65,1.65,0,0,0,.89,1.12,2.25,2.25,0,0,0,1.56.14,2.4,2.4,0,0,0,2-2.09,3.44,3.44,0,0,0-1-2.31c-.52-.52-.91-1-1.3-1.15A.51.51,0,0,0,365.9,161.36Z" style="fill:#263238"></path><path d="M375,157.38a1.27,1.27,0,0,1,.62.27,1.94,1.94,0,0,1,.54.61,1.13,1.13,0,0,1,.08,1.07,4.78,4.78,0,0,1-2.33,1.45,5.2,5.2,0,0,1-3.34.35,1.86,1.86,0,0,1-1.33-1.16,1.46,1.46,0,0,1,.74-1.45,7.83,7.83,0,0,1,2.52-1.12,5.81,5.81,0,0,1,1.84-.2,1.8,1.8,0,0,1,.66.18s-.23-.07-.66-.1a6.37,6.37,0,0,0-1.81.26,7.87,7.87,0,0,0-2.43,1.14c-.39.28-.8.73-.66,1.24a1.68,1.68,0,0,0,1.2,1,5,5,0,0,0,3.2-.33,4.8,4.8,0,0,0,2.27-1.34,1,1,0,0,0-.05-.95,1.86,1.86,0,0,0-.49-.59A2.82,2.82,0,0,0,375,157.38Z" style="fill:#263238"></path><path d="M356.76,163a.46.46,0,0,1,.19,0,.59.59,0,0,1,.42.36c.16.52-.28,1.23-1,1.7a22,22,0,0,1-2.56,1.56,9.14,9.14,0,0,1-1.66.67,4.66,4.66,0,0,1-1.92.24.8.8,0,0,1-.69-.75,1.43,1.43,0,0,1,.44-.89,11.86,11.86,0,0,1,1.36-1.15,9.6,9.6,0,0,1,2.68-1.37,7.62,7.62,0,0,1,2.74-.4,12.17,12.17,0,0,0-2.69.54,9.82,9.82,0,0,0-2.61,1.39,11.55,11.55,0,0,0-1.33,1.13,1.21,1.21,0,0,0-.38.75.58.58,0,0,0,.53.54,4.47,4.47,0,0,0,1.81-.22,9.55,9.55,0,0,0,1.63-.65,26.24,26.24,0,0,0,2.57-1.51c.71-.44,1.12-1.1,1-1.55a.54.54,0,0,0-.35-.35Z" style="fill:#263238"></path><path d="M358.31,158.85a1,1,0,0,1,.53.47,1,1,0,0,1,.09.84,1.58,1.58,0,0,1-.75.83,14.47,14.47,0,0,1-2.67,1.09A5.08,5.08,0,0,1,352,162l-.26-.13h0l-.16-.12h0a1.37,1.37,0,0,1,.21-1.72,3.22,3.22,0,0,1,1.44-.77,18.24,18.24,0,0,1,2.65-.62,5.73,5.73,0,0,1,1.82,0,1.41,1.41,0,0,1,.62.26,3.11,3.11,0,0,0-.63-.18,5.9,5.9,0,0,0-1.79.06,21.7,21.7,0,0,0-2.61.66,3,3,0,0,0-1.35.73,1.16,1.16,0,0,0-.2,1.45l0,0,.16.12h0c.08,0,.16.09.24.12a4.94,4.94,0,0,0,3.36.12,16.14,16.14,0,0,0,2.64-1,1.47,1.47,0,0,0,.72-.74.9.9,0,0,0-.05-.76A1.77,1.77,0,0,0,358.31,158.85Z" style="fill:#263238"></path><path d="M363.84,152.59a1.52,1.52,0,0,1,.61.32,1.72,1.72,0,0,1,.67,1.72,6,6,0,0,1-1.47,2.39,2.75,2.75,0,0,1-1.41.93,2.45,2.45,0,0,1-1.78-.3,2.48,2.48,0,0,1-1.15-1.64,2.86,2.86,0,0,1,.21-1.84,3.35,3.35,0,0,1,2.31-1.78h0a2.76,2.76,0,0,1,1.5,0,2.48,2.48,0,0,1,.51.2s-.18-.06-.52-.13a2.9,2.9,0,0,0-1.45,0h0a3.27,3.27,0,0,0-2.17,1.73,2.54,2.54,0,0,0,.88,3.23,2.25,2.25,0,0,0,1.63.28,2.7,2.7,0,0,0,1.31-.85,6,6,0,0,0,1.47-2.3,1.68,1.68,0,0,0-.58-1.63A3.62,3.62,0,0,0,363.84,152.59Z" style="fill:#263238"></path><path d="M373.1,150.89a.43.43,0,0,1,.1.15,1,1,0,0,1,.1.53,2.15,2.15,0,0,1-1.08,1.58l-2.33,1.69a7,7,0,0,1-1.46.91,1.31,1.31,0,0,1-1.72-.5,1.58,1.58,0,0,1,.09-1.23,5.59,5.59,0,0,1,.57-1,6.29,6.29,0,0,1,1.52-1.49,6.07,6.07,0,0,1,1.56-.92,4.28,4.28,0,0,1,1.4-.24v.11h0v-.11a1.6,1.6,0,0,1,1,.26.74.74,0,0,1,.25.28,1.42,1.42,0,0,0-1.25-.43v-.11h0v.11a4.41,4.41,0,0,0-1.35.27,7.84,7.84,0,0,0-3,2.39,4.67,4.67,0,0,0-.55,1,1.39,1.39,0,0,0-.09,1.07,1.12,1.12,0,0,0,1.46.39,6.88,6.88,0,0,0,1.42-.88l2.35-1.65a2.12,2.12,0,0,0,1.09-1.47A1.39,1.39,0,0,0,373.1,150.89Z" style="fill:#263238"></path><path d="M376.55,152.53s.27,0,.77,0c.23,0,.6,0,.87.3a1,1,0,0,1-.4,1.13,20.12,20.12,0,0,1-6.21,3.12,1.92,1.92,0,0,1-1,.09.8.8,0,0,1-.62-.82c.15-.75.8-1.05,1.22-1.43a14.35,14.35,0,0,1,2.62-1.73,6.83,6.83,0,0,1,2-.62,3.68,3.68,0,0,1,.77-.06,8.79,8.79,0,0,0-2.73.81,15.62,15.62,0,0,0-2.56,1.75c-.43.37-1,.72-1.13,1.3a.58.58,0,0,0,.47.6,1.65,1.65,0,0,0,.92-.09,20.89,20.89,0,0,0,6.18-3c.33-.27.54-.67.39-1s-.55-.24-.77-.28A2.85,2.85,0,0,1,376.55,152.53Z" style="fill:#263238"></path><path d="M337.43,166.07a21.8,21.8,0,0,1-1.05,2,18.77,18.77,0,0,1-.83,2.1,3.19,3.19,0,0,1,.36-2.32C336.46,166.64,337.34,166,337.43,166.07Z" style="fill:#fff"></path><path d="M343.82,178.85a3,3,0,0,1-1.62.4,6.79,6.79,0,0,1-3.87-1.06,6.87,6.87,0,0,1-2.63-3,3.08,3.08,0,0,1-.33-1.63c.09,0,.21.6.66,1.47a7.47,7.47,0,0,0,2.58,2.75,7.37,7.37,0,0,0,3.59,1.13C343.18,178.92,343.79,178.76,343.82,178.85Z" style="fill:#fff"></path></g><g id="freepik--Lettuce--inject-99"><path d="M226.41,248c16.45,6.76,25.92,5.41,39.15,8.78,15.25,3.88,31.95.71,46.41-5.48,6.95-3,14.64-7.17,21.56-4.16,1.49.65,2.83,1.6,4.3,2.28a28.1,28.1,0,0,0,5.71,1.73c4.11,1,8.53,2.26,11,5.69s1.2,9.52-3,10.12c2,.5,2.6,3.17,2,5.15s-1.88,3.72-2.26,5.75c-.57,3,.95,5.9,2.41,8.55,6.75-.44,13,6.32,12,13a28,28,0,0,0-.69,4.34c0,1.69.72,3.29.93,5a9.18,9.18,0,0,1-7.44,9.89,12.59,12.59,0,0,1-7.85,12.06,4.44,4.44,0,0,1-.93,8.72c3.87,6.57-.67,16.37-8.18,17.67,0,5.64-4.06,10.36-7.87,14.51-1.88,2-4,4.22-6.72,4.65-4.5.71-8.39-3.48-12.93-3.81-2-.15-3.94.46-5.92.41s-4.22-1.1-4.55-3.06c-.51,2.42-3.39,3.7-5.83,3.32s-4.49-1.95-6.44-3.46a14.55,14.55,0,0,1-22.78,18c-.66,2.4-3.47,3.68-6,3.46s-4.71-1.55-6.84-2.86c-1.32,3.23-3.16,6.92-6.6,7.52a13.27,13.27,0,0,0-3.22.49c-1.68.76-2.21,2.81-2.91,4.52a12.22,12.22,0,0,1-9.22,7.51,9.77,9.77,0,0,1-10.21-5.45,6.29,6.29,0,0,1-12.35.35c-2.87,2.34-7.24.61-10-1.8a25.59,25.59,0,0,1-8.77-18c-.85,2.54-4.38,3.26-6.77,2.06s-3.86-3.64-5.14-6a8.69,8.69,0,0,1-7.54,8.15c-4,.42-7.85-2.15-10.11-5.48s-3.25-7.34-4.2-11.26c-1.64-6.76-3.28-13.72-2.23-20.59a53.71,53.71,0,0,1,3.61-11.57,130.93,130.93,0,0,1,7.4-16.37c6.68-11.78,16.81-21.14,25.89-31.21s21.42-23.94,23.31-37.35c.58-4.11-.2-8,.25-8.75,1-1.68,9.51,3,9.51,3" style="fill:#455a64"></path><path d="M216.9,245l.25.07.73.23c.65.22,1.59.54,2.8,1,2.41.87,5.89,2.2,10.15,3.91,8.53,3.38,20.14,8.52,33.4,13a100.85,100.85,0,0,0,19,4.93,74,74,0,0,0,16,.57A68.38,68.38,0,0,0,310,267.09c1.25-.29,2.21-.54,2.86-.73l.75-.19.26-.05-.24.1-.74.24c-.64.22-1.59.51-2.84.83a65.06,65.06,0,0,1-10.73,1.81,72.93,72.93,0,0,1-16.13-.46,98.8,98.8,0,0,1-19.15-4.92c-13.28-4.49-24.88-9.69-33.37-13.16-4.24-1.76-7.69-3.13-10.09-4.06l-2.75-1.07-.72-.28C217,245.08,216.89,245,216.9,245Z" style="fill:#fff"></path><path d="M305.94,275.74h-.24l-.7,0-2.68-.17c-2.34-.13-5.71-.21-9.89-.33a84.72,84.72,0,0,1-14.62-1.48c-5.48-1.09-11.07-3.68-16.74-6.56l-29.33-14.36-8.87-4.4-2.39-1.22-.62-.33a.77.77,0,0,1-.2-.12.77.77,0,0,1,.2.12l.64.28,2.44,1.13,8.94,4.26,29.4,14.21c5.67,2.88,11.2,5.46,16.61,6.56a87.39,87.39,0,0,0,14.53,1.58c4.18.17,7.56.31,9.89.5,1.17.1,2.07.18,2.68.26l.69.09Z" style="fill:#fff"></path><path d="M320.65,324.2a1.37,1.37,0,0,1-.32-.09l-.94-.31c-.81-.3-2-.69-3.56-1.31a106,106,0,0,1-12.65-5.93c-2.59-1.42-5.36-3.09-8.25-5s-5.88-4.12-8.9-6.6a117.31,117.31,0,0,1-17.68-18.17c-2.83-3.49-5.55-6.94-8.47-10a101.75,101.75,0,0,0-8.94-8.28c-6-4.95-11.78-8.95-16.66-12.23s-8.93-5.83-11.71-7.6l-3.2-2-.82-.54a2.35,2.35,0,0,1-.28-.2,1.08,1.08,0,0,1,.3.15l.86.5,3.25,2c2.81,1.72,6.87,4.22,11.8,7.46a202.42,202.42,0,0,1,16.76,12.17,101,101,0,0,1,9,8.3c2.94,3.08,5.67,6.53,8.51,10a118.79,118.79,0,0,0,17.57,18.13c3,2.48,6,4.66,8.84,6.61s5.62,3.62,8.19,5.05a113.68,113.68,0,0,0,12.54,6.06c1.52.65,2.72,1.07,3.53,1.4l.92.36A1.67,1.67,0,0,1,320.65,324.2Z" style="fill:#fff"></path><path d="M277.23,351.38a1.31,1.31,0,0,1-.09-.31c-.06-.24-.13-.54-.22-.93-.18-.85-.43-2.06-.76-3.59-.67-3.11-1.6-7.62-2.88-13.17s-2.91-12.13-5.21-19.29c-1.12-3.59-2.49-7.29-4-11.09a115.46,115.46,0,0,0-5.4-11.43c-.5-1-1-1.9-1.59-2.82s-1.07-1.84-1.64-2.73c-1.17-1.76-2.27-3.52-3.5-5.15-2.42-3.3-5-6.32-7.47-9.12-5-5.61-9.86-10.36-14-14.28s-7.55-7-9.92-9.12l-2.74-2.44-.7-.65c-.16-.14-.24-.22-.23-.23l.26.19.74.61c.65.53,1.59,1.33,2.8,2.36,2.42,2.08,5.88,5.12,10.05,9s9,8.62,14.08,14.23c2.52,2.8,5.08,5.82,7.52,9.13,1.24,1.65,2.35,3.42,3.53,5.18.57.89,1.09,1.83,1.65,2.75s1.1,1.86,1.59,2.83a112.18,112.18,0,0,1,5.42,11.49c1.52,3.81,2.87,7.53,4,11.14,2.28,7.18,3.87,13.79,5.11,19.35s2.11,10.09,2.72,13.21c.28,1.54.51,2.75.67,3.61.06.39.12.7.16.94A1.92,1.92,0,0,1,277.23,351.38Z" style="fill:#fff"></path><path d="M226.55,374.41a2.3,2.3,0,0,1,0-.34c0-.25,0-.58,0-1,0-.87,0-2.16.06-3.81.1-3.32.44-8.11,1.1-14s1.62-12.89,2.32-20.68c.34-3.9.6-8,.61-12.25a106.09,106.09,0,0,0-.86-13.13,249.78,249.78,0,0,0-4.69-25c-1.76-7.63-3.45-14.49-4.73-20.28s-2.2-10.5-2.72-13.77c-.29-1.63-.43-2.91-.56-3.78-.05-.41-.1-.73-.13-1a1.74,1.74,0,0,1,0-.34,2.25,2.25,0,0,1,.08.33c0,.25.1.57.17,1,.16.86.34,2.13.66,3.76.58,3.26,1.55,8,2.88,13.72l4.84,20.25a240.24,240.24,0,0,1,4.73,25.07,105,105,0,0,1,.86,13.19c0,4.27-.29,8.39-.64,12.29-.73,7.81-1.75,14.8-2.43,20.68s-1.11,10.66-1.26,14c-.12,1.65-.12,2.93-.16,3.81,0,.41,0,.74,0,1A1.91,1.91,0,0,1,226.55,374.41Z" style="fill:#fff"></path><path d="M237.25,355.61a9.64,9.64,0,0,1-.13-1.53c-.05-1-.14-2.42-.29-4.18-.28-3.52-.87-8.36-1.84-13.66s-2.11-10.05-3-13.48c-.4-1.65-.73-3-1-4.07a7.66,7.66,0,0,1-.3-1.51,9.38,9.38,0,0,1,.5,1.46c.29.94.69,2.32,1.15,4,.93,3.41,2.11,8.16,3.1,13.48a109.67,109.67,0,0,1,1.7,13.73c.1,1.77.13,3.2.12,4.19A8.15,8.15,0,0,1,237.25,355.61Z" style="fill:#fff"></path><path d="M197.69,352.11a5.26,5.26,0,0,1,.33-.82l1-2.29c.48-1,1-2.21,1.64-3.64s1.34-3.05,2.07-4.87c1.52-3.6,3.15-8,4.89-12.85s3.44-10.31,5.09-16.06,3-11.27,4.19-16.32,2.08-9.62,2.75-13.48c.36-1.92.65-3.67.89-5.21s.47-2.86.62-3.94.29-1.88.39-2.5a7.55,7.55,0,0,1,.16-.86,4.85,4.85,0,0,1-.06.88c-.07.62-.17,1.45-.29,2.51s-.3,2.42-.53,4-.48,3.29-.82,5.23c-.62,3.87-1.55,8.45-2.64,13.52s-2.52,10.6-4.16,16.36-3.42,11.18-5.13,16.07-3.44,9.24-5,12.84c-.75,1.81-1.49,3.42-2.15,4.84s-1.21,2.63-1.71,3.61l-1.14,2.25A7.4,7.4,0,0,1,197.69,352.11Z" style="fill:#fff"></path><path d="M167.15,380.28a8.07,8.07,0,0,1-1.13-1.11c-.18-.19-.39-.39-.58-.63l-.61-.82-.69-.94c-.23-.35-.44-.73-.67-1.12a27.45,27.45,0,0,1-2.55-5.92A37.88,37.88,0,0,1,159.5,362a43,43,0,0,1,1.32-14.21c.21-.89.5-1.67.73-2.36a12.62,12.62,0,0,1,.66-1.74,7.77,7.77,0,0,1,.67-1.44,9.94,9.94,0,0,1-.48,1.51,15.79,15.79,0,0,0-.58,1.76c-.2.69-.46,1.47-.64,2.36A46,46,0,0,0,160,362a40.23,40.23,0,0,0,1.36,7.66,28.32,28.32,0,0,0,2.41,5.87A37.3,37.3,0,0,0,167.15,380.28Z" style="fill:#fff"></path><path d="M185.17,382.36A8,8,0,0,1,183,379.3a8.19,8.19,0,0,1-1.06-3.6c.15,0,.64,1.55,1.53,3.37S185.29,382.27,185.17,382.36Z" style="fill:#fff"></path><path d="M203.09,398.07a2.5,2.5,0,0,1-.72-.36,12.67,12.67,0,0,1-1.78-1.28,16.06,16.06,0,0,1-2.27-2.35,18.85,18.85,0,0,1-2.12-3.39,19.51,19.51,0,0,1-1.3-3.78,17.28,17.28,0,0,1-.39-3.24,12.63,12.63,0,0,1,.13-2.19,2.91,2.91,0,0,1,.17-.79c.1,0-.05,1.15.07,3a18,18,0,0,0,.49,3.15,20.28,20.28,0,0,0,1.3,3.67,21.06,21.06,0,0,0,2,3.32,18.33,18.33,0,0,0,2.13,2.36C202.17,397.39,203.14,398,203.09,398.07Z" style="fill:#fff"></path><path d="M230.77,405a6.74,6.74,0,0,1-4.38-6.36,11.05,11.05,0,0,0,4.38,6.36Z" style="fill:#fff"></path><path d="M261.82,388a4.26,4.26,0,0,1-1.55-1,10.95,10.95,0,0,1-3.64-8,4.21,4.21,0,0,1,.25-1.84A16.85,16.85,0,0,1,257,379a12.5,12.5,0,0,0,3.53,7.72C261.3,387.49,261.87,387.91,261.82,388Z" style="fill:#fff"></path><path d="M274.49,388.75s-.24-.13-.61-.43a10.1,10.1,0,0,1-1.44-1.44,14.82,14.82,0,0,1-1.69-2.5,16.87,16.87,0,0,1-1.35-3.45,16.54,16.54,0,0,1-.48-3.68,14.68,14.68,0,0,1,.28-3,10.4,10.4,0,0,1,.56-1.95c.18-.45.3-.69.33-.67s-.28,1-.53,2.68a16.47,16.47,0,0,0-.16,2.94,18.17,18.17,0,0,0,.51,3.56,18.36,18.36,0,0,0,1.26,3.36,16.89,16.89,0,0,0,1.56,2.49C273.75,388,274.56,388.68,274.49,388.75Z" style="fill:#fff"></path><path d="M178.8,318.13c4,1.33,8.43,1.31,12.49,2.59s8.06,4.52,8.06,8.77c0,2.49-1.33,5.21,0,7.32a25.61,25.61,0,0,0,4.77-14.23L214.51,327c2.14.92,4.36,1.9,5.8,3.72,4.77,6-2.08,15.92,2.26,22.25a58,58,0,0,0,2.93-16.09c5.8,4.21.83,15.6,6.85,19.49q-.19-7.47-.94-14.9A217.71,217.71,0,0,0,253.15,360c2,1.46,4.07,2.93,6.5,3.17,5.77.56,9.61-5.63,12-10.92l3.32,4.41c2.48-2.73.59-7.13,1.44-10.73.71-3,3.3-5.17,5.74-7.09,8.71-6.86,18.79-14.12,29.76-12.54-2.37-.91-2.64-4.42-1.18-6.5s4-3.12,6.23-4.23c11.37-5.53,20.42-15.22,26.45-26.33s7.55-28.47,1.78-37.67h0l-.35,0v-.07c-.43-.11-.86-.22-1.28-.31a28.1,28.1,0,0,1-5.71-1.73c-1.47-.68-2.81-1.63-4.3-2.28-6.92-3-14.61,1.18-21.56,4.16-14.46,6.19-31.16,9.36-46.41,5.48-13.23-3.37-22.7-2-39.15-8.78,0,0-8.47-4.67-9.51-3-.45.71.33,4.64-.25,8.75-1.89,13.41-14.24,27.29-23.31,37.35-6,6.65-12.44,13-18.06,19.93C175.21,314.29,175.58,317.07,178.8,318.13Z" style="opacity:0.3"></path></g><g id="freepik--Sauce--inject-99"><path d="M124.38,311.66c-4.67-7.74-12.67-11.24-21.69-11.74a13.84,13.84,0,0,0-7.37,1.28,7,7,0,0,0-3.92,6c0,2.65,2,4.95,4.42,6.12,7.19,3.55,16.16-1.67,23.72,1,1.16.4,2.36,1,3.54.68S124.81,313.43,124.38,311.66Z" style="fill:#F1B104"></path><path d="M103.62,312.78a6.36,6.36,0,0,1-2.41.28,8.86,8.86,0,0,1-5.53-1.92,6.52,6.52,0,0,1-1.94-2.65,5.66,5.66,0,0,1-.35-2.67,4.66,4.66,0,0,1,.53-1.72c.21-.37.38-.54.41-.52a8.19,8.19,0,0,0-.57,2.27,5.67,5.67,0,0,0,.42,2.46A6.46,6.46,0,0,0,96,310.74a9.15,9.15,0,0,0,5.21,1.95C102.69,312.8,103.61,312.69,103.62,312.78Z" style="fill:#fff"></path><path d="M108.49,312.41c0,.14-.47.24-1,.23s-1-.14-1-.29.47-.25,1-.23S108.49,312.26,108.49,312.41Z" style="fill:#fff"></path><path d="M98.89,282.15a4.86,4.86,0,0,0-3-.66,3.73,3.73,0,0,0-3.28,1.45,4.79,4.79,0,0,0-.57,4.35,7.1,7.1,0,0,0,2.82,3.49c1.44,1,3.37,1.54,4.92.74a4.46,4.46,0,0,0,2.12-4.17A6.53,6.53,0,0,0,98.89,282.15Z" style="fill:#F1B104"></path><path d="M95.5,290c0,.06-.47-.06-1-.49a5.14,5.14,0,0,1-2-5c.14-.72.37-1.11.43-1.08A6.53,6.53,0,0,0,95.5,290Z" style="fill:#fff"></path><path d="M362.43,220.64c6.46-10.72,17.55-15.56,30.05-16.26a19.32,19.32,0,0,1,10.2,1.77c3.08,1.65,5.5,4.86,5.43,8.36-.07,3.66-2.83,6.85-6.12,8.47-10,4.92-22.38-2.31-32.86,1.37-1.6.57-3.27,1.39-4.9.94S361.84,223.1,362.43,220.64Z" style="fill:#F1B104"></path><path d="M391.18,222.19c0-.09,1.28.09,3.32,0a12.73,12.73,0,0,0,7.28-2.7,8.83,8.83,0,0,0,2.56-3.41,8,8,0,0,0,.58-3.44,9.54,9.54,0,0,0-.87-3.15,2.06,2.06,0,0,1,.53.74,6.37,6.37,0,0,1,.7,2.38,8,8,0,0,1-.49,3.65,9,9,0,0,1-2.68,3.63,12.34,12.34,0,0,1-7.59,2.67,15.93,15.93,0,0,1-2.46-.13A2.75,2.75,0,0,1,391.18,222.19Z" style="fill:#fff"></path><path d="M384.44,221.68c0-.15.63-.28,1.41-.3s1.42.08,1.43.22-.63.28-1.41.3S384.45,221.82,384.44,221.68Z" style="fill:#fff"></path><path d="M397.12,280.09a6.73,6.73,0,0,1,2.36,3.62,5.16,5.16,0,0,1-.27,5,6.63,6.63,0,0,1-5.35,2.88,9.83,9.83,0,0,1-5.91-1.92c-2-1.39-3.64-3.61-3.38-6s2.19-4.06,4.35-4.8A9.09,9.09,0,0,1,397.12,280.09Z" style="fill:#F1B104"></path><path d="M388.66,288.35a10.77,10.77,0,0,1,1.37.74,8,8,0,0,0,7.07.11,11.62,11.62,0,0,1,1.39-.7s-.36.52-1.22,1a7.17,7.17,0,0,1-3.73,1,7.28,7.28,0,0,1-3.7-1.08C389,288.88,388.62,288.39,388.66,288.35Z" style="fill:#fff"></path></g><g id="freepik--Cheese--inject-99"><path d="M296.78,259.5c-14.17-1.57-26.81-9.2-39.9-14.83s-30.87-10.35-43.62-4c-7.1,10-11.42,18.22-22.62,30.13-2,2.51-4.93,2.84-7.26,5.06l1.16,2.19a9.4,9.4,0,0,1,5.62,5.21,8.9,8.9,0,0,1-2.7,9.52,13.11,13.11,0,0,1-9.85,2.83,14,14,0,0,1-7.85-3.19,11,11,0,0,1-2.11-2.5c-7.32,4.09-17,5.38-25,7.35l.76,2c26,15.51,60.66,14,83.83,33.51,11.32,9.52,19.89,24,34.34,27.09a207.64,207.64,0,0,1,48.89-47.41c7.17-5,14.77-9.56,20.49-16.14,11.89-13.68,13.6-33.21,14.61-51.31l-.76-2C330.24,251.89,313.7,261.38,296.78,259.5Zm-25,71.4a15.38,15.38,0,0,1-11.53,3.31,16.32,16.32,0,0,1-9.18-3.74,11.86,11.86,0,0,1-4.18-8.83,10.41,10.41,0,0,1,4.17-8.15,15.73,15.73,0,0,1,6.42-2.29,13.47,13.47,0,0,1,7.12.92l3.77,1.54a11,11,0,0,1,6.58,6.09C276.41,323.59,274.87,328.18,271.78,330.9ZM287,293.44a8.25,8.25,0,0,1-6.21,1.79,9,9,0,0,1-4.95-2,6.43,6.43,0,0,1-2.25-4.76,5.63,5.63,0,0,1,2.25-4.39,8.43,8.43,0,0,1,3.46-1.23,7.24,7.24,0,0,1,3.84.49l2,.83a5.94,5.94,0,0,1,3.55,3.28A5.61,5.61,0,0,1,287,293.44Z" style="fill:#F1B104"></path><g style="opacity:0.30000000000000004"><path d="M296.78,259.5c-14.17-1.57-26.81-9.2-39.9-14.83s-30.87-10.35-43.62-4c-7.1,10-11.42,18.22-22.62,30.13-2,2.51-4.93,2.84-7.26,5.06l1.16,2.19a9.4,9.4,0,0,1,5.62,5.21,8.9,8.9,0,0,1-2.7,9.52,13.11,13.11,0,0,1-9.85,2.83,14,14,0,0,1-7.85-3.19,11,11,0,0,1-2.11-2.5c-7.24,4-17.08,5.37-25,7.35l.76,2c26,15.51,60.66,14,83.83,33.51,11.32,9.52,19.89,24,34.34,27.09a207.64,207.64,0,0,1,48.89-47.41c7.17-5,14.77-9.56,20.49-16.14,11.89-13.68,13.6-33.21,14.61-51.31l-.76-2C330.22,251.92,313.74,261.39,296.78,259.5Zm-25,71.4a15.38,15.38,0,0,1-11.53,3.31,16.32,16.32,0,0,1-9.18-3.74,11.86,11.86,0,0,1-4.18-8.83,10.41,10.41,0,0,1,4.17-8.15,15.73,15.73,0,0,1,6.42-2.29,13.47,13.47,0,0,1,7.12.92l3.77,1.54a11,11,0,0,1,6.58,6.09C276.41,323.59,274.87,328.18,271.78,330.9ZM287,293.44a8.25,8.25,0,0,1-6.21,1.79,9,9,0,0,1-4.95-2,6.43,6.43,0,0,1-2.25-4.76,5.63,5.63,0,0,1,2.25-4.39,8.43,8.43,0,0,1,3.46-1.23,7.24,7.24,0,0,1,3.84.49l2,.83a5.94,5.94,0,0,1,3.55,3.28A5.61,5.61,0,0,1,287,293.44Z"></path></g><path d="M296,257.47c-14.17-1.57-26.81-9.19-39.91-14.83s-30.86-10.34-43.61-4c-7.1,10-11.42,18.22-22.62,30.13a69.14,69.14,0,0,1-6.5,7.09l.4.17a9.39,9.39,0,0,1,5.62,5.2,8.9,8.9,0,0,1-2.7,9.52,13.11,13.11,0,0,1-9.85,2.83,13.9,13.9,0,0,1-7.85-3.19,10.94,10.94,0,0,1-2.11-2.49,94.36,94.36,0,0,1-24.23,9.37c26,15.52,60.66,14,83.83,33.51,11.32,9.52,19.89,24,34.34,27.09a207.64,207.64,0,0,1,48.89-47.41c7.17-5,14.76-9.56,20.49-16.14,11.89-13.68,13.6-33.21,14.61-51.31C330.09,252.08,313.2,259.39,296,257.47Zm-25,71.4a15.34,15.34,0,0,1-11.53,3.31,16.37,16.37,0,0,1-9.18-3.73,11.83,11.83,0,0,1-4.18-8.83,10.42,10.42,0,0,1,4.17-8.16,15.73,15.73,0,0,1,6.42-2.29,13.57,13.57,0,0,1,7.12.92l3.77,1.54a11,11,0,0,1,6.58,6.09C275.65,321.56,274.11,326.16,271,328.87Zm15.21-37.45A8.25,8.25,0,0,1,280,293.2a8.8,8.8,0,0,1-4.95-2,6.43,6.43,0,0,1-2.25-4.76,5.63,5.63,0,0,1,2.25-4.39,8.43,8.43,0,0,1,3.46-1.23,7.29,7.29,0,0,1,3.83.49l2,.83a5.94,5.94,0,0,1,3.55,3.28A5.64,5.64,0,0,1,286.23,291.42Z" style="fill:#F1B104"></path><path d="M233.9,330a6.4,6.4,0,0,1-.61-.58c-.39-.38-.91-1-1.67-1.69a45.83,45.83,0,0,0-6.9-5.39,66.17,66.17,0,0,0-11.6-5.8c-4.55-1.81-9.7-3.4-15.14-4.95l-27.9-8-8.44-2.47-2.28-.69a4.51,4.51,0,0,1-.79-.28,4.19,4.19,0,0,1,.81.18l2.32.6,8.48,2.31,27.94,7.81a154.51,154.51,0,0,1,15.18,5,63.19,63.19,0,0,1,11.62,5.95,41.65,41.65,0,0,1,6.84,5.54c.75.73,1.24,1.37,1.61,1.77A6.42,6.42,0,0,1,233.9,330Z" style="fill:#fff"></path><path d="M242.45,340c-.12.09-.9-.82-2-1.77s-2.09-1.61-2-1.74a6.86,6.86,0,0,1,4,3.51Z" style="fill:#fff"></path><path d="M244.41,313.37a21.32,21.32,0,0,0-1.16,13.79,5.71,5.71,0,0,1-.72-2,16.21,16.21,0,0,1,.84-10A5.88,5.88,0,0,1,244.41,313.37Z" style="fill:#fff"></path><path d="M268.76,286.34c.13.07-.5,1.31-.63,3s.27,3,.12,3a5.51,5.51,0,0,1,.51-6Z" style="fill:#fff"></path></g><g id="freepik--Hamburger--inject-99"><path d="M324.75,226.7c.92-4.82-3.73-23.79-9.45-26.57-13.39-6.51-39.23,7.3-64.39,10.75-29.55,4.06-56.2,15.5-69,23.2-5.53,3.32-22.45,4.14-25.88,8a64.53,64.53,0,0,0,3.62,19.6s3.08,14.84,18.77,18.59c22.42,5.36,49.56,3.17,68.65-1.2C269,274,299,260.8,309.86,252S323.48,233.38,324.75,226.7Z" style="fill:#774037"></path><path d="M319.18,206.7c-5.9-17.87-36.89-20.15-72.79-15.22-29.55,4.06-56.2,15.5-69,23.2S157.31,231.45,156,242.07c0,0,2.17,15,17.87,18.79,22.42,5.36,50.4,4,69.49-.35,21.94-5,51.05-19.11,62-27.92S320.77,211.54,319.18,206.7Z" style="fill:#aa624f"></path><path d="M244.86,197.49c.65.29-4.28,12.54-11,27.34s-12.72,26.57-13.37,26.28,4.27-12.54,11-27.35S244.2,197.19,244.86,197.49Z" style="fill:#774037"></path><path d="M271.55,193.22c.65.3-4.12,12-10.66,26.11s-12.37,25.31-13,25,4.12-12,10.66-26.11S270.9,192.92,271.55,193.22Z" style="fill:#774037"></path><path d="M296.11,196c.65.25-2.38,9.54-7.49,20.43s-10.29,19.17-10.9,18.83,3.49-9.12,8.54-19.94S295.42,195.77,296.11,196Z" style="fill:#774037"></path><path d="M212.6,205.86c.66.24-2.72,11.37-8.37,24.54s-11.34,23.31-12,23,4-10.92,9.58-24S211.9,205.61,212.6,205.86Z" style="fill:#774037"></path><path d="M187,218c.64.35-2,6.36-5.33,13.73s-6.06,13.33-6.75,13.09,1-6.69,4.37-14.16S186.35,217.69,187,218Z" style="fill:#774037"></path><path d="M200.29,260.51a2.15,2.15,0,0,1-.53,0l-1.53-.06c-1.33-.06-3.25-.16-5.62-.37a73.67,73.67,0,0,1-8.28-1.17,42.24,42.24,0,0,1-9.74-3.19,28.81,28.81,0,0,1-8.28-6.06,23,23,0,0,1-4.58-7,17.31,17.31,0,0,1-1.29-5.49,9.91,9.91,0,0,1,0-1.54,2,2,0,0,1,0-.53c.06,0,0,.74.17,2a18.72,18.72,0,0,0,1.43,5.37,23.49,23.49,0,0,0,4.59,6.82,28.93,28.93,0,0,0,8.15,5.92,43.2,43.2,0,0,0,9.62,3.19,79.9,79.9,0,0,0,8.21,1.27c2.36.26,4.28.42,5.6.54l1.52.15A1.9,1.9,0,0,1,200.29,260.51Z" style="fill:#fff"></path><path d="M216,257.85a19.19,19.19,0,0,1-4.34,1.15,19.25,19.25,0,0,1-4.45.64,20,20,0,0,1,4.35-1.15A19.81,19.81,0,0,1,216,257.85Z" style="fill:#fff"></path><path d="M177.8,275.58a2.74,2.74,0,0,1-.92-.23,17.75,17.75,0,0,1-2.38-1,24.74,24.74,0,0,1-11.69-11.91,18.51,18.51,0,0,1-.91-2.4,3.74,3.74,0,0,1-.22-.92c.09,0,.5,1.25,1.46,3.16a27.06,27.06,0,0,0,11.52,11.74C176.56,275.07,177.83,275.49,177.8,275.58Z" style="fill:#fff"></path></g><g id="freepik--Tomato--inject-99"><path d="M181.75,127.44s-18.7-4.08-31.4,2.58c-8.08,4.24-12.26,14.9-14.12,26-3,18.12,8,45.7,55.14,64.78,50.51,20.45,74.56,6.84,82.88,1.53,7.26-4.63,18.55-17.72,17.87-39.39-.12-3.71-6.62-3.39-9-7.5C269.88,152.94,221.47,125.26,181.75,127.44Z" style="fill:#F1B104"></path><path d="M181.75,127.44s-18.7-4.08-31.4,2.58c-8.08,4.24-12.26,14.9-14.12,26-3,18.12,8,45.7,55.14,64.78,50.51,20.45,74.56,6.84,82.88,1.53,7.26-4.63,18.55-17.72,17.87-39.39-.12-3.71-6.62-3.39-9-7.5C269.88,152.94,221.47,125.26,181.75,127.44Z" style="opacity:0.30000000000000004"></path><path d="M185.14,117.51s-39.58,2.93-44.85,28.39c-3.73,18,7.33,45.94,54.47,65,50.51,20.44,80,2.11,84.26-1.18s22-19.28,7.46-44.18C273.27,143,224.85,115.34,185.14,117.51Z" style="fill:#F1B104"></path><path d="M185.14,117.51s-39.58,2.93-44.85,28.39c-3.73,18,7.33,45.94,54.47,65,50.51,20.44,80,2.11,84.26-1.18s22-19.28,7.46-44.18C273.27,143,224.85,115.34,185.14,117.51Z" style="fill:#fff;opacity:0.1"></path><g style="opacity:0.2"><path d="M274.11,167.39c-3.56-4.29-21.35-.7-28.06-1.93-1.59-.3-2.65-2.56-1.31-3.48,10.77-7.42,11.59-15.67,6-19.76-6.05-4.42-15.66-9.64-24.16-10.89-5-.72-12.37-1.62-16.16,1.64-2.53,2.17-2.83,12.6-2.53,16-.89-3-3.32-12.46-4.93-15.1-2.73-4.5-7.1-8.27-12.3-9-5.46-.81-10.86,1.73-15.46,4.79a65.62,65.62,0,0,0-19.44,20.06,18.06,18.06,0,0,0-2.71,7.59c-1.09,10.64,8.81,14.57,17.15,14.18,6.41-.29,17.63-5,24.05-4.83a2.58,2.58,0,0,1,1.5.36,1.84,1.84,0,0,1,.09,2.54c-.59.74-6.46,3.69-7.34,4-3.71,1.44-7.51,3-10,6.25a8.64,8.64,0,0,0-1.92,5.31c.05,5.09,4.83,7.74,9.08,9.72q10.31,4.8,20.7,9.41c8.26,3.68,16.79,7.32,25.82,7.81,3.19.17,6.8-.21,8.24-3.78a6.33,6.33,0,0,0,.42-2.76c-.19-3.21-2.13-5.77-4.22-8a17.14,17.14,0,0,1-3.35-5.55c-.64-1.87-.79-7.41,1-8.17,1.66-.69,4.67-.24,7,2.81,2.6,3.45,5.16,8.06,7.48,11.7,1.31,2,2.47,4.31,4.48,5.65,3.57,2.38,8.44,1,12.12-1.2a27.65,27.65,0,0,0,12.57-15.84A21.78,21.78,0,0,0,274.11,167.39Z" style="fill:#fff"></path></g><path d="M192.33,183.18a4.19,4.19,0,0,0-2.38,0,2.56,2.56,0,0,0-1.7,1.58,1.85,1.85,0,0,0,.71,2.11,2.87,2.87,0,0,0,2.3,0,14.77,14.77,0,0,0,2.34-.92,4,4,0,0,0,1-.59c.45-.39.5-.93,0-1.23A13,13,0,0,0,192.33,183.18Z" style="fill:#fff"></path><path d="M255.36,194.3a4.16,4.16,0,0,0-.36,2.35,2.54,2.54,0,0,0,1.34,1.9,1.86,1.86,0,0,0,2.19-.43,2.87,2.87,0,0,0,.33-2.27,14.49,14.49,0,0,0-.6-2.44,4.19,4.19,0,0,0-.46-1c-.33-.5-.86-.62-1.22-.15A12.77,12.77,0,0,0,255.36,194.3Z" style="fill:#fff"></path><path d="M197.12,191.93a4.31,4.31,0,0,0-1.21,1.91,2.39,2.39,0,0,0,.36,2.12,1.63,1.63,0,0,0,2,.42,2.88,2.88,0,0,0,1.16-1.85,14.55,14.55,0,0,0,.46-2.33,4.6,4.6,0,0,0,0-1.06c-.09-.55-.47-.85-1-.57A13.47,13.47,0,0,0,197.12,191.93Z" style="fill:#fff"></path><path d="M219.2,200.23a4.36,4.36,0,0,0,.64,2.17,2.41,2.41,0,0,0,1.84,1.12,1.63,1.63,0,0,0,1.61-1.22,2.89,2.89,0,0,0-.63-2.1,13.83,13.83,0,0,0-1.46-1.87,4.14,4.14,0,0,0-.77-.72c-.47-.29-1-.2-1.06.35A12.33,12.33,0,0,0,219.2,200.23Z" style="fill:#fff"></path><path d="M227.13,197.3a4.31,4.31,0,0,0,2,1,2.39,2.39,0,0,0,2.07-.59,1.62,1.62,0,0,0,.2-2,2.86,2.86,0,0,0-2-1,14.58,14.58,0,0,0-2.37-.2,3.87,3.87,0,0,0-1,.08c-.54.14-.79.56-.46,1A12.73,12.73,0,0,0,227.13,197.3Z" style="fill:#fff"></path><path d="M263.66,190.21a4.23,4.23,0,0,0,.64,2.17,2.39,2.39,0,0,0,1.84,1.12,1.62,1.62,0,0,0,1.61-1.22,2.88,2.88,0,0,0-.63-2.09,13.23,13.23,0,0,0-1.46-1.87,3.83,3.83,0,0,0-.77-.72c-.47-.3-.95-.2-1.06.35A12.23,12.23,0,0,0,263.66,190.21Z" style="fill:#fff"></path><path d="M268.86,184.16a4.24,4.24,0,0,0,2,1,2.41,2.41,0,0,0,2.07-.59,1.6,1.6,0,0,0,.2-2,2.84,2.84,0,0,0-2-1,14.49,14.49,0,0,0-2.37-.2,3.89,3.89,0,0,0-1.05.08c-.53.14-.79.56-.46,1A11.67,11.67,0,0,0,268.86,184.16Z" style="fill:#fff"></path><path d="M271.25,176a3.9,3.9,0,0,0,2.06.08,2.2,2.2,0,0,0,1.51-1.26,1.5,1.5,0,0,0-.58-1.75,2.65,2.65,0,0,0-2-.07,12.36,12.36,0,0,0-2,.72,3.18,3.18,0,0,0-.84.46c-.4.31-.45.75,0,1A11.3,11.3,0,0,0,271.25,176Z" style="fill:#fff"></path><path d="M248.3,149.7a3.52,3.52,0,0,0,1.66-.88,2,2,0,0,0,.61-1.68,1.35,1.35,0,0,0-1.26-1.12,2.37,2.37,0,0,0-1.6.86,12.17,12.17,0,0,0-1.29,1.5,3.19,3.19,0,0,0-.46.75c-.16.43,0,.8.46.8A10,10,0,0,0,248.3,149.7Z" style="fill:#fff"></path><path d="M190.81,132a3.56,3.56,0,0,0-.34-1.85,2,2,0,0,0-1.42-1.08,1.36,1.36,0,0,0-1.45.86,2.45,2.45,0,0,0,.34,1.79,12.06,12.06,0,0,0,1,1.68,3.47,3.47,0,0,0,.58.66c.36.29.77.25.91-.2A10.51,10.51,0,0,0,190.81,132Z" style="fill:#fff"></path><path d="M168.51,142.32a3.48,3.48,0,0,0-1.26-1.4,2,2,0,0,0-1.78-.19,1.34,1.34,0,0,0-.78,1.49,2.43,2.43,0,0,0,1.22,1.35,10.76,10.76,0,0,0,1.76.89,3.6,3.6,0,0,0,.84.27c.45.06.78-.18.67-.64A11.11,11.11,0,0,0,168.51,142.32Z" style="fill:#fff"></path><path d="M179.28,134.4a4,4,0,0,0-1.11-1.82,2.23,2.23,0,0,0-1.94-.58,1.53,1.53,0,0,0-1.18,1.5,2.68,2.68,0,0,0,1.08,1.75,13.09,13.09,0,0,0,1.78,1.36,3.63,3.63,0,0,0,.88.46c.49.16.91,0,.87-.57A11.42,11.42,0,0,0,179.28,134.4Z" style="fill:#fff"></path><path d="M160.28,154.26a4,4,0,0,0-2.12,0,2.23,2.23,0,0,0-1.53,1.33,1.5,1.5,0,0,0,.63,1.79,2.71,2.71,0,0,0,2.06,0,12.79,12.79,0,0,0,2.09-.78,3.48,3.48,0,0,0,.87-.49c.4-.33.45-.79,0-1.05A12.73,12.73,0,0,0,160.28,154.26Z" style="fill:#fff"></path><path d="M166.34,163.72a4,4,0,0,0-1.91,1,2.27,2.27,0,0,0-.73,1.89,1.53,1.53,0,0,0,1.4,1.29,2.72,2.72,0,0,0,1.83-.93,13.08,13.08,0,0,0,1.5-1.66,3.78,3.78,0,0,0,.53-.84c.2-.48,0-.91-.49-.92A12.6,12.6,0,0,0,166.34,163.72Z" style="fill:#fff"></path><path d="M242,144.17a4.13,4.13,0,0,0,1.47-1.61,2.29,2.29,0,0,0,0-2.07,1.56,1.56,0,0,0-1.8-.72,2.79,2.79,0,0,0-1.41,1.56,14.12,14.12,0,0,0-.81,2.13,3.77,3.77,0,0,0-.21,1c0,.53.31.88.82.69A11,11,0,0,0,242,144.17Z" style="fill:#fff"></path><path d="M222.72,137.2a4.19,4.19,0,0,0,.22-2.16,2.31,2.31,0,0,0-1.23-1.67,1.56,1.56,0,0,0-1.88.5,2.78,2.78,0,0,0-.2,2.09,13.78,13.78,0,0,0,.61,2.2,3.83,3.83,0,0,0,.44.92c.3.44.76.53,1.06.07A11.48,11.48,0,0,0,222.72,137.2Z" style="fill:#fff"></path><path d="M234,139.8a4.09,4.09,0,0,0,.7-2.05,2.3,2.3,0,0,0-.82-1.9,1.56,1.56,0,0,0-1.94.05,2.75,2.75,0,0,0-.67,2,13.39,13.39,0,0,0,.1,2.28,3.45,3.45,0,0,0,.21,1c.2.49.63.69,1,.31A11.88,11.88,0,0,0,234,139.8Z" style="fill:#fff"></path><path d="M208.08,195.38a4.22,4.22,0,0,0-1.21,1.91,2.4,2.4,0,0,0,.36,2.12,1.63,1.63,0,0,0,2,.42,2.88,2.88,0,0,0,1.16-1.85,13.43,13.43,0,0,0,.45-2.34,3.62,3.62,0,0,0,0-1c-.08-.55-.46-.85-.95-.57A12.87,12.87,0,0,0,208.08,195.38Z" style="fill:#fff"></path><g style="opacity:0.30000000000000004"><path d="M266.09,174.92a6.84,6.84,0,0,0-2.35-1.61c-7.34-3.45-15.75-3.76-23.46-6.27a2.66,2.66,0,0,1-1.38-.79c-.62-.82-.16-2,.32-2.92q2-3.86,4-7.71a6.73,6.73,0,0,0,1.09-3.89c-.23-1.62-1.59-2.83-2.92-3.79a36.58,36.58,0,0,0-19.71-6.8c-2.75-.12-5.77.18-7.76,2.09s-2.42,4.88-2.06,7.57c.32,2.4,1.06,5.22-.64,6.94-1.45,1.48-4.65,2.13-5.06-1.34a63.38,63.38,0,0,0-7.3-15.26,13.23,13.23,0,0,0-4.23-4.5c-2.19-1.24-4.88-1.26-7.38-.9a27.5,27.5,0,0,0-22.42,21.43,4.58,4.58,0,0,0,0,2.62,4.26,4.26,0,0,0,2.53,2.06c3.86,1.56,8.2,1.34,12.32.7s8.21-1.65,12.38-1.61,8.55,1.31,11.25,4.49a3.46,3.46,0,0,1,.75,1.28c.54,2-1.93,3.39-3.81,4.3a19.52,19.52,0,0,0-4.54,3A4,4,0,0,0,194.1,177a3.54,3.54,0,0,0,.94,2c2,2.36,4.65,5.51,7.37,6.95,6.2,3.3,11,3.72,18.74,4.58a27.07,27.07,0,0,0,5.17,0c2-.5,2.11-4.32,2.62-6.31s.87-4.21,2.41-5.57c1.88-1.66,4.87-1.36,7,0S242,182,243.48,184s3.26,4,5.61,4.81c3.67,1.34,7.7-.39,11.07-2.37,3-1.74,6.09-4,6.77-7.44A4.83,4.83,0,0,0,266.09,174.92Z" style="fill:#fff"></path></g><path d="M147.88,170.55a7.35,7.35,0,0,1-.86-1.1,11.59,11.59,0,0,1-.91-1.37c-.32-.56-.72-1.17-1.06-1.91a22,22,0,0,1-1.07-2.41,29.34,29.34,0,0,1-1-2.88,31.09,31.09,0,0,1-.73-13.79,28.38,28.38,0,0,1,.67-3,24,24,0,0,1,.81-2.51,20,20,0,0,1,.85-2,13.79,13.79,0,0,1,.75-1.46,6.71,6.71,0,0,1,.75-1.18c.1,0-.95,1.76-2,4.77a24.94,24.94,0,0,0-.75,2.5c-.26.91-.42,1.9-.61,2.93a35.8,35.8,0,0,0-.36,6.84,36.63,36.63,0,0,0,1.08,6.76,28.75,28.75,0,0,0,.92,2.84,24.35,24.35,0,0,0,1,2.41C146.76,168.9,148,170.49,147.88,170.55Z" style="fill:#fff"></path><path d="M153.55,130.74c.06.14-1.05.78-2.19,1.83s-1.9,2.1-2,2a4.81,4.81,0,0,1,1.68-2.4A4.92,4.92,0,0,1,153.55,130.74Z" style="fill:#fff"></path></g><g id="freepik--bread-1--inject-99"><path d="M347.39,111.22c-1.88-22.36-16.58-65.24-84.5-73.4-61.32-7.36-84.06,19.34-94.46,40.89-6.22,12.88.63,33.18,11.47,42.52,15,13,35.65,18.85,54.14,23.27,28.67,6.85,49.89,7.89,76.44,5.77,18.59-1.48,31-14.07,35.15-22.73C347.45,123.78,347.74,115.39,347.39,111.22Z" style="fill:#F1B104"></path><path d="M229.83,70.51a6.68,6.68,0,0,0-5.65,2.88c-1.33,1.8-.56,3.28.63,4s3-.17,3.91-1.6C230.64,72.64,229.83,70.51,229.83,70.51Z" style="opacity:0.30000000000000004"></path><path d="M197.93,71.64a6.69,6.69,0,0,0,6.33-.29c2-1.08,1.87-2.75,1.07-3.86s-2.82-1.1-4.22-.17C198.08,69.36,197.93,71.64,197.93,71.64Z" style="opacity:0.30000000000000004"></path><path d="M239.08,55.45a6.69,6.69,0,0,0-6.24-1.1c-2.15.63-2.43,2.28-1.88,3.54S233.47,59.57,235,59C238.44,57.64,239.08,55.45,239.08,55.45Z" style="opacity:0.30000000000000004"></path><path d="M260,72.65a6.69,6.69,0,0,0-3.52-5.27c-1.94-1.11-3.32-.18-3.86,1.08s.52,3,2,3.69C257.94,73.7,260,72.65,260,72.65Z" style="opacity:0.30000000000000004"></path><path d="M242.6,86.17a6.69,6.69,0,0,0-3.12,5.51c-.13,2.23,1.33,3,2.69,3s2.43-1.8,2.38-3.48C244.45,87.51,242.6,86.17,242.6,86.17Z" style="opacity:0.30000000000000004"></path><path d="M274,80.31a6.69,6.69,0,0,0-1.86,6c.36,2.21,2,2.7,3.27,2.31s2-2.29,1.57-3.92C276.11,81.21,274,80.31,274,80.31Z" style="opacity:0.30000000000000004"></path><path d="M305.21,102.25a6.66,6.66,0,0,0-3.78-5.08c-2-1-3.33,0-3.8,1.27s.67,3,2.23,3.58C303.24,103.4,305.21,102.25,305.21,102.25Z" style="opacity:0.30000000000000004"></path><path d="M317.63,88.92a6.68,6.68,0,0,0-.47-6.32c-1.14-1.93-2.8-1.8-3.89-1s-1,2.85,0,4.22C315.35,88.83,317.63,88.92,317.63,88.92Z" style="opacity:0.30000000000000004"></path><path d="M294.09,67.56a6.7,6.7,0,0,0,5.49,3.16c2.24.13,3.06-1.32,3-2.68s-1.79-2.44-3.47-2.4C295.44,65.72,294.09,67.56,294.09,67.56Z" style="opacity:0.30000000000000004"></path><path d="M259.45,54.09a6.73,6.73,0,0,0,5.5,3.16c2.23.13,3.06-1.32,3-2.68s-1.78-2.44-3.47-2.4C260.81,52.25,259.45,54.09,259.45,54.09Z" style="opacity:0.30000000000000004"></path><path d="M230.2,68.33a6.67,6.67,0,0,0-5.64,2.88c-1.33,1.8-.56,3.29.63,4s3-.17,3.9-1.6C231,70.47,230.2,68.33,230.2,68.33Z" style="fill:#fff"></path><path d="M198.31,69.46a6.69,6.69,0,0,0,6.33-.29c2-1.08,1.87-2.75,1.06-3.86s-2.81-1.1-4.21-.16C198.45,67.18,198.31,69.46,198.31,69.46Z" style="fill:#fff"></path><path d="M239.46,53.27a6.69,6.69,0,0,0-6.24-1.1c-2.15.64-2.43,2.28-1.89,3.54s2.52,1.68,4.08,1.07C238.82,55.46,239.46,53.27,239.46,53.27Z" style="fill:#fff"></path><path d="M260.35,70.47a6.7,6.7,0,0,0-3.52-5.27c-1.94-1.11-3.33-.18-3.86,1.08s.52,3,2,3.69C258.32,71.52,260.35,70.47,260.35,70.47Z" style="fill:#fff"></path><path d="M243,84a6.71,6.71,0,0,0-3.13,5.51c-.12,2.24,1.34,3.06,2.7,3s2.43-1.8,2.38-3.48C244.83,85.33,243,84,243,84Z" style="fill:#fff"></path><path d="M274.4,78.13a6.67,6.67,0,0,0-1.86,6.06c.36,2.2,2,2.69,3.27,2.3s2-2.28,1.57-3.91C276.49,79,274.4,78.13,274.4,78.13Z" style="fill:#fff"></path><path d="M305.59,100.07A6.71,6.71,0,0,0,301.81,95c-2-1-3.33,0-3.8,1.27s.67,2.95,2.23,3.59C303.62,101.22,305.59,100.07,305.59,100.07Z" style="fill:#fff"></path><path d="M318,86.74a6.68,6.68,0,0,0-.47-6.32c-1.14-1.93-2.81-1.8-3.89-1s-1,2.85,0,4.22C315.72,86.65,318,86.74,318,86.74Z" style="fill:#fff"></path><path d="M294.47,65.38A6.67,6.67,0,0,0,300,68.54c2.23.14,3.06-1.31,3-2.68s-1.79-2.44-3.47-2.4C295.82,63.54,294.47,65.38,294.47,65.38Z" style="fill:#fff"></path><path d="M259.83,51.91a6.68,6.68,0,0,0,5.5,3.16c2.23.14,3.06-1.31,3-2.68S266.51,50,264.83,50C261.18,50.07,259.83,51.91,259.83,51.91Z" style="fill:#fff"></path><path d="M289.5,151.71a1.38,1.38,0,0,1-.38,0H288c-1,0-2.45-.05-4.33-.14-3.75-.16-9.18-.47-15.86-1.16s-14.61-1.73-23.35-3.31c-4.37-.8-8.94-1.72-13.66-2.77s-9.6-2.15-14.5-3.68-9.61-3.26-14.07-5.12c-2.23-.93-4.42-1.88-6.49-3s-4-2.24-5.9-3.45a75.85,75.85,0,0,1-10-7.76,40.44,40.44,0,0,1-7.19-8.32A44.08,44.08,0,0,1,167,98.25a40.14,40.14,0,0,1-.8-5.78,2.41,2.41,0,0,1,.07.38c0,.27.09.64.16,1.11.15,1,.37,2.41.77,4.24A44.65,44.65,0,0,0,173,112.84a40.34,40.34,0,0,0,7.17,8.2,75.83,75.83,0,0,0,9.93,7.68c1.86,1.2,3.81,2.35,5.87,3.41s4.23,2,6.45,2.93c4.46,1.84,9.14,3.59,14,5.09s9.75,2.62,14.46,3.69,9.27,2,13.63,2.79c8.73,1.6,16.64,2.7,23.31,3.42s12.09,1.1,15.83,1.31l4.32.24,1.12.07A2.09,2.09,0,0,1,289.5,151.71Z" style="fill:#263238"></path><path d="M315.83,137.25a8.46,8.46,0,0,1-1.5.44c-1,.26-2.4.58-4.17.92a86.54,86.54,0,0,1-28.06.63c-1.78-.25-3.22-.51-4.2-.72a8.1,8.1,0,0,1-1.52-.38,9.54,9.54,0,0,1,1.55.18c1,.15,2.44.35,4.22.56a104.55,104.55,0,0,0,14,.67,103.56,103.56,0,0,0,14-1.3c1.77-.29,3.2-.55,4.18-.75A10.37,10.37,0,0,1,315.83,137.25Z" style="fill:#263238"></path><g style="opacity:0.30000000000000004"><path d="M216.69,81.72a2.72,2.72,0,1,1-.49,0"></path></g><g style="opacity:0.30000000000000004"><path d="M221.24,55.16a2.68,2.68,0,1,1-.49,0"></path></g><g style="opacity:0.30000000000000004"><path d="M320.8,96.09a4.46,4.46,0,1,1-.81,0"></path></g><g style="opacity:0.30000000000000004"><path d="M280.6,62a2.23,2.23,0,1,1-.4,0"></path></g><g style="opacity:0.30000000000000004"><path d="M222.52,90.61a1.06,1.06,0,0,0-.68,1.36.88.88,0,0,0,1.42.24c.37-.44-.17-1.66-.74-1.6"></path></g><path d="M207.55,46.7a2,2,0,0,1-.44.21l-1.3.53c-.57.21-1.27.49-2.05.85s-1.7.72-2.66,1.23-2,1-3.15,1.65-2.27,1.35-3.49,2.1A69.88,69.88,0,0,0,187,58.92a67.38,67.38,0,0,0-6.5,6.7c-.9,1.12-1.78,2.17-2.51,3.21s-1.42,2-2,2.93-1.09,1.76-1.54,2.49-.81,1.39-1.09,1.93-.49.9-.68,1.23a2.06,2.06,0,0,1-.26.41,1.53,1.53,0,0,1,.17-.45c.16-.35.36-.77.59-1.28s.59-1.23,1-2,.88-1.64,1.48-2.55,1.22-1.94,2-3,1.59-2.13,2.49-3.27a59.18,59.18,0,0,1,14-12.44c1.24-.75,2.4-1.49,3.54-2.07s2.21-1.15,3.2-1.61,1.91-.83,2.71-1.17,1.5-.58,2.09-.77l1.33-.44A1.55,1.55,0,0,1,207.55,46.7Z" style="fill:#fff"></path><path d="M218.11,44a7.94,7.94,0,0,1-2.66,1,7.72,7.72,0,0,1-2.8.48,7.72,7.72,0,0,1,2.66-1A8.27,8.27,0,0,1,218.11,44Z" style="fill:#fff"></path></g><g id="freepik--Shadows--inject-99"><path d="M244.46,147.1c-4.37-.8-8.94-1.72-13.66-2.77s-9.6-2.15-14.5-3.68-9.61-3.26-14.07-5.12c-2.23-.93-4.42-1.88-6.49-3s-4-2.24-5.9-3.45a75.85,75.85,0,0,1-10-7.76c-.95-.88-1.86-1.77-2.72-2.67-1.79.36-3.78.8-5.9,1.38.78,7.75,5.48,14.73,11.5,19.69s13.46,8.24,20.86,11a232.77,232.77,0,0,0,32.06,9.44c14.9,3.25,31.46,4.76,44.55-3a84.83,84.83,0,0,0-6.39-6.28c-1.88-.15-3.88-.32-6-.55C261.13,149.74,253.2,148.68,244.46,147.1Z" style="opacity:0.3"></path><path d="M189.57,282.26l.31,1.87a89.91,89.91,0,0,0,61,7.83,90.94,90.94,0,0,0,52-33.5l-1.44-.91c-13.93,8.09-36.79,17.45-54.46,21.51C231.05,282.73,209.38,284.84,189.57,282.26Z" style="opacity:0.3"></path><path d="M327,376.25c-4.5.71-8.39-3.48-12.93-3.81-2-.15-3.94.46-5.92.41s-4.22-1.1-4.55-3.06c-.51,2.42-3.39,3.7-5.83,3.32s-4.49-1.95-6.44-3.46a14.55,14.55,0,0,1-22.78,18c-.66,2.4-3.47,3.68-6,3.46s-4.71-1.55-6.84-2.86c-1.32,3.23-3.16,6.92-6.6,7.52a13.27,13.27,0,0,0-3.22.49c-1.68.76-2.21,2.81-2.91,4.52a12.22,12.22,0,0,1-9.22,7.51,9.77,9.77,0,0,1-10.21-5.45,6.29,6.29,0,0,1-12.35.35c-2.87,2.34-7.24.61-10-1.8a25.13,25.13,0,0,1-5.12-6.09,22,22,0,0,0,21.07,21.79,17.61,17.61,0,0,0,22,5.94c3.08-1.58,5.74-4.11,9.12-4.85s7.32.34,10-1.81c1.69-1.35,2.34-3.58,3.4-5.47a12.82,12.82,0,0,1,6.86-5.73c6.64-2.32,15,.85,20.45-3.6a12.81,12.81,0,0,0,19.1-13.17,11.5,11.5,0,0,0,13.27-4.81c4.79.54,9.74,1.06,14.34-.39s8.77-5.41,8.86-10.23c.06-3.61-2.09-6.79-4.82-9.27a40.6,40.6,0,0,1-6.06,7.92C331.84,373.65,329.74,375.82,327,376.25Z" style="opacity:0.3"></path></g></svg>