<svg xmlns="http://www.w3.org/2000/svg" viewBox="0 0 500 500"><g id="freepik--background-simple--inject-173"><path d="M190.77,171.1c66.3,13.3,176.7-127,225-33.34,39.44,76.4-63.23,137.62-138.85,133.51-76.86-4.18-159.16,95-204.6.25-13.9-29-16.74-73.71,11.81-102.66C129.6,122.79,150.35,163,190.77,171.1Z" style="fill:#F1B104"></path><path d="M190.77,171.1c66.3,13.3,176.7-127,225-33.34,39.44,76.4-63.23,137.62-138.85,133.51-76.86-4.18-159.16,95-204.6.25-13.9-29-16.74-73.71,11.81-102.66C129.6,122.79,150.35,163,190.77,171.1Z" style="fill:#fff;opacity:0.9"></path></g><g id="freepik--Shadow--inject-173"><ellipse id="freepik--path--inject-173" cx="250" cy="416.24" rx="193.89" ry="11.32" style="fill:#f5f5f5"></ellipse></g><g id="freepik--Character--inject-173"><path d="M385.55,118.8c-.25-3.69-7.84-7.28-15.33-4-9.24,4-5.92,13.74-15.48,16.74s-12,7.13-12.16,13.53-7.39,13.17-15.39,13.06c-.52,10.11,5.64,25.78,36,26.11s26.79-15.74,28.15-25.37c1.54-10.85,10.92-9.93,5.89-20.52C394.05,131.68,401,115.72,385.55,118.8Z" style="fill:#263238"></path><path d="M401.26,172.38l.39.57.49.67c.33.45.68.9,1,1.34.72.88,1.49,1.73,2.29,2.53a29.76,29.76,0,0,0,5.17,4.22,19.14,19.14,0,0,0,12,3.07c.73-.06.56,0,.65,0s.1,0,.23-.11a4.24,4.24,0,0,0,1-1.79,25,25,0,0,0,1-6.62c.1-2.42,0-4.93-.13-7.45s-.4-5.09-.68-7.56l4.53-1.09a70.39,70.39,0,0,1,3.4,15.92,29.63,29.63,0,0,1-.46,8.9,12.41,12.41,0,0,1-2.44,5.16,8.9,8.9,0,0,1-2.85,2.24,10.12,10.12,0,0,1-3.13.9,26.67,26.67,0,0,1-17.92-3.58,35.85,35.85,0,0,1-7.06-5.46,43.52,43.52,0,0,1-2.95-3.27c-.45-.57-.91-1.15-1.34-1.75l-.64-.93c-.22-.34-.39-.6-.67-1.07Z" style="fill:#7f3e3b"></path><path d="M393.2,166.28c8.36,1,12.37,9.78,12.37,9.78L394,187.55s-4.29-4.33-5.56-9.29C387.15,173.1,387.53,165.59,393.2,166.28Z" style="fill:#F1B104"></path><path d="M426.11,163l-6.85-4.17,8.8-4.15s2.73,3.65,1.73,7.32Z" style="fill:#7f3e3b"></path><polygon points="415.98 151.59 423.08 149.7 428.06 154.7 419.26 158.85 415.98 151.59" style="fill:#7f3e3b"></polygon><path d="M399.23,171.92c-.61,5.14-3.8,17.92-16.49,49.45l-36.59-9.47c3.91-14.62,6-23.15,5.63-55.19a111.06,111.06,0,0,1,16,1.75,120.1,120.1,0,0,1,16.6,4c4.56,1.56,9.45,3.64,12.28,4.9A4.38,4.38,0,0,1,399.23,171.92Z" style="fill:#F1B104"></path><path d="M368.73,157.73a29,29,0,0,0-7.46-.84c-.39,3.12-.57,10.44.64,12.81,4.19,2.77,6.71,3.09,6.71,3.09l-4.54,2.38s4.76,8.9,14.94,7.05c1.47-7-1.12-16-1.12-16Z" style="fill:#fff"></path><path d="M382.26,162.39s1-1,6,1.1c2.09,1.72,5.13,7.59,3.92,10a9.57,9.57,0,0,1-5.34,1.25l3.46,3.42s-4.48,6.65-11.26,4.09c-1.47-7,2-16,2-16Z" style="fill:#fff"></path><path d="M373.53,140.3c-.13,5.56-1.25,15.53-5.78,18.16,0,0-2.52,7.21,11.27,23.76,13.56-12.72,5.33-19.72,5.33-19.72-5.64-2.86-4.51-7.21-2.56-11.08Z" style="fill:#7f3e3b"></path><path d="M374.43,141.51a22.69,22.69,0,0,0,.19,9.64c.53,2.19,3,3.72,5.66,4.58a14.33,14.33,0,0,1,1.51-4.31Z" style="opacity:0.2"></path><path d="M365.54,134.05c2.14,8.92,2.86,12.74,8.21,16.67,8.06,5.9,18.51,1.57,19.07-7.75.5-8.39-3.08-21.57-12.52-23.8A12.17,12.17,0,0,0,365.54,134.05Z" style="fill:#7f3e3b"></path><path d="M385,119.72c2.69,8-10.38,3.92-11.21,11.8s-5.44,8.83-13.22,9.68c-1.67-8.53,3.6-19.2,7.05-21.48S378.94,112.83,385,119.72Z" style="fill:#263238"></path><path d="M363.58,141.58a6.92,6.92,0,0,0,3.94,3.32c2.26.71,3.43-1.25,2.84-3.39-.52-1.92-2.33-4.62-4.62-4.4S362.58,139.65,363.58,141.58Z" style="fill:#7f3e3b"></path><path d="M384.71,120.37c-1.08,1-1.59,4.29,4.81,5.13S384.71,120.37,384.71,120.37Z" style="fill:#263238"></path><path d="M381.54,221.08l-28-7.32s5.26,71.48,9.26,98.74C354.64,348,349.31,407,349.31,407h6.61S373,346.87,381,316.38a38.32,38.32,0,0,0,1.16-7C384.54,274.51,381.54,221.08,381.54,221.08Z" style="fill:#7f3e3b"></path><path d="M356.57,404.63h-7.63a.92.92,0,0,0-.88.66l-2.61,8.64a1.32,1.32,0,0,0,1.29,1.73c3.81-.07,2.39-.29,7.19-.29,3,0,10.59.31,14.67.31s4.93-4,3.29-4.4c-7.36-1.64-11.57-3.9-13.79-6.06A2.17,2.17,0,0,0,356.57,404.63Z" style="fill:#263238"></path><path d="M361.36,406.43a3.69,3.69,0,0,0,2.15-.51,1.41,1.41,0,0,0,.58-1.05.58.58,0,0,0-.26-.59c-1-.68-4.73,1-5.48,1.36a.22.22,0,0,0-.13.22.21.21,0,0,0,.16.19A14.22,14.22,0,0,0,361.36,406.43Zm1.79-1.89a.72.72,0,0,1,.43.1.2.2,0,0,1,.08.2,1,1,0,0,1-.41.73c-.65.48-2.16.55-4.11.19A13.78,13.78,0,0,1,363.15,404.54Z" style="fill:#F1B104"></path><path d="M358.43,406.05h.08c1.25-.51,3.79-2.5,3.68-3.53,0-.23-.17-.51-.73-.58-2.15-.26-3.19,3.69-3.23,3.86a.2.2,0,0,0,.06.21A.19.19,0,0,0,358.43,406.05Zm2.82-3.69h.14c.23,0,.35.09.37.2.06.6-1.7,2.17-3,2.86C359.1,404.48,359.94,402.36,361.25,402.36Z" style="fill:#F1B104"></path><path d="M372.65,218.76s-14.54,54.46-25.81,78.79a37.61,37.61,0,0,1-8.48,11.74c-22.21,20.74-63,60-63,60l-3.87-4.69s35.85-50,54.71-68.95c7.35-28.38,8.53-67.33,21.75-83.36Z" style="fill:#7f3e3b"></path><path d="M345.74,211.78c-3.78,1.44-9.22,11.44-10.66,17.66s-1.84,27.89-14.45,42.67c0,0,2.33,6.79,19.22,6.33,13.39-.36,22.56,1.81,32.17,6.89,7.65,4.05,17.83-.77,17.83-.77s-8.23-46-7.11-63.19C376.3,219.56,345.74,211.78,345.74,211.78Z" style="fill:#263238"></path><polygon points="359.38 263.4 359.95 238.41 363.16 243.93 359.38 263.4" style="opacity:0.4"></polygon><path d="M276.33,369.07l-4.19-5.51a.74.74,0,0,0-.95-.21l-7.16,4a1.46,1.46,0,0,0-.38,2.16c2.28,2.85,1.31,1.35,4.12,5,1.73,2.24,5.23,7.44,7.62,10.53s5.52,1,4.8-.53c-3.24-6.7-3.46-10.65-3.36-13.82A2.44,2.44,0,0,0,276.33,369.07Z" style="fill:#263238"></path><path d="M279.34,373.49a2.61,2.61,0,0,0,.27-.22.77.77,0,0,0,.21-.72c-.28-1.15-3.43-2.3-3.79-2.43a.2.2,0,0,0-.23.06.2.2,0,0,0,0,.23c.51,1.13,1.55,3,2.7,3.26A1.13,1.13,0,0,0,279.34,373.49Zm-2.95-2.77c1.25.5,2.86,1.32,3,1.93a.31.31,0,0,1-.11.31.81.81,0,0,1-.75.28C277.92,373.13,277.13,372.19,276.39,370.72Z" style="fill:#F1B104"></path><path d="M279.9,370.46a.85.85,0,0,0,.2-.17.76.76,0,0,0,0-1,1.21,1.21,0,0,0-.8-.57c-1.32-.26-3.41,1.31-3.5,1.38a.22.22,0,0,0-.08.2.24.24,0,0,0,.13.18C276.74,370.9,279,371.05,279.9,370.46Zm-3.4-.24a4.83,4.83,0,0,1,2.75-1,.72.72,0,0,1,.5.36c.15.24.09.36,0,.44-.42.48-2.24.54-3.33.26Z" style="fill:#F1B104"></path><path d="M346.12,210.21l-2.37,2.84c-.18.22.06.55.48.66L382.56,223c.33.08.63,0,.7-.21l1.05-3.17c.08-.22-.17-.48-.53-.57l-37-9A.65.65,0,0,0,346.12,210.21Z" style="fill:#fff"></path><path d="M350.18,215.53l-1-.25c-.19,0-.32-.18-.28-.3l1.41-4.11c0-.12.23-.18.43-.13l1,.24c.2.05.33.19.28.31l-1.4,4.1C350.57,215.51,350.37,215.57,350.18,215.53Z" style="fill:#263238"></path><path d="M379.69,222.72l-1-.25c-.2,0-.32-.18-.28-.3l1.4-4.11c0-.12.24-.18.44-.13l1,.24c.19.05.32.19.28.31l-1.4,4.1C380.08,222.71,379.89,222.76,379.69,222.72Z" style="fill:#263238"></path><path d="M364.93,219.12l-1-.24c-.19,0-.32-.19-.28-.31l1.4-4.1c0-.12.24-.18.44-.13l1,.24c.2,0,.32.18.28.3l-1.4,4.11C365.33,219.11,365.13,219.17,364.93,219.12Z" style="fill:#263238"></path><path d="M379.62,134.47c.13.73.62,1.27,1.1,1.2s.76-.73.63-1.46-.62-1.27-1.1-1.2S379.49,133.74,379.62,134.47Z" style="fill:#263238"></path><ellipse cx="388.76" cy="133.07" rx="0.88" ry="1.35" transform="translate(-18.18 76.15) rotate(-10.93)" style="fill:#263238"></ellipse><path d="M388.32,131.81,390,131S389.33,132.55,388.32,131.81Z" style="fill:#263238"></path><path d="M385.93,134.8a20.79,20.79,0,0,0,3.43,4.28,3.15,3.15,0,0,1-2.52.89Z" style="fill:#630f0f"></path><path d="M384.85,143.22a.22.22,0,0,0,.1-.21.23.23,0,0,0-.25-.19,6,6,0,0,1-5.13-1.54.22.22,0,1,0-.32.29,6.36,6.36,0,0,0,5.52,1.68A.11.11,0,0,0,384.85,143.22Z" style="fill:#263238"></path><path d="M376,131.15a.33.33,0,0,0,.15-.16,3.38,3.38,0,0,1,2.5-1.86.42.42,0,0,0,.39-.47.45.45,0,0,0-.48-.4,4.23,4.23,0,0,0-3.18,2.32.44.44,0,0,0,.62.57Z" style="fill:#263238"></path><path d="M391.13,128.74a.18.18,0,0,0,.07-.05.43.43,0,0,0,0-.61,4.45,4.45,0,0,0-3.74-1.47.42.42,0,0,0-.34.5.44.44,0,0,0,.5.36,3.55,3.55,0,0,1,2.95,1.2A.44.44,0,0,0,391.13,128.74Z" style="fill:#263238"></path><path d="M356.06,167.65c-1.25,1.47-2.39,2.68-3.64,3.94s-2.5,2.45-3.79,3.62a84,84,0,0,1-8.29,6.55c-1.47,1-3,2-4.53,2.88s-3.2,1.71-4.89,2.46a41.27,41.27,0,0,1-5.28,1.89c-.92.25-1.85.47-2.81.64-.47.11-1,.16-1.44.23l-.73.1-.88.07a19.42,19.42,0,0,1-6.26-.83,36.53,36.53,0,0,1-5.24-2,66.79,66.79,0,0,1-9.12-5.32,117.37,117.37,0,0,1-15.77-13.08l3.06-3.51c2.62,1.88,5.35,3.78,8.09,5.54s5.51,3.51,8.33,5.06a69.56,69.56,0,0,0,8.51,4.09,29.06,29.06,0,0,0,4.19,1.3,11.7,11.7,0,0,0,3.63.31l.36-.05.51-.1c.34-.07.68-.12,1-.22.67-.16,1.35-.36,2-.58a39,39,0,0,0,4.06-1.67,57.29,57.29,0,0,0,7.8-4.78,85.81,85.81,0,0,0,7.28-6c1.17-1.06,2.32-2.16,3.44-3.28s2.25-2.31,3.2-3.36Z" style="fill:#7f3e3b"></path><path d="M285.6,170.21l-5.78-3.39,5.94-5.46s3.62,3.51,3.25,7.35Z" style="fill:#7f3e3b"></path><polygon points="275.02 162.71 279.32 158.1 285.76 161.37 279.82 166.82 275.02 162.71" style="fill:#7f3e3b"></polygon><path d="M351.78,156.71c-3.9.21-9.2,7.25-9.2,7.25l10.17,12.5s5.94-3.89,5.45-9C357.68,162.21,356.24,156.46,351.78,156.71Z" style="fill:#F1B104"></path><path d="M380,133.08l1.67-.77S381.05,133.82,380,133.08Z" style="fill:#263238"></path></g><g id="freepik--fresh-drink--inject-173"><path d="M120.2,105.63l-.39-.92A74.07,74.07,0,0,1,148.45,99v1A73,73,0,0,0,120.2,105.63Z" style="fill:#F1B104"></path><path d="M108.86,111.57l-.54-.84c2.11-1.35,4.31-2.61,6.56-3.75l.45.89C113.12,109,110.94,110.24,108.86,111.57Z" style="fill:#F1B104"></path><path d="M192.54,117.91a2.91,2.91,0,0,1,.38,4.16l-2.61,3-83.79,96.44-2.61,3a2.89,2.89,0,0,1-4.17.21,70.81,70.81,0,0,1,92.8-106.81Z" style="fill:#F1B104"></path><path d="M190.31,125.07l-83.79,96.44a63.88,63.88,0,0,1,83.79-96.44Z" style="fill:#fff"></path><path d="M102.46,133.36a60.87,60.87,0,0,0,6,85.89l79.86-91.92A60.89,60.89,0,0,0,102.46,133.36Z" style="fill:#F1B104;opacity:0.1"></path><path d="M109.88,208.21a51.44,51.44,0,0,1-12.54-25.13,2.38,2.38,0,0,1,2.16-2.82l35-2.45a2.36,2.36,0,0,1,2,3.9l-23,26.47A2.37,2.37,0,0,1,109.88,208.21Z" style="fill:#F1B104;opacity:0.30000000000000004"></path><path d="M151,121.35a51.43,51.43,0,0,1,26.63,8.9,2.38,2.38,0,0,1,.47,3.52l-23,26.47a2.36,2.36,0,0,1-4.14-1.38l-2.46-35A2.38,2.38,0,0,1,151,121.35Z" style="fill:#F1B104;opacity:0.30000000000000004"></path><path d="M96.47,170.73a51.53,51.53,0,0,1,8.91-26.63,2.37,2.37,0,0,1,3.52-.47l26.47,23a2.36,2.36,0,0,1-1.38,4.14l-35,2.45A2.39,2.39,0,0,1,96.47,170.73Z" style="fill:#F1B104;opacity:0.30000000000000004"></path><path d="M113.5,134.75a51.44,51.44,0,0,1,25.12-12.53,2.37,2.37,0,0,1,2.83,2.15l2.45,35a2.36,2.36,0,0,1-3.9,1.94l-26.48-23A2.37,2.37,0,0,1,113.5,134.75Z" style="fill:#F1B104;opacity:0.30000000000000004"></path><path d="M213.54,116.53,241.9,366.8l7.66-.86L221.41,117.59a5.74,5.74,0,0,1,8.1-5.86l64.08,29.44,3.22-7L231,103.92A12.35,12.35,0,0,0,213.54,116.53Z" style="fill:#F1B104"></path><path d="M213.54,116.53,241.9,366.8l7.66-.86L221.41,117.59a5.74,5.74,0,0,1,8.1-5.86l64.08,29.44,3.22-7L231,103.92A12.35,12.35,0,0,0,213.54,116.53Z" style="fill:#fff;opacity:0.4"></path><path d="M275,145.78,122,156.52a4.9,4.9,0,0,0-4.52,5.49l31.23,250a4.89,4.89,0,0,0,5.19,4.28l125.76-8.83a4.9,4.9,0,0,0,4.55-5l-4-251.87A4.89,4.89,0,0,0,275,145.78Z" style="fill:#F1B104;opacity:0.30000000000000004"></path><path d="M264.25,187.11a8.3,8.3,0,0,1,8.67,8.18L275.75,373a15.38,15.38,0,0,1-14.31,15.6l-92.1,6.47A15.39,15.39,0,0,1,153,381.65L131.21,207.21a8.31,8.31,0,0,1,7.79-9.34c.57,0,1.16-.06,1.78-.11,12.14-.85,12-2.84,24.14-3.7s12.28,1.15,24.42.29,12-2.84,24.14-3.7,12.28,1.15,24.42.3,12-2.85,24.13-3.7C262.81,187.19,263.55,187.15,264.25,187.11Z" style="fill:#F1B104;opacity:0.4"></path><rect x="153.12" y="223.86" width="37.37" height="37.37" rx="5.56" transform="translate(-123.97 213.17) rotate(-49.02)" style="fill:#fff;opacity:0.2"></rect><rect x="199.81" y="210.11" width="37.37" height="37.37" rx="5.56" transform="matrix(-0.62, -0.78, 0.78, -0.62, 175.68, 542.25)" style="fill:#fff;opacity:0.2"></rect><rect x="215.35" y="298.57" width="37.37" height="37.37" rx="5.56" transform="translate(-148.24 413.64) rotate(-67.74)" style="fill:#fff;opacity:0.2"></rect><rect x="164.03" y="277.56" width="37.37" height="37.37" rx="5.56" transform="translate(-160.67 353.1) rotate(-67.74)" style="fill:#fff;opacity:0.2"></rect><rect x="170.84" y="334.89" width="37.37" height="37.37" rx="5.56" transform="translate(79.47 -32.2) rotate(12.27)" style="fill:#fff;opacity:0.2"></rect></g></svg>