<svg height="512" viewBox="0 0 512 512" width="512" xmlns="http://www.w3.org/2000/svg"><g><g><path d="m64 128h432v368h-432z" fill="#ffda44"/><path d="m400 128h96v368h-96z" fill="#cca400"/><circle cx="144" cy="200" fill="#57565c" r="24"/><circle cx="304" cy="200" fill="#57565c" r="24"/><circle cx="96" cy="368" fill="#e0e0e2" r="80"/><path d="m48 352h96v32h-96z" fill="#d80027"/></g><g><path d="m496 120h-64v-24a87.951 87.951 0 0 0 -148-64.31 87.951 87.951 0 0 0 -148 64.31v24h-72a8 8 0 0 0 -8 8v161.63a87.978 87.978 0 0 0 0 156.74v49.63a8 8 0 0 0 8 8h432a8 8 0 0 0 8-8v-368a8 8 0 0 0 -8-8zm-200-24v24h-24v-24a71.611 71.611 0 0 1 12-39.74 71.611 71.611 0 0 1 12 39.74zm8 112a8 8 0 0 0 8-8v-13.83a16 16 0 1 1 -16 0v13.83a8 8 0 0 0 8 8zm-152-112a71.95 71.95 0 0 1 121.33-52.38 87.583 87.583 0 0 0 -17.33 52.38v24h-104zm-8 112a8 8 0 0 0 8-8v-13.83a16 16 0 1 1 -16 0v13.83a8 8 0 0 0 8 8zm-120 160a72 72 0 1 1 72 72 72.083 72.083 0 0 1 -72-72zm368 120h-320v-35.33a88 88 0 1 0 0-169.34v-147.33h64v33.01a32 32 0 1 0 16 0v-33.01h144v33.01a32 32 0 1 0 16 0v-33.01h80zm-80-368v-24a87.583 87.583 0 0 0 -17.33-52.38 71.95 71.95 0 0 1 121.33 52.38v24zm176 368h-80v-352h80z"/><path d="m448 432a8 8 0 0 0 8-8v-272a8 8 0 0 0 -16 0v272a8 8 0 0 0 8 8z"/><path d="m448 472a8 8 0 0 0 8-8v-16a8 8 0 0 0 -16 0v16a8 8 0 0 0 8 8z"/><path d="m152 384v-32a8 8 0 0 0 -8-8h-96a8 8 0 0 0 -8 8v32a8 8 0 0 0 8 8h96a8 8 0 0 0 8-8zm-16-8h-80v-16h80z"/></g></g></svg>