<?xml version="1.0"?>
<svg xmlns="http://www.w3.org/2000/svg" xmlns:xlink="http://www.w3.org/1999/xlink" xmlns:svgjs="http://svgjs.com/svgjs" version="1.1" width="512" height="512" x="0" y="0" viewBox="0 0 32 32" style="enable-background:new 0 0 512 512" xml:space="preserve" class=""><g><g xmlns="http://www.w3.org/2000/svg"><path d="m26 32h-20c-3.314 0-6-2.686-6-6v-20c0-3.314 2.686-6 6-6h20c3.314 0 6 2.686 6 6v20c0 3.314-2.686 6-6 6z" fill="#ffffff" data-original="#ffe6e2" style="" class=""/></g><path xmlns="http://www.w3.org/2000/svg" d="m20.727 21.333h-5.996c-.865 0-1.632-.567-1.865-1.38l-2.027-6.867c-.072-.249-.311-.42-.585-.42h-1.587c-.369.001-.667-.298-.667-.666s.298-.667.667-.667h1.588c.865 0 1.631.567 1.865 1.38l.379 1.287h10.197c.416 0 .811.198 1.055.53.243.329.313.742.192 1.131l-1.375 4.365c-.27.788-1.008 1.307-1.841 1.307zm1.969-6h.007z" fill="#f1b104" data-original="#fc573b" style="" class=""/><g xmlns="http://www.w3.org/2000/svg" fill="#fd907e"><path d="m15.333 24.667c-.735 0-1.333-.598-1.333-1.333s.598-1.334 1.333-1.334 1.333.598 1.333 1.333-.598 1.334-1.333 1.334z" fill="#080808" data-original="#fd907e" style="" class=""/><path d="m20 24.667c-.735 0-1.333-.598-1.333-1.333s.598-1.334 1.333-1.334 1.333.598 1.333 1.333-.598 1.334-1.333 1.334z" fill="#080808" data-original="#fd907e" style="" class=""/></g></g></svg>
