<?xml version="1.0" encoding="iso-8859-1"?>
<!-- Generator: Adobe Illustrator 19.0.0, SVG Export Plug-In . SVG Version: 6.00 Build 0)  -->
<svg version="1.1" id="Capa_1" xmlns="http://www.w3.org/2000/svg" xmlns:xlink="http://www.w3.org/1999/xlink" x="0px" y="0px"
	 viewBox="0 0 512 512" style="enable-background:new 0 0 512 512;" xml:space="preserve" width="25px" heigth="25px" fill="#FFFFFF">
<g>
	<g>
		<g>
			<path d="M256.001,274c-49.625,0-89.998,40.374-89.998,90c0,49.626,40.373,90,89.998,90s89.998-40.374,89.998-90
				C345.999,314.374,305.626,274,256.001,274z M256.001,414c-27.57,0-49.999-22.43-49.999-50s22.429-50,49.999-50
				S306,336.43,306,364S283.571,414,256.001,414z"/>
			<path d="M509.849,316.626c-22.058-43.689-57.014-80.7-101.112-107.081l54.137-54.138c7.81-7.81,7.81-20.473,0.001-28.284
				c-7.811-7.81-20.473-7.81-28.285,0l-63.511,63.513c-29.934-12.389-62.064-19.841-95.079-21.986V78c0-11.046-8.954-20-20-20
				c-11.046,0-20,8.954-20,20v90.649c-33.015,2.145-65.145,9.597-95.079,21.986L77.41,127.122c-7.811-7.811-20.475-7.811-28.285,0
				c-7.809,7.81-7.809,20.473,0.001,28.284l54.137,54.138C59.165,235.925,24.209,272.936,2.151,316.625
				c-4.978,9.861-1.02,21.889,8.84,26.868c9.857,4.979,21.89,1.022,26.867-8.839C74.956,261.177,157.63,208,256.001,208
				c98.445,0,181.077,53.241,218.142,126.655c4.987,9.877,17.022,13.81,26.867,8.839
				C510.871,338.515,514.829,326.486,509.849,316.626z"/>
		</g>
	</g>
</g>
<g>
</g>
<g>
</g>
<g>
</g>
<g>
</g>
<g>
</g>
<g>
</g>
<g>
</g>
<g>
</g>
<g>
</g>
<g>
</g>
<g>
</g>
<g>
</g>
<g>
</g>
<g>
</g>
<g>
</g>
</svg>
