<?xml version="1.0"?>
<svg xmlns="http://www.w3.org/2000/svg" xmlns:xlink="http://www.w3.org/1999/xlink" xmlns:svgjs="http://svgjs.com/svgjs" version="1.1" width="512" height="512" x="0" y="0" viewBox="0 0 512 512" style="enable-background:new 0 0 512 512" xml:space="preserve" class=""><g><g xmlns="http://www.w3.org/2000/svg"><g><path d="m196.762 501.746-22.559-68.705c-10.43-4.863-20.596-10.811-30.381-17.739l-70.137 14.355c-6.475 1.245-12.803-1.611-15.996-7.192l-45-77.93c-3.252-5.596-2.52-12.612 1.758-17.446l47.461-53.569c-1.197-12.384-1.22-22.421 0-35.039l-47.461-53.569c-4.277-4.834-5.01-11.851-1.758-17.446l45-77.93c3.193-5.581 9.521-8.525 15.996-7.192l70.137 14.355c9.785-6.929 19.951-12.861 30.352-17.71l22.588-68.734c2.051-6.124 7.793-10.255 14.238-10.255h90c6.445 0 12.188 4.131 14.238 10.254l22.588 68.734c10.4 4.849 20.566 10.781 30.352 17.71l70.137-14.355c6.445-1.333 12.803 1.611 15.996 7.192l45 77.93c3.252 5.596 2.52 12.612-1.758 17.446l-47.461 53.569c1.197 12.384 1.22 22.421 0 35.039l47.461 53.569c4.277 4.834 5.01 11.851 1.758 17.446l-45 77.93c-3.193 5.581-9.551 8.438-15.996 7.192l-70.137-14.355c-9.814 6.943-19.98 12.891-30.439 17.754l-22.5 68.676z" fill="#f1b104" data-original="#4086f4" style="" class=""/></g><g><g><g><path d="m499.311 167.465-45-77.93c-3.193-5.581-9.551-8.525-15.996-7.192l-70.137 14.355c-9.785-6.929-19.951-12.861-30.352-17.71l-22.588-68.734c-2.05-6.123-7.793-10.254-14.238-10.254h-45v501.739l59.238-.007 22.5-68.676c10.459-4.863 20.625-10.811 30.439-17.754l70.137 14.355c6.445 1.245 12.803-1.611 15.996-7.192l45-77.93c3.252-5.596 2.52-12.612-1.758-17.446l-47.461-53.569c1.219-12.618 1.198-22.656 0-35.039l47.461-53.569c4.278-4.835 5.011-11.851 1.759-17.447z" fill="#e92438" data-original="#4175df" style="" class=""/></g></g></g><g><g><path d="m301 512h-90c-8.291 0-15-6.709-15-15v-129.994c0-5.054 2.549-9.771 6.768-12.539 4.248-2.769 9.58-3.223 14.209-1.216 23.672 10.283 54.375 10.283 78.047 0 4.629-1.992 9.99-1.538 14.209 1.216 4.219 2.769 6.768 7.485 6.768 12.539v129.994c-.001 8.291-6.71 15-15.001 15z" fill="#e3e7ea" data-original="#e3e7ea" style="" class=""/></g></g><path d="m301 512c8.291 0 15-6.709 15-15v-129.994c0-5.054-2.549-9.771-6.768-12.539-4.219-2.754-9.58-3.208-14.209-1.216-11.836 5.142-25.43 7.712-39.023 7.712v151.037z" fill="#babac0" data-original="#babac0" style="" class=""/><g><g><path d="m205.023 380.761c-50.888-20.435-84.023-69.463-84.023-124.761 0-54.99 33.076-104.121 84.287-125.171 4.629-1.934 9.873-1.377 14.063 1.406 4.16 2.783 6.65 7.456 6.65 12.466v103.271l30 19.995 30-19.995v-103.271c0-5.01 2.49-9.683 6.65-12.466s9.404-3.354 14.063-1.406c51.211 21.05 84.287 70.181 84.287 125.171 0 55.298-33.135 104.326-84.404 124.922-30.326 13.184-69.465 13.788-101.573-.161z" fill="#fff5f5" data-original="#fff5f5" style="" class=""/></g></g><path d="m306.596 380.922c51.269-20.596 84.404-69.624 84.404-124.922 0-54.99-33.076-104.121-84.287-125.171-4.658-1.948-9.902-1.377-14.063 1.406s-6.65 7.456-6.65 12.466v103.271l-30 19.995v123.003c17.752.008 35.295-3.396 50.596-10.048z" fill="#e3e7ea" data-original="#e3e7ea" style="" class=""/></g></g></svg>
