<svg height="512pt" viewBox="-5 0 512 512.0021" width="512pt" xmlns="http://www.w3.org/2000/svg"><path d="m457.5 258.164062h-412.632812c-8.125 0-14.710938-6.585937-14.710938-14.710937v-15.292969c0-8.125 6.585938-14.714844 14.710938-14.714844h412.632812c8.125 0 14.710938 6.589844 14.710938 14.714844v15.292969c0 8.125-6.585938 14.710937-14.710938 14.710937zm0 0" fill="#ea4444"/><path d="m458.703125 349.484375h-415.042969c-7.011718 0-12.691406-5.683594-12.691406-12.695313v-41.835937c0-7.011719 5.683594-12.695313 12.691406-12.695313h415.042969c7.011719 0 12.695313 5.683594 12.695313 12.695313v41.835937c0 7.011719-5.683594 12.695313-12.695313 12.695313zm0 0" fill="#945b44"/><path d="m35.476562 295.984375c-3.324218 6.230469-.210937 14.027344 6.542969 16.101563 14.972657 4.59375 19.511719 15.824218 41.710938 15.824218 27.902343 0 27.902343-17.75 55.808593-17.75s27.90625 17.75 55.8125 17.75 27.90625-17.75 55.816407-17.75c27.910156 0 27.910156 17.75 55.816406 17.75 27.910156 0 27.910156-17.75 55.816406-17.75 27.914063 0 27.914063 17.75 55.824219 17.75 22.203125 0 26.742188-11.230468 41.71875-15.824218 6.753906-2.074219 9.867188-9.871094 6.546875-16.105469l-8.664063-16.242188h-414.089843zm0 0" fill="#87523e"/><path d="m486.507812 147.632812c-21.90625-58.765624-68.257812-93.566406-114.078124-114.152343-76.949219-34.570313-165.542969-34.570313-242.492188 0-45.820312 20.585937-92.175781 55.386719-114.082031 114.152343-5.742188 15.40625-8.367188 31.800782-8.355469 48.242188.011719 9.722656 7.980469 17.574219 17.707031 17.574219h451.953125c9.722656 0 17.695313-7.851563 17.703125-17.574219.015625-16.445312-2.613281-32.835938-8.355469-48.242188zm0 0" fill="#ffc265"/><path d="m494.859375 195.871094c0 9.722656-7.972656 17.574218-17.703125 17.574218h-451.953125c-9.71875 0-17.691406-7.851562-17.703125-17.574218 0-2.28125.050781-4.5625.152344-6.832032h418.121094c9.195312 0 16.734374-7.421874 16.746093-16.613281.007813-15.542969-2.472656-31.046875-7.902343-45.609375-20.714844-55.5625-64.546876-88.46875-107.863282-107.933594-2.832031-1.273437-5.683594-2.503906-8.554687-3.671874 18.503906 4.28125 36.667969 10.371093 54.234375 18.265624 45.820312 20.59375 92.167968 55.390626 114.074218 114.152344 5.742188 15.40625 8.371094 31.796875 8.351563 48.242188zm0 0" fill="#ffb541"/><path d="m418.722656 504.5h-335.078125c-35.535156 0-64.34375-28.808594-64.34375-64.34375v-22.171875c0-11.640625 9.4375-21.078125 21.078125-21.078125h421.609375c11.640625 0 21.078125 9.4375 21.078125 21.078125v22.171875c0 35.535156-28.808594 64.34375-64.34375 64.34375zm0 0" fill="#ffc265"/><path d="m483.066406 417.980469v22.175781c0 35.539062-28.804687 64.34375-64.34375 64.34375h-335.074218c-20.496094 0-38.738282-9.570312-50.53125-24.496094 6.441406 2.160156 13.332031 3.332032 20.492187 3.332032h341.207031c32.160156 0 58.222656-26.066407 58.222656-58.214844v-28.214844h8.953126c11.632812 0 21.074218 9.433594 21.074218 21.074219zm0 0" fill="#ffb541"/><path d="m35.476562 274.410156c-3.324218 6.234375-.210937 14.03125 6.542969 16.105469 14.972657 4.59375 19.511719 15.824219 41.710938 15.824219 27.902343 0 27.902343-17.75 55.808593-17.75s27.90625 17.75 55.8125 17.75 27.90625-17.75 55.816407-17.75c27.910156 0 27.910156 17.75 55.816406 17.75 27.910156 0 27.910156-17.75 55.816406-17.75 27.914063 0 27.914063 17.75 55.824219 17.75 22.203125 0 26.742188-11.230469 41.71875-15.828125 6.753906-2.070313 9.867188-9.867188 6.546875-16.101563l-8.664063-16.242187h-414.089843zm0 0" fill="#43cd8e"/><path d="m35.476562 274.410156c-3.324218 6.234375-.210937 14.03125 6.542969 16.105469 14.972657 4.59375 19.511719 15.824219 41.710938 15.824219 27.902343 0 27.902343-17.75 55.808593-17.75s27.90625 17.75 55.8125 17.75 27.90625-17.75 55.816407-17.75c27.910156 0 27.910156 17.75 55.816406 17.75 27.910156 0 27.910156-17.75 55.816406-17.75 27.914063 0 27.914063 17.75 55.824219 17.75 22.203125 0 26.742188-11.230469 41.71875-15.828125 6.753906-2.070313 9.867188-9.867188 6.546875-16.101563l-8.664063-16.242187h-414.089843zm0 0" fill="#43cd8e"/><path d="m76.0625 213.609375 103.828125 54.769531c10.121094 5.339844 20.96875 5.410156 31.113281.199219l107.058594-54.96875zm0 0" fill="#fbc700"/><path d="m76.0625 213.609375 103.828125 54.769531c10.121094 5.339844 20.96875 5.410156 31.113281.199219l107.058594-54.96875zm0 0" fill="#e9b900"/><path d="m122.160156 213.609375 64.273438 33.902344c6.265625 3.304687 12.980468 3.347656 19.257812.125l66.273438-34.027344zm0 0" fill="#fbc700"/><path d="m448.628906 349.484375h-394.222656c-12.765625 0-23.753906 9.808594-24.351562 22.5625-.640626 13.617187 10.207031 24.859375 23.683593 24.859375h27.84375c4.394531 0 7.960938 3.5625 7.960938 7.957031v11.734375c0 13.09375 10.0625 24.363282 23.140625 24.980469 13.96875.65625 25.496094-10.472656 25.496094-24.292969v-12.421875c0-4.394531 3.5625-7.957031 7.960937-7.957031h23.304687c4.394532 0 7.957032 3.5625 7.957032 7.957031v45.839844c0 13.433594 10.890625 24.320313 24.320312 24.320313 13.433594 0 24.320313-10.886719 24.320313-24.320313v-45.839844c0-4.394531 3.566406-7.957031 7.960937-7.957031h213.957032c12.769531 0 23.753906-9.8125 24.355468-22.566406.636719-13.613282-10.210937-24.855469-23.6875-24.855469zm0 0" fill="#fbc700"/><path d="m502.367188 195.878906c.015624-18-2.957032-35.113281-8.828126-50.867187-19.417968-52.082031-59.128906-91.910157-118.035156-118.375-67.710937-30.421875-144.085937-34.945313-215.054687-12.746094-3.953125 1.238281-6.15625 5.445313-4.917969 9.398437 1.234375 3.953126 5.441406 6.15625 9.398438 4.921876 67.464843-21.105469 140.0625-16.804688 204.425781 12.109374 55.109375 24.761719 92.160156 61.746094 110.125 109.929688 5.242187 14.066406 7.894531 29.414062 7.882812 45.613281-.003906 5.5625-4.582031 10.082031-10.203125 10.082031h-451.953125c-5.621093 0-10.199219-4.523437-10.203125-10.078124-.011718-16.199219 2.640625-31.546876 7.882813-45.617188 17.960937-48.183594 55.015625-85.167969 110.125-109.929688 3.777343-1.699218 5.46875-6.136718 3.769531-9.917968-1.699219-3.777344-6.140625-5.46875-9.917969-3.765625-58.90625 26.464843-98.621093 66.292969-118.035156 118.375-5.871094 15.753906-8.84375 32.867187-8.828125 50.867187.0117188 13.378906 10.601562 24.339844 23.875 25.035156-.789062 2.273438-1.222656 4.707032-1.222656 7.246094v15.292969c0 8.039063 4.292968 15.089844 10.703125 18.992187l-4.5 8.4375c-2.09375 3.925782-2.710938 8.394532-1.828125 12.667969-2.242188 3.242188-3.5625 7.167969-3.5625 11.402344v41.835937c0 6.214844 2.824218 11.773438 7.25 15.484376-4.773438 5.171874-7.800782 11.929687-8.15625 19.421874-.34375 7.371094 1.839844 14.410157 6.1875 20.195313-9.976563 4.464844-16.945313 14.476563-16.945313 26.09375v22.171875c0 39.617188 32.226563 71.847656 71.84375 71.847656h335.078125c39.613282 0 71.84375-32.230468 71.84375-71.847656v-22.171875c0-11.644531-7.003906-21.679687-17.019531-26.128906 3.667969-4.816407 5.953125-10.714844 6.257813-17.160157.394531-8.375-2.476563-16.324218-8.085938-22.488281 4.386719-3.707031 7.183594-9.238281 7.183594-15.417969v-41.835937c0-4.234375-1.324219-8.160156-3.5625-11.40625.882812-4.273437.261718-8.738281-1.832032-12.664063l-4.496093-8.4375c6.410156-3.902343 10.703125-10.957031 10.703125-18.992187v-15.292969c0-2.539062-.433594-4.976562-1.222656-7.246094 13.269531-.695312 23.859374-11.65625 23.875-25.035156zm-37.65625 32.28125v15.292969c0 3.976563-3.234376 7.210937-7.210938 7.210937h-195.179688l57.867188-29.714843h137.3125c3.976562 0 7.210938 3.234375 7.210938 7.210937zm-177.683594-7.050781-79.449219 40.796875c-7.917969 4.0625-16.28125 4.007812-24.1875-.164062l-77.03125-40.632813zm-110.636719 53.90625c6.199219 3.269531 12.722656 4.90625 19.25 4.90625 6.359375 0 12.726563-1.554687 18.789063-4.671875l18.664062-9.582031h220.632812l6.542969 12.273437c.546875 1.019532.605469 2.226563.160157 3.296875-.246094.601563-.875 1.671875-2.285157 2.105469-6.53125 2.003906-11.367187 5.078125-15.632812 7.789062-6.5 4.136719-12.113281 7.707032-23.886719 7.707032s-17.386719-3.570313-23.886719-7.703125c-7.402343-4.710938-15.796875-10.046875-31.9375-10.046875-16.136719 0-24.527343 5.335937-31.933593 10.046875-6.5 4.132812-12.113282 7.703125-23.882813 7.703125-11.773437 0-17.382813-3.570313-23.882813-7.703125-7.40625-4.710938-15.796874-10.046875-31.933593-10.046875-16.140625 0-24.53125 5.335937-31.9375 10.046875-6.496094 4.132812-12.109375 7.703125-23.878907 7.703125-11.769531 0-17.382812-3.570313-23.882812-7.703125-7.402344-4.710938-15.796875-10.046875-31.933594-10.046875-16.136718 0-24.527344 5.335937-31.929687 10.046875-6.496094 4.132812-12.109375 7.703125-23.878907 7.703125-11.769531 0-17.382812-3.570313-23.878906-7.703125-4.265625-2.714844-9.097656-5.789063-15.628906-7.792969-1.410156-.433594-2.039062-1.503906-2.285156-2.101562-.441406-1.074219-.386719-2.277344.160156-3.300782l6.542969-12.273437h110.035156zm-124.59375 28.777344c7.402344 4.710937 15.796875 10.046875 31.933594 10.046875s24.527343-5.335938 31.929687-10.046875c6.496094-4.132813 12.109375-7.703125 23.878906-7.703125 11.769532 0 17.382813 3.570312 23.878907 7.703125 7.40625 4.710937 15.796875 10.046875 31.933593 10.046875 16.140626 0 24.53125-5.335938 31.9375-10.046875 6.496094-4.132813 12.109376-7.703125 23.878907-7.703125 11.773437 0 17.382812 3.570312 23.882812 7.703125 7.40625 4.710937 15.796875 10.046875 31.933594 10.046875 16.140625 0 24.53125-5.335938 31.9375-10.046875 6.496094-4.132813 12.109375-7.703125 23.878906-7.703125 11.777344 0 17.390625 3.570312 23.890625 7.703125 7.402344 4.710937 15.796875 10.046875 31.9375 10.046875 16.136719 0 24.53125-5.335938 31.9375-10.046875 3.964844-2.519531 7.386719-4.699219 11.980469-6.109375.464844-.140625.90625-.320313 1.355469-.496094v39.601562c0 2.863282-2.332032 5.191407-5.195313 5.191407h-10.035156c-.011719 0-.027344 0-.039063 0h-394.226562c-.011719 0-.027344 0-.039062 0h-10.707032c-2.863281 0-5.191406-2.328125-5.191406-5.191407v-39.601562c.445312.175781.886719.355469 1.351562.5 4.589844 1.40625 8.011719 3.585938 11.976563 6.105469zm-14.140625-75.632813c0-3.976562 3.234375-7.210937 7.210938-7.210937h29.035156l56.324218 29.714843h-85.359374c-3.976563 0-7.210938-3.234374-7.210938-7.210937zm437.90625 189.824219v22.171875c0 31.339844-25.5 56.839844-56.839844 56.839844h-335.078125c-31.339843 0-56.839843-25.5-56.839843-56.839844v-22.171875c0-7.484375 6.089843-13.574219 13.574218-13.574219h41.207032c.25 0 .453124.203125.453124.453125v11.730469c0 17.410156 13.304688 31.675781 30.292969 32.476562 8.800781.410157 17.136719-2.699218 23.492188-8.761718s9.855469-14.242188 9.855469-23.027344v-12.417969c0-.25.207031-.457031.457031-.457031h23.304687c.253906 0 .457032.207031.457032.457031v45.839844c0 17.546875 14.277343 31.820313 31.824218 31.820313s31.820313-14.273438 31.820313-31.820313c0-4.144531-3.359375-7.503906-7.503907-7.503906-4.140624 0-7.5 3.359375-7.5 7.503906 0 9.273437-7.542968 16.816406-16.816406 16.816406-9.273437 0-16.820312-7.542969-16.820312-16.816406v-45.839844c0-8.523437-6.933594-15.457031-15.460938-15.457031h-23.304687c-8.523438 0-15.460938 6.933594-15.460938 15.457031v12.417969c0 4.644531-1.851562 8.964844-5.210937 12.171875-3.355469 3.207031-7.765625 4.867187-12.429688 4.628906-8.820312-.414062-15.996094-8.257812-15.996094-17.484375v-11.734375c0-8.523437-6.933593-15.457031-15.457031-15.457031h-27.84375c-4.476562 0-8.640625-1.785156-11.730469-5.023438-3.089843-3.234374-4.671874-7.492187-4.460937-11.980468.398437-8.492188 7.953125-15.402344 16.839844-15.414063h394.261719c4.464843.003907 8.625 1.785157 11.710937 5.019531 3.085937 3.238282 4.671875 7.492188 4.460937 11.984376-.402343 8.5-7.964843 15.414062-16.863281 15.414062h-213.957031c-8.523438 0-15.457031 6.9375-15.457031 15.460938v11.363281c0 4.144531 3.355469 7.5 7.5 7.5s7.5-3.355469 7.5-7.5v-11.363281c0-.25.203125-.453126.453125-.457032h227.992187c7.484375 0 13.574219 6.089844 13.574219 13.574219zm0 0"/><path d="m212.105469 51.71875c0 5.171875-4.191407 9.363281-9.363281 9.363281-5.171876 0-9.363282-4.191406-9.363282-9.363281s4.191406-9.363281 9.363282-9.363281c5.171874 0 9.363281 4.191406 9.363281 9.363281zm0 0"/><path d="m308.988281 51.71875c0 5.171875-4.191406 9.363281-9.363281 9.363281s-9.363281-4.191406-9.363281-9.363281 4.191406-9.363281 9.363281-9.363281 9.363281 4.191406 9.363281 9.363281zm0 0"/><path d="m141.226562 91.703125c0 5.171875-4.191406 9.363281-9.363281 9.363281s-9.363281-4.191406-9.363281-9.363281 4.191406-9.363281 9.363281-9.363281 9.363281 4.191406 9.363281 9.363281zm0 0"/><path d="m260.546875 91.703125c0 5.171875-4.191406 9.363281-9.363281 9.363281s-9.363282-4.191406-9.363282-9.363281 4.191407-9.363281 9.363282-9.363281 9.363281 4.191406 9.363281 9.363281zm0 0"/><path d="m379.867188 91.703125c0 5.171875-4.191407 9.363281-9.363282 9.363281s-9.363281-4.191406-9.363281-9.363281 4.191406-9.363281 9.363281-9.363281 9.363282 4.191406 9.363282 9.363281zm0 0"/></svg>