<?xml version="1.0" encoding="iso-8859-1"?>
<!-- Generator: Adobe Illustrator 19.0.0, SVG Export Plug-In . SVG Version: 6.00 Build 0)  -->
<svg version="1.1" id="Layer_1" xmlns="http://www.w3.org/2000/svg" xmlns:xlink="http://www.w3.org/1999/xlink" x="0px" y="0px"
	 viewBox="0 0 511.999 511.999" style="enable-background:new 0 0 511.999 511.999;" xml:space="preserve">
<polygon style="fill:#8C5549;" points="19.081,369.607 19.081,396.614 76.841,396.614 100.626,396.614 219.11,396.614 
	256.463,396.614 276.713,396.614 276.713,369.607 "/>
<g style="opacity:0.15;">
	<polygon style="fill:#202020;" points="19.081,369.607 19.081,396.614 24.957,396.614 27.377,396.614 39.431,396.614 
		43.23,396.614 45.29,396.614 45.29,369.607 	"/>
</g>
<g>
	<rect x="271.305" y="70.009" style="fill:#FEE298;" width="44.066" height="127.639"/>
	<rect x="359.094" y="70.009" style="fill:#FEE298;" width="44.066" height="167.898"/>
	<rect x="447.227" y="70.009" style="fill:#FEE298;" width="44.066" height="127.639"/>
</g>
<g>
	<path style="fill:#F7BE63;" d="M429.113,221.07v-23.382h18.111V34.931h-44.063v202.975h9.733
		C421.853,237.906,429.113,230.368,429.113,221.07z"/>
	<path style="fill:#F7BE63;" d="M334.5,197.687v23.382c0,9.299,7.262,16.836,16.22,16.836h8.72V34.931h-44.066v162.756H334.5z"/>
</g>
<path style="fill:#EFAC52;" d="M282.618,284.176c-9.8-53.531-83.397-69.127-135.427-69.127l0,0
	c-51.87,0-127.518,15.35-137.487,68.634c0,0-4.624,36.469,12.788,36.469H274.44C279.268,319.094,285.673,304.38,282.618,284.176z"/>
<g style="opacity:0.15;">
	<path style="fill:#202020;" d="M36.173,283.683c9.149-48.884,73.574-65.839,124.205-68.305c-4.508-0.222-8.921-0.329-13.187-0.329
		c-51.87,0-127.518,15.35-137.487,68.634c0,0-4.624,36.469,12.788,36.469h26.47C31.549,320.152,36.173,283.683,36.173,283.683z"/>
</g>
<g>
	<path style="fill:#D33D3D;" d="M100.626,396.614H29.644h-0.838c-11.336,0-20.524,8.629-20.524,19.276v0.191
		c0,10.646,9.189,19.279,20.524,19.279h110.029L100.626,396.614z"/>
	<path style="fill:#D33D3D;" d="M266.145,396.614H219.11l-38.208,38.746h85.244c11.336,0,20.522-8.633,20.522-19.279v-0.191
		C286.668,405.243,277.481,396.614,266.145,396.614z"/>
</g>
<g style="opacity:0.15;">
	<path style="fill:#202020;" d="M34.703,416.08v-0.191c0-10.645,9.189-19.276,20.523-19.276H29.644h-0.838
		c-11.336,0-20.524,8.629-20.524,19.276v0.191c0,10.646,9.189,19.279,20.524,19.279h26.42
		C43.891,435.358,34.703,426.726,34.703,416.08z"/>
</g>
<polygon style="fill:#FCAF29;" points="159.867,456.686 219.11,396.614 100.626,396.614 "/>
<path style="fill:#EFAC52;" d="M284.168,435.689H180.574l-20.707,20.999l-20.707-20.999h-1.401H8.067v6.714
	c0,0.222,0.015,0.439,0.023,0.659c-0.009,0.223-0.023,0.441-0.023,0.663v6.018v1.528c0,0.225,0.015,0.439,0.023,0.665
	c-0.009,0.219-0.023,0.437-0.023,0.658v0.385v8.874c0,8.402,4.637,15.215,10.355,15.215h38.294h24.738h192.359
	c5.718,0,10.355-6.813,10.355-15.215v-8.874v-0.385c0-0.222-0.019-0.439-0.023-0.658c0.004-0.226,0.023-0.44,0.023-0.665v-1.528
	v-6.018c0-0.222-0.019-0.44-0.023-0.663c0.004-0.22,0.023-0.438,0.023-0.659V435.689z"/>
<g style="opacity:0.15;">
	<path style="fill:#202020;" d="M34.299,461.853v-8.874v-0.385c0-0.222,0.015-0.439,0.023-0.658
		c-0.009-0.226-0.023-0.44-0.023-0.665v-1.528v-6.018c0-0.222,0.015-0.44,0.023-0.663c-0.009-0.22-0.023-0.438-0.023-0.659v-6.714
		H8.067v6.714c0,0.222,0.015,0.439,0.023,0.659c-0.009,0.223-0.023,0.441-0.023,0.663v6.018v1.528c0,0.225,0.015,0.439,0.023,0.665
		c-0.009,0.219-0.023,0.437-0.023,0.658v0.385v8.874c0,8.402,4.637,15.215,10.355,15.215h26.231
		C38.935,477.067,34.299,470.255,34.299,461.853z"/>
</g>
<path style="fill:#E95353;" d="M501.312,242.616l2.622-44.928h-74.821v23.382c0,9.299-7.26,16.836-16.22,16.836H350.72
	c-8.957,0-16.22-7.538-16.22-16.836v-23.382h-74.819l2.987,51.23c10.128,9.321,17.324,20.93,19.949,35.258
	c3.055,20.205-3.35,34.92-8.179,35.976h-7.617l2.885,49.455h7.006v27.006h-5.433l0.038,0.642c8.825,2.157,15.35,9.669,15.35,18.633
	v0.191c0,8.221-5.49,15.222-13.203,17.993l0.095,1.616h10.608v6.714c0,0.222-0.019,0.439-0.023,0.659
	c0.004,0.223,0.023,0.441,0.023,0.663v6.018v1.528c0,0.225-0.019,0.439-0.023,0.665c0.004,0.219,0.023,0.437,0.023,0.658v0.385
	v8.874c0,5.655-2.105,10.579-5.222,13.202h208.813l11.924-204.486"/>
<g>
	<path style="fill:#202020;" d="M89.353,240.333c-4.456,0-8.067,3.611-8.067,8.067v1.218c0,4.456,3.611,8.067,8.067,8.067
		s8.067-3.611,8.067-8.067V248.4C97.42,243.943,93.809,240.333,89.353,240.333z"/>
	<path style="fill:#202020;" d="M128.534,240.333c-4.456,0-8.067,3.611-8.067,8.067v1.218c0,4.456,3.611,8.067,8.067,8.067
		c4.456,0,8.067-3.611,8.067-8.067V248.4C136.601,243.943,132.99,240.333,128.534,240.333z"/>
	<path style="fill:#202020;" d="M167.713,240.333c-4.456,0-8.067,3.611-8.067,8.067v1.218c0,4.456,3.611,8.067,8.067,8.067
		c4.456,0,8.067-3.611,8.067-8.067V248.4C175.78,243.943,172.169,240.333,167.713,240.333z"/>
	<path style="fill:#202020;" d="M206.894,240.333c-4.456,0-8.067,3.611-8.067,8.067v1.218c0,4.456,3.611,8.067,8.067,8.067
		s8.067-3.611,8.067-8.067V248.4C214.961,243.943,211.35,240.333,206.894,240.333z"/>
	<path style="fill:#202020;" d="M108.945,270.171c-4.456,0-8.067,3.611-8.067,8.067v1.216c0,4.456,3.611,8.067,8.067,8.067
		c4.456,0,8.067-3.611,8.067-8.067v-1.216C117.012,273.782,113.401,270.171,108.945,270.171z"/>
	<path style="fill:#202020;" d="M148.124,270.171c-4.456,0-8.067,3.611-8.067,8.067v1.216c0,4.456,3.611,8.067,8.067,8.067
		s8.067-3.611,8.067-8.067v-1.216C156.191,273.782,152.579,270.171,148.124,270.171z"/>
	<path style="fill:#202020;" d="M187.305,270.171c-4.456,0-8.067,3.611-8.067,8.067v1.216c0,4.456,3.611,8.067,8.067,8.067
		s8.067-3.611,8.067-8.067v-1.216C195.372,273.782,191.76,270.171,187.305,270.171z"/>
	<path style="fill:#202020;" d="M509.803,192.152c-1.524-1.616-3.647-2.532-5.868-2.532h-4.578V70.007
		c0-4.456-3.611-8.067-8.067-8.067h-35.999V34.931c0-4.456-3.611-8.067-8.067-8.067h-44.063c-4.456,0-8.067,3.611-8.067,8.067V61.94
		h-27.587V34.931c0-4.456-3.611-8.067-8.067-8.067h-44.066c-4.456,0-8.067,3.611-8.067,8.067V61.94h-35.999
		c-4.456,0-8.067,3.611-8.067,8.067V189.62h-3.561c-2.22,0-4.343,0.916-5.867,2.532s-2.315,3.787-2.186,6.005l1.978,33.912
		c-5.958-3.716-12.574-7.063-19.836-10.006c-32.372-13.121-68.139-15.081-86.579-15.081c-18.527,0-54.519,1.936-87.414,14.898
		c-32.996,13.001-53.052,33.858-58.004,60.319c-0.029,0.157-0.054,0.313-0.073,0.47c-0.581,4.585-2.977,28.028,6.973,39.318
		c3.592,4.078,8.37,6.233,13.817,6.233h236.722l0.445,7.626H11.031c-4.456,0-8.067,3.611-8.067,8.067
		c0,4.456,3.611,8.067,8.067,8.067h249.566l0.558,9.563H19.081c-4.456,0-8.067,3.611-8.067,8.067v24.901
		c-6.575,5.013-10.8,12.732-10.8,21.38v0.191c0,4.659,1.227,9.049,3.386,12.893c-2.169,1.443-3.6,3.911-3.6,6.714v6.714
		c0,0.222,0.006,0.441,0.016,0.66c-0.01,0.22-0.016,0.44-0.016,0.661v7.546c0,0.225,0.006,0.443,0.016,0.663
		C0.006,452.153,0,452.372,0,452.595v9.259c0,13.055,8.092,23.282,18.422,23.282h38.294c4.456,0,8.067-3.611,8.067-8.067
		s-3.611-8.067-8.067-8.067H18.61c-0.797-0.484-2.476-3.006-2.476-7.148l-0.001-9.203l0.018-0.407
		c0.009-0.202,0.009-0.407,0.001-0.609l-0.019-7.855l0.001-0.025h119.651l18.339,18.596c1.516,1.537,3.585,2.402,5.744,2.402
		c2.159,0,4.228-0.866,5.744-2.402l18.339-18.596h89.61h2.542l-0.002,7.498c-0.009,0.175-0.016,0.352-0.02,0.532
		c-0.001,0.102-0.001,0.202,0,0.304c0.004,0.175,0.012,0.35,0.023,0.504v9.259c0,0.478-0.027,0.928-0.068,1.363
		c-0.018,0.19-0.047,0.37-0.073,0.554c-0.031,0.227-0.061,0.455-0.102,0.669c-0.04,0.212-0.087,0.413-0.136,0.614
		c-0.04,0.164-0.08,0.326-0.124,0.48c-0.059,0.206-0.123,0.407-0.19,0.599c-0.042,0.119-0.084,0.234-0.128,0.346
		c-0.081,0.206-0.165,0.408-0.253,0.594c-0.028,0.06-0.057,0.116-0.085,0.173c-0.368,0.732-0.784,1.295-1.191,1.637
		c-0.032,0.027-0.057,0.059-0.088,0.087c-0.012,0.008-0.027,0.025-0.039,0.032H81.454c-4.456,0-8.067,3.611-8.067,8.067
		c0,4.456,3.611,8.067,8.067,8.067h192.359c2.722,0,5.282-0.727,7.587-2.012h206.357c4.273,0,7.804-3.332,8.053-7.597
		l11.924-204.486c0.259-4.448-3.136-8.264-7.584-8.523c-4.469-0.275-8.265,3.136-8.523,7.584L480.147,466.99H291.796
		c0.004-0.027,0.006-0.056,0.011-0.083c0.116-0.686,0.202-1.385,0.271-2.094c0.014-0.139,0.037-0.275,0.048-0.415
		c0.069-0.835,0.109-1.682,0.109-2.544v-9.259c0-0.211-0.006-0.419-0.017-0.655c0.01-0.22,0.017-0.442,0.017-0.668v-7.546
		c0-0.209-0.006-0.418-0.017-0.656c0.01-0.22,0.017-0.442,0.017-0.666v-6.714c0-0.264-0.015-0.523-0.04-0.779
		c-0.009-0.085-0.023-0.169-0.033-0.253c-0.021-0.17-0.045-0.339-0.077-0.504c-0.019-0.099-0.043-0.195-0.066-0.293
		c-0.034-0.15-0.071-0.297-0.114-0.442c-0.029-0.1-0.062-0.199-0.095-0.297c-0.046-0.139-0.097-0.276-0.151-0.412
		c-0.039-0.097-0.079-0.194-0.12-0.288c-0.06-0.134-0.124-0.266-0.191-0.397c-0.045-0.089-0.09-0.179-0.139-0.266
		c-0.077-0.138-0.16-0.271-0.245-0.403c-0.046-0.073-0.09-0.148-0.14-0.219c-0.115-0.168-0.239-0.33-0.366-0.489
		c-0.024-0.03-0.045-0.062-0.07-0.092c2.376-3.628,3.883-7.823,4.251-12.322c0.011-0.124,0.022-0.247,0.03-0.371
		c0.04-0.588,0.067-1.18,0.067-1.778v-0.191c0-0.493-0.015-0.983-0.043-1.47c-0.009-0.15-0.025-0.298-0.035-0.447
		c-0.025-0.337-0.051-0.674-0.087-1.008c-0.019-0.173-0.046-0.345-0.069-0.518c-0.041-0.307-0.082-0.613-0.133-0.916
		c-0.031-0.184-0.068-0.365-0.102-0.547c-0.055-0.288-0.112-0.575-0.175-0.86c-0.043-0.191-0.091-0.381-0.139-0.571
		c-0.067-0.269-0.137-0.538-0.212-0.803c-0.057-0.201-0.117-0.4-0.179-0.599c-0.076-0.247-0.156-0.493-0.24-0.737
		c-0.073-0.213-0.147-0.426-0.226-0.637c-0.081-0.218-0.166-0.436-0.253-0.651c-0.092-0.23-0.185-0.46-0.284-0.687
		c-0.078-0.182-0.162-0.36-0.245-0.54c-0.117-0.256-0.236-0.511-0.361-0.764c-0.062-0.124-0.128-0.245-0.191-0.368
		c-0.156-0.301-0.313-0.601-0.481-0.896c-0.002-0.003-0.004-0.006-0.006-0.01c-1.305-2.296-2.949-4.399-4.877-6.248
		c-0.027-0.026-0.053-0.051-0.078-0.076c-0.288-0.274-0.582-0.542-0.882-0.805c-0.057-0.049-0.114-0.099-0.171-0.148
		c-0.162-0.14-0.319-0.285-0.486-0.421v-25.553c0-0.272-0.014-0.541-0.041-0.807c-0.009-0.09-0.027-0.177-0.039-0.268
		c-0.023-0.173-0.045-0.346-0.079-0.516c-0.02-0.104-0.051-0.205-0.075-0.309c-0.037-0.151-0.071-0.302-0.115-0.45
		c-0.032-0.108-0.073-0.211-0.11-0.316c-0.048-0.138-0.095-0.276-0.151-0.411c-0.044-0.107-0.096-0.21-0.144-0.314
		c-0.059-0.127-0.117-0.255-0.182-0.379c-0.055-0.103-0.115-0.202-0.174-0.303c-0.07-0.118-0.139-0.238-0.214-0.352
		c-0.065-0.098-0.133-0.193-0.202-0.287c-0.08-0.11-0.159-0.219-0.244-0.326c-0.074-0.092-0.152-0.181-0.229-0.27
		c-0.088-0.101-0.177-0.202-0.271-0.298c-0.082-0.085-0.168-0.167-0.253-0.247c-0.098-0.092-0.196-0.183-0.298-0.271
		c-0.09-0.077-0.182-0.152-0.275-0.225c-0.107-0.083-0.213-0.163-0.324-0.242c-0.097-0.068-0.195-0.134-0.295-0.198
		c-0.114-0.073-0.229-0.143-0.346-0.211c-0.103-0.059-0.208-0.116-0.314-0.171c-0.12-0.062-0.243-0.12-0.367-0.176
		c-0.109-0.049-0.218-0.098-0.329-0.142c-0.128-0.052-0.258-0.098-0.39-0.143c-0.112-0.039-0.225-0.076-0.339-0.11
		c-0.136-0.04-0.274-0.073-0.413-0.106c-0.115-0.027-0.229-0.055-0.346-0.076c-0.143-0.027-0.289-0.047-0.436-0.067
		c-0.116-0.016-0.232-0.032-0.351-0.043c-0.04-0.003-0.077-0.012-0.117-0.014l-0.559-9.585h8.004c4.456,0,8.067-3.611,8.067-8.067
		s-3.611-8.067-8.067-8.067h-8.945l-0.447-7.68c0.267-0.031,0.531-0.075,0.794-0.133c11.145-2.439,17.754-23.076,14.43-45.063
		c-0.013-0.083-0.026-0.165-0.042-0.246c-0.156-0.854-0.329-1.702-0.515-2.544c-0.101-0.458-0.217-0.91-0.327-1.364
		c-0.089-0.367-0.172-0.735-0.267-1.099c-0.168-0.647-0.352-1.289-0.538-1.93c-0.044-0.152-0.084-0.305-0.129-0.456
		c-3.34-11.21-9.446-21.283-18.239-30.046l-2.305-39.531h47.142h11.058v15.315c0,0.858,0.043,1.707,0.126,2.543
		c1.246,12.542,11.606,22.36,24.161,22.36h8.376h0.344h43.72h9.733c12.555,0,22.915-9.819,24.161-22.36
		c0.083-0.836,0.126-1.684,0.126-2.543v-15.315h10.044h48.158l-2.124,36.392c-0.259,4.448,3.135,8.264,7.584,8.523
		c4.439,0.26,8.264-3.136,8.523-7.584l2.622-44.928C512.116,195.939,511.326,193.767,509.803,192.152z M266.145,404.681
		c1.094,0,2.149,0.14,3.161,0.38c0.033,0.009,0.063,0.024,0.097,0.032c2.368,0.579,4.425,1.753,5.989,3.314
		c0,0,0.001,0.001,0.002,0.002c0.22,0.22,0.431,0.449,0.631,0.683c0.006,0.008,0.013,0.016,0.019,0.024
		c0.756,0.891,1.358,1.884,1.791,2.945c0.038,0.094,0.079,0.186,0.114,0.281c0.07,0.186,0.13,0.375,0.188,0.566
		c0.045,0.147,0.089,0.297,0.128,0.446c0.043,0.165,0.083,0.33,0.117,0.497c0.041,0.198,0.073,0.399,0.102,0.6
		c0.019,0.132,0.042,0.265,0.056,0.398c0.035,0.343,0.058,0.691,0.058,1.042v0.191c0,0.349-0.024,0.693-0.058,1.033
		c-0.01,0.097-0.024,0.194-0.037,0.289c-0.034,0.259-0.077,0.517-0.131,0.771c-0.017,0.085-0.033,0.17-0.054,0.254
		c-0.16,0.674-0.387,1.327-0.675,1.951c-0.025,0.053-0.051,0.104-0.076,0.157c-0.131,0.271-0.273,0.537-0.427,0.797
		c-0.028,0.046-0.054,0.092-0.082,0.139c-0.361,0.592-0.782,1.15-1.252,1.669c-0.063,0.07-0.13,0.137-0.196,0.205
		c-0.159,0.168-0.325,0.331-0.496,0.49c-0.109,0.101-0.218,0.202-0.331,0.3c-0.117,0.101-0.24,0.198-0.361,0.296
		c-1.066,0.85-2.303,1.551-3.687,2.048c-0.032,0.012-0.059,0.03-0.091,0.042c-1.398,0.49-2.913,0.769-4.501,0.769h-65.959
		l22.298-22.611h43.663V404.681z M174.836,430.018c-0.002,0.002-0.004,0.003-0.005,0.005l-5.638,5.717l-30.629-31.061h61.262
		L174.836,430.018z M97.251,404.681l22.298,22.611H28.805c-6.87,0-12.457-5.029-12.457-11.212v-0.191
		c0-6.18,5.588-11.209,12.457-11.209h68.446V404.681z M27.148,388.547v-10.872h241.497v10.872h-2.5H219.11H100.626H28.805H27.148z
		 M483.223,78.073v111.506h-27.932V78.073H483.223z M395.094,78.073v151.766h-27.587V78.073H395.094z M279.376,78.073h27.932
		v111.506h-27.932V78.073z M20.78,311.322c-3.787-4.287-4.088-18.19-3.103-26.397c8.761-45.613,75.199-61.809,129.513-61.809
		c52.647,0,116.88,15.838,127.026,60.249c0.161,0.709,0.31,1.422,0.443,2.14c1.59,10.657,0.118,18.674-1.486,23.276
		c-0.503,1.442-1.02,2.559-1.458,3.303h-4.893H22.49C21.687,312.085,21.303,311.914,20.78,311.322z M342.567,221.07v-23.382
		c0-4.456-3.611-8.067-8.067-8.067h-11.058V70.007V42.998h27.932v24.68c-0.223,0.738-0.344,1.519-0.344,2.329v159.833h-0.309
		C346.225,229.839,342.567,225.906,342.567,221.07z M429.113,189.62c-4.456,0-8.067,3.611-8.067,8.067v23.382
		c0,4.836-3.657,8.769-8.153,8.769h-1.666V70.007V42.998h27.93v27.009V189.62L429.113,189.62L429.113,189.62z"/>
</g>
<g style="opacity:0.15;">
	<path style="fill:#202020;" d="M262.682,249.387c0.122,2.089,1.052,4.05,2.591,5.466c9.417,8.666,15.288,18.979,17.455,30.652
		c2.09,14-1.105,23.462-2.945,26.58h-4.893c-2.22,0-4.343,0.916-5.867,2.532c-0.836,0.886-1.443,1.945-1.807,3.082l16.197,4.552
		c26.168-35.15,9.943-65.128,7.678-68.947c-0.755-1.164-1.211-2.508-1.293-3.916l-2.987-51.23c-0.129-2.218,0.661-4.389,2.185-6.005
		c1.525-1.616,3.647-2.532,5.868-2.532h3.56V73.253H271.31V189.62h-3.561c-2.221,0-4.344,0.916-5.868,2.532
		c-1.524,1.616-2.314,3.787-2.186,6.005L262.682,249.387z"/>
</g>
<g>
</g>
<g>
</g>
<g>
</g>
<g>
</g>
<g>
</g>
<g>
</g>
<g>
</g>
<g>
</g>
<g>
</g>
<g>
</g>
<g>
</g>
<g>
</g>
<g>
</g>
<g>
</g>
<g>
</g>
</svg>
