<?xml version="1.0"?>
<svg xmlns="http://www.w3.org/2000/svg" xmlns:xlink="http://www.w3.org/1999/xlink" xmlns:svgjs="http://svgjs.com/svgjs" version="1.1" width="512" height="512" x="0" y="0" viewBox="0 0 128 128" style="enable-background:new 0 0 512 512" xml:space="preserve" class=""><g><g xmlns="http://www.w3.org/2000/svg"><g><path d="m85.3 28.62a4.81 4.81 0 1 0 0-9.62h-48.758a4.81 4.81 0 0 0 0 9.62z" fill="#f1b104" data-original="#f4ba7a" style="" class=""/><path d="m85.3 109a4.81 4.81 0 1 0 0-9.62h-48.758a4.81 4.81 0 0 0 0 9.62z" fill="#f1b104" data-original="#f4ba7a" style="" class=""/><path d="m49.254 66.777a23.521 23.521 0 0 0 -11.871 20.442v12.161h47.075v-12.161a23.52 23.52 0 0 0 -11.87-20.442 3.22 3.22 0 0 1 0-5.554 23.52 23.52 0 0 0 11.87-20.442v-12.161h-47.075v12.161a23.521 23.521 0 0 0 11.871 20.442 3.22 3.22 0 0 1 0 5.554z" fill="#8ecae6" data-original="#8ecae6" style=""/><g fill="#fcf8de"><path d="m74.562 93.119c1.6-1 2.9-2.3 2.9-3.9v-.366a18.154 18.154 0 0 0 -2.052-8.4 7.941 7.941 0 0 1 -2.018.165c-4.757-.318-4.334-1.058-9.388-3.7s-5.2.952-10.7 2.221a19.722 19.722 0 0 1 -6.227.067 16.525 16.525 0 0 0 -2.689 9.014v1c0 1.6 1.3 2.9 2.9 3.9z" fill="#fcf8de" data-original="#fcf8de" style=""/><path d="m57.5 60.376a3.541 3.541 0 0 0 6.84 0 10.188 10.188 0 0 1 4.772-6.23 16.6 16.6 0 0 0 8.056-11.33 20.12 20.12 0 0 1 -20.754 2.706 20.247 20.247 0 0 0 -11.323-1 16.594 16.594 0 0 0 7.635 9.621 10.188 10.188 0 0 1 4.774 6.233z" fill="#fcf8de" data-original="#fcf8de" style=""/></g></g><g fill="#022a5b"><path d="m65.406 20.75a1.75 1.75 0 0 0 0-3.5h-.793a1.75 1.75 0 0 0 0 3.5z" fill="#022a5b" data-original="#022a5b" style="" class=""/><path d="m48.386 65.257a25.356 25.356 0 0 0 -12.752 21.962v10.481a6.556 6.556 0 0 0 .908 13.05h48.758a6.556 6.556 0 0 0 .908-13.05v-10.481a25.358 25.358 0 0 0 -12.752-21.962 1.469 1.469 0 0 1 0-2.514 25.361 25.361 0 0 0 12.752-21.962v-10.481a6.556 6.556 0 0 0 -.908-13.05h-9.665a1.75 1.75 0 0 0 0 3.5h9.665a3.06 3.06 0 0 1 0 6.12h-48.758a3.06 3.06 0 1 1 0-6.12h16.6a1.75 1.75 0 0 0 0-3.5h-16.6a6.556 6.556 0 0 0 -.908 13.05v10.481a25.358 25.358 0 0 0 12.752 21.962 1.47 1.47 0 0 1 0 2.514zm36.914 35.873a3.06 3.06 0 0 1 0 6.12h-48.758a3.06 3.06 0 0 1 0-6.12zm-35.177-41.43a21.853 21.853 0 0 1 -10.989-18.919v-10.411h43.574v10.411a21.854 21.854 0 0 1 -10.988 18.919 4.969 4.969 0 0 0 0 8.592 21.852 21.852 0 0 1 10.988 18.927v10.411h-43.574v-10.411a21.852 21.852 0 0 1 10.988-18.919 4.969 4.969 0 0 0 0-8.592z" fill="#022a5b" data-original="#022a5b" style="" class=""/><path d="m47.279 94.869h27.284a1.747 1.747 0 0 0 .927-.267c2.467-1.542 3.718-3.352 3.718-5.378v-.367a19.937 19.937 0 0 0 -2.251-9.215 1.755 1.755 0 0 0 -1.886-.907 6.327 6.327 0 0 1 -1.564.136 8.863 8.863 0 0 1 -5.4-1.643c-.812-.487-1.824-1.094-3.292-1.862-4.026-2.105-6.014-.878-7.935.31a12.068 12.068 0 0 1 -3.967 1.757 18.11 18.11 0 0 1 -5.637.033 1.766 1.766 0 0 0 -1.665.784 18.245 18.245 0 0 0 -2.972 9.969v1.005c0 2.026 1.251 3.836 3.718 5.378a1.747 1.747 0 0 0 .922.267zm-1.145-6.65a14.7 14.7 0 0 1 1.866-7.162 18.78 18.78 0 0 0 5.694-.214 15.387 15.387 0 0 0 5.021-2.19c1.656-1.02 2.212-1.367 4.473-.185 1.377.72 2.34 1.3 3.114 1.761a12.046 12.046 0 0 0 6.969 2.134 8.02 8.02 0 0 0 1.105-.006 16.507 16.507 0 0 1 1.332 6.5v.367c0 .815-.917 1.621-1.67 2.145h-26.238c-.753-.524-1.67-1.33-1.67-2.145z" fill="#022a5b" data-original="#022a5b" style="" class=""/><path d="m51.859 55.666a8.472 8.472 0 0 1 3.951 5.16 5.29 5.29 0 0 0 10.222 0 8.473 8.473 0 0 1 3.949-5.159 18.3 18.3 0 0 0 8.908-12.527 1.75 1.75 0 0 0 -2.841-1.667 18.405 18.405 0 0 1 -18.959 2.435 21.817 21.817 0 0 0 -12.3-1.106 1.748 1.748 0 0 0 -1.375 2.228 18.261 18.261 0 0 0 8.445 10.636zm3.882-8.528a21.816 21.816 0 0 0 18.125-.226 14.778 14.778 0 0 1 -5.621 5.715 12 12 0 0 0 -5.6 7.3 1.79 1.79 0 0 1 -3.457 0 11.99 11.99 0 0 0 -5.6-7.3 14.729 14.729 0 0 1 -6.089-6.653 17.45 17.45 0 0 1 8.242 1.164z" fill="#022a5b" data-original="#022a5b" style="" class=""/></g></g></g></svg>
