<?xml version="1.0"?>
<svg xmlns="http://www.w3.org/2000/svg" xmlns:xlink="http://www.w3.org/1999/xlink" xmlns:svgjs="http://svgjs.com/svgjs" version="1.1" width="512" height="512" x="0" y="0" viewBox="0 0 273.585 273.585" style="enable-background:new 0 0 512 512" xml:space="preserve" class=""><g>
<g xmlns="http://www.w3.org/2000/svg">
	<path style="" d="M231.985,36.146h-43.794V18.5c0-10.201-8.299-18.5-18.5-18.5h-65.797   c-10.201,0-18.5,8.299-18.5,18.5v17.646H41.6c-6.893,0-12.5,5.607-12.5,12.5v22.909c0,6.893,5.607,12.5,12.5,12.5h7.26v172.029   c0,9.65,7.851,17.5,17.5,17.5h140.864c9.649,0,17.5-7.85,17.5-17.5V84.056h7.261c6.893,0,12.5-5.607,12.5-12.5V48.646   C244.485,41.754,238.877,36.146,231.985,36.146z M100.394,18.5c0-1.897,1.603-3.5,3.5-3.5h65.797c1.897,0,3.5,1.603,3.5,3.5v17.646   h-72.797V18.5z M209.724,256.085c0,1.355-1.145,2.5-2.5,2.5H66.36c-1.355,0-2.5-1.145-2.5-2.5V84.056h145.864V256.085z    M229.485,69.056H44.1V51.146h185.385V69.056z" fill="#ffffff" data-original="#000002" class=""/>
	<path style="" d="M92.894,237.38c4.142,0,7.5-3.358,7.5-7.5V115.47c0-4.142-3.358-7.5-7.5-7.5   c-4.143,0-7.5,3.358-7.5,7.5v114.41C85.394,234.022,88.751,237.38,92.894,237.38z" fill="#ffffff" data-original="#000002" class=""/>
	<path style="" d="M136.793,237.38c4.143,0,7.5-3.358,7.5-7.5V115.47c0-4.142-3.357-7.5-7.5-7.5   c-4.143,0-7.5,3.358-7.5,7.5v114.41C129.293,234.022,132.651,237.38,136.793,237.38z" fill="#ffffff" data-original="#000002" class=""/>
	<path style="" d="M180.691,237.38c4.143,0,7.5-3.358,7.5-7.5V115.47c0-4.142-3.357-7.5-7.5-7.5   c-4.143,0-7.5,3.358-7.5,7.5v114.41C173.191,234.022,176.548,237.38,180.691,237.38z" fill="#ffffff" data-original="#000002" class=""/>
</g>
<g xmlns="http://www.w3.org/2000/svg">
</g>
<g xmlns="http://www.w3.org/2000/svg">
</g>
<g xmlns="http://www.w3.org/2000/svg">
</g>
<g xmlns="http://www.w3.org/2000/svg">
</g>
<g xmlns="http://www.w3.org/2000/svg">
</g>
<g xmlns="http://www.w3.org/2000/svg">
</g>
<g xmlns="http://www.w3.org/2000/svg">
</g>
<g xmlns="http://www.w3.org/2000/svg">
</g>
<g xmlns="http://www.w3.org/2000/svg">
</g>
<g xmlns="http://www.w3.org/2000/svg">
</g>
<g xmlns="http://www.w3.org/2000/svg">
</g>
<g xmlns="http://www.w3.org/2000/svg">
</g>
<g xmlns="http://www.w3.org/2000/svg">
</g>
<g xmlns="http://www.w3.org/2000/svg">
</g>
<g xmlns="http://www.w3.org/2000/svg">
</g>
</g></svg>
