<?xml version="1.0"?>
<svg xmlns="http://www.w3.org/2000/svg" xmlns:xlink="http://www.w3.org/1999/xlink" xmlns:svgjs="http://svgjs.com/svgjs" version="1.1" width="512" height="512" x="0" y="0" viewBox="0 0 60 60" style="enable-background:new 0 0 512 512" xml:space="preserve" class=""><g><g xmlns="http://www.w3.org/2000/svg" id="Page-1" fill="none" fill-rule="evenodd"><g id="037---Cloud-Profile" fill-rule="nonzero"><path id="Shape" d="m13 37h-1c-6.07513225 0-11-4.9248678-11-11s4.92486775-11 11-11c.623565-.0030798 1.2461215.0504735 1.86.16 1.427149-3.0326141 4.4212431-5.02097 7.77-5.16 1.9678376-6.08875505 8.0738821-9.84005753 14.3946544-8.84348326s10.976386 6.4446301 10.9753456 12.84348326c.019924.3497165.019924.7002835 0 1.05.34 0 .7-.05 1-.05 6.0751322.0000001 10.9999998 4.9248678 10.9999998 11s-4.9248676 10.9999999-10.9999998 11z" fill="#83c1c9" data-original="#00bcd4" style="" class=""/><path id="Shape" d="m48 15c-.35 0-.71 0-1 .05.019924-.3497165.019924-.7002835 0-1.05 0-3.4478144-1.3696389-6.75441524-3.8076118-9.19238816-2.437973-2.43797292-5.7445738-3.80761184-9.1923882-3.80761184-.49788.00446883-.9952019.0345084-1.49.09 6.5501491.76600988 11.4889823 6.31521239 11.49 12.91.019924.3497165.019924.7002835 0 1.05.34 0 .7-.05 1-.05 5.6723409.0182317 10.4006953 4.3467764 10.9186843 9.9954462s-3.3442621 10.7649821-8.9186843 11.8145538v.19h1c6.0751322 0 11-4.9248678 11-11s-4.9248678-11-11-11z" fill="#00838f" data-original="#00838f" style="" class=""/><path id="Shape" d="m40.83 9.15c-.2923118.00001923-.5699973-.12786225-.76-.35-1.5177498-1.77444941-3.7349995-2.79723347-6.07-2.8-.5522847 0-1-.44771525-1-1s.4477153-1 1-1c2.9180174.00022682 5.6903707 1.27499794 7.59 3.49.1724034.201559.2576705.46335301.2370412.72778336-.0206293.26443034-.145465.50983336-.3470412.68221664-.179713.15852397-.4103774.24724105-.65.25z" fill="#f5f5f5" data-original="#f5f5f5" style="" class=""/><path id="Shape" d="m42 41.05c-2.8354115 3.7458513-7.2620259 5.9469121-11.96 5.9469121s-9.1245885-2.2010608-11.96-5.9469121c1.9-2.42 5.47-5 12-5s9.98 2.58 11.92 5z" fill="#ffdc00" data-original="#ffdc00" style="" class=""/><path id="Shape" d="m30 36c-.52 0-1.02.02-1.5.06 5.55.37 8.71 2.76 10.46 5-2.5223573 3.3186929-6.3119457 5.438109-10.46 5.85.4981446.0554838.998795.0855228 1.5.09 4.7213595 0 9.1671843-2.2229124 12-6-1.94-2.37-5.51-5-12-5z" fill="#fec108" data-original="#fec108" style="" class=""/><path id="Shape" d="m45 32c.0072661 3.2467282-1.0461502 6.4069771-3 9-1.9-2.42-5.47-5-12-5 3.8659932 0 7-3.1340068 7-7s-3.1340068-7-7-7-7 3.1340068-7 7 3.1340068 7 7 7c-6.49 0-10.06 2.63-12 5-3.9158287-5.2211049-4.0063456-12.3749894-.2238727-17.6934996 3.7824728-5.3185102 10.5697867-7.5809482 16.7868711-5.5956237 6.2170844 1.9853244 10.4370016 7.7627421 10.4370016 14.2891233z" fill="#e91e63" data-original="#e91e63" style="" class=""/><path id="Shape" d="m30 17c-.5010337.0011903-1.0016819.0278915-1.5.08 7.6629617.7701562 13.4975295 7.2184341 13.5 14.92.0046175 2.5181421-.6320515 4.9959894-1.85 7.2.6822488.5473985 1.3026015 1.1677512 1.85 1.85 3.4388135-4.5454041 4.004407-10.6470365 1.4596832-15.7470873-2.5447238-5.1000507-7.7600401-8.3172375-13.4596832-8.3029127z" fill="#ad1457" data-original="#ad1457" style="" class=""/><circle id="Oval" cx="30" cy="29" fill="#ffe0b2" r="7" data-original="#ffe0b2" style="" class=""/><path id="Shape" d="m30 22c-.504172.0016046-1.0068332.0552218-1.5.16 3.2173045.6999453 5.511914 3.547437 5.511914 6.84s-2.2946095 6.1400547-5.511914 6.84c.4931668.1047782.995828.1583954 1.5.16 3.8659932-.0000001 6.9999999-3.1340068 6.9999999-7s-3.1340067-6.9999999-6.9999999-7z" fill="#dfc49c" data-original="#dfc49c" style="" class=""/><rect id="Rectangle-path" fill="#f5f5f5" height="8" rx="2" width="36" x="12" y="51" data-original="#f5f5f5" style="" class=""/><path id="Shape" d="m46 51h-3c1.1045695 0 2 .8954305 2 2v4c0 1.1045695-.8954305 2-2 2h3c1.1045695 0 2-.8954305 2-2v-4c0-1.1045695-.8954305-2-2-2z" fill="#cfd8dc" data-original="#cfd8dc" style="" class=""/><g fill="#000"><path id="Shape" d="m48 14c-.0137806-6.75848529-4.8538456-12.54228148-11.5040745-13.74717535s-13.2118426 2.51313692-15.5959255 8.83717535c-3.1853678.34613608-6.0079851 2.2080208-7.58 5-.4379481-.0548953-.8786538-.0849434-1.32-.09-6.627417 0-12 5.372583-12 12s5.372583 12 12 12h3.18c2.2974446 5.7158662 7.6723638 9.6050987 13.82 10v2h-15c-1.6568542 0-3 1.3431458-3 3v4c0 1.6568542 1.3431458 3 3 3h32c1.6568542 0 3-1.3431458 3-3v-4c0-1.6568542-1.3431458-3-3-3h-15v-2c6.1476362-.3949013 11.5225554-4.2841338 13.82-10h3.18c6.627417 0 12-5.372583 12-12s-5.372583-12-12-12zm-1 39v4c0 .5522847-.4477153 1-1 1h-32c-.5522847 0-1-.4477153-1-1v-4c0-.5522847.4477153-1 1-1h32c.5522847 0 1 .4477153 1 1zm-5.15-13.59c-1.9644196-1.981488-4.4683724-3.3412735-7.2-3.91 2.8298811-2.0214057 4.029682-5.6394969 2.9683464-8.951275-1.0613357-3.3117782-4.1406592-5.5585253-7.6183464-5.5585253s-6.5570107 2.2467471-7.6183464 5.5585253c-1.0613356 3.3117781.1384653 6.9298693 2.9683464 8.951275-2.7316276.5687265-5.2355804 1.928512-7.2 3.91-1.4056073-2.2157996-2.1513402-4.7859768-2.15-7.41.0000001-7.7319864 6.2680136-13.9999998 14-13.9999998s13.9999999 6.2680134 14 13.9999998c.0013402 2.6240232-.7443927 5.1942004-2.15 7.41zm-17.85-10.41c0-3.3137085 2.6862915-6 6-6s6 2.6862915 6 6-2.6862915 6-6 6-6-2.6862915-6-6zm6 17c-4.1041125.0013671-8.0002861-1.8058721-10.65-4.94 1.8-2 5-4.06 10.65-4.06s8.85 2.08 10.65 4.06c-2.6497139 3.1341279-6.5458875 4.9413671-10.65 4.94zm18-10h-2.53c.3495281-1.3046786.5276923-2.6493147.53-4 0-8.836556-7.163444-16-16-16s-16 7.163444-16 16c.0023077 1.3506853.1804719 2.6953214.53 4h-2.53c-5.5228475 0-10-4.4771525-10-10s4.4771525-10 10-10c1.9730774-.0063323 3.9027673.5788444 5.54 1.68.3001031.2000687.6841452.2248368 1.0074614.0649742.3233161-.1598625.5367869-.4800687.56-.84.023213-.3599312-.1473583-.7049055-.4474614-.9049742-1.0022971-.6732402-2.1016771-1.1892069-3.26-1.53 1.4344209-2.0914501 3.7755523-3.3788869 6.31-3.47h.22c1.756403-.0251036 3.4707167.5381206 4.87 1.6.4418278.3313708 1.0686291.2418278 1.4-.2.3313708-.4418278.2418278-1.0686291-.2-1.4-1.4368206-1.08209346-3.1410594-1.75272698-4.93-1.94 2.3315558-5.14486251 7.9354541-7.96718928 13.457282-6.77757612s9.466469 6.06906094 9.472718 11.71757612v.17c-1.6662638.2699658-3.2552963.893985-4.66 1.83-.4583963.3092795-.5792795.9316037-.27 1.39s.9316037.5792795 1.39.27c1.6394914-1.0940872 3.5690082-1.6722457 5.54-1.66 5.5228475 0 10 4.4771525 10 10s-4.4771525 10-10 10z" fill="#000000" data-original="#000000" style="" class=""/><path id="Shape" d="m17 56h1c.5522847 0 1-.4477153 1-1s-.4477153-1-1-1h-1c-.5522847 0-1 .4477153-1 1s.4477153 1 1 1z" fill="#000000" data-original="#000000" style="" class=""/><path id="Shape" d="m22 56h1c.5522847 0 1-.4477153 1-1s-.4477153-1-1-1h-1c-.5522847 0-1 .4477153-1 1s.4477153 1 1 1z" fill="#000000" data-original="#000000" style="" class=""/><path id="Shape" d="m27 56h1c.5522847 0 1-.4477153 1-1s-.4477153-1-1-1h-1c-.5522847 0-1 .4477153-1 1s.4477153 1 1 1z" fill="#000000" data-original="#000000" style="" class=""/><path id="Shape" d="m32 56h1c.5522847 0 1-.4477153 1-1s-.4477153-1-1-1h-1c-.5522847 0-1 .4477153-1 1s.4477153 1 1 1z" fill="#000000" data-original="#000000" style="" class=""/><path id="Shape" d="m37 56h1c.5522847 0 1-.4477153 1-1s-.4477153-1-1-1h-1c-.5522847 0-1 .4477153-1 1s.4477153 1 1 1z" fill="#000000" data-original="#000000" style="" class=""/><path id="Shape" d="m42 56h1c.5522847 0 1-.4477153 1-1s-.4477153-1-1-1h-1c-.5522847 0-1 .4477153-1 1s.4477153 1 1 1z" fill="#000000" data-original="#000000" style="" class=""/></g></g></g></g></svg>
